{"glyphs":{"0":{"ha":896,"x_min":68,"x_max":826,"o":"m 447 -22 q 248 44 335 -22 q 115 223 161 110 q 68 475 68 336 q 115 727 68 614 q 247 906 161 840 q 447 972 333 972 q 647 906 561 972 q 780 727 733 840 q 826 475 826 614 q 780 223 826 336 q 647 44 733 110 q 447 -22 560 -22 m 447 90 q 585 141 526 90 q 675 279 643 192 q 707 475 707 367 q 675 671 707 583 q 585 809 643 758 q 447 860 526 860 q 310 809 368 860 q 219 671 251 758 q 188 475 188 583 q 219 279 188 367 q 310 141 251 192 q 447 90 368 90 z "},"1":{"ha":528,"x_min":63,"x_max":408,"o":"m 290 785 l 124 665 l 63 756 l 333 950 l 408 950 l 408 0 l 290 0 l 290 785 z "},"2":{"ha":729,"x_min":63,"x_max":663,"o":"m 63 118 q 233 291 106 161 q 411 475 361 421 q 507 594 482 551 q 532 699 532 638 q 510 777 532 740 q 448 837 489 814 q 350 860 407 860 q 230 816 275 860 q 171 721 185 772 l 63 764 q 113 856 76 808 q 210 938 149 904 q 354 972 271 972 q 509 935 442 972 q 614 835 576 897 q 651 700 651 772 q 499 399 651 554 l 214 113 l 663 113 l 663 0 l 63 0 l 63 118 z "},"3":{"ha":743,"x_min":54,"x_max":681,"o":"m 363 -22 q 240 3 303 -22 q 127 81 178 28 q 54 215 76 135 l 161 260 q 237 135 183 179 q 363 90 290 90 q 461 113 415 90 q 534 177 507 136 q 561 268 561 218 q 534 357 561 317 q 460 420 507 397 q 358 443 414 443 l 276 443 l 276 553 l 350 553 q 478 597 426 553 q 529 713 529 640 q 479 819 529 779 q 356 860 429 860 q 242 822 283 860 q 183 731 201 785 l 75 776 q 172 912 100 851 q 356 972 243 972 q 506 939 439 972 q 610 846 572 906 q 649 713 649 786 q 611 588 649 639 q 518 507 574 536 l 518 501 q 635 412 589 472 q 681 269 681 351 q 638 119 681 186 q 523 15 596 53 q 363 -22 450 -22 z "},"4":{"ha":822,"x_min":63,"x_max":757,"o":"m 518 204 l 63 204 l 63 293 l 507 950 l 635 950 l 635 315 l 757 315 l 757 204 l 635 204 l 635 0 l 518 0 l 518 204 m 518 315 l 518 778 l 513 778 l 197 315 l 518 315 z "},"5":{"ha":782,"x_min":63,"x_max":707,"o":"m 381 -22 q 249 6 314 -22 q 133 92 183 35 q 63 235 83 150 l 167 276 q 244 141 188 192 q 378 90 300 90 q 529 147 471 90 q 588 296 588 204 q 530 445 588 386 q 381 504 472 504 q 286 481 331 504 q 214 418 242 458 l 93 471 l 156 950 l 647 950 l 647 838 l 253 838 l 215 550 l 221 549 q 401 611 294 611 q 553 571 483 611 q 665 458 624 531 q 707 297 707 386 q 665 135 707 208 q 547 20 622 63 q 381 -22 472 -22 z "},"6":{"ha":774,"x_min":63,"x_max":711,"o":"m 388 -22 q 219 24 293 -22 q 103 142 144 69 q 63 296 63 215 q 94 442 63 372 q 183 599 125 513 l 432 972 l 526 907 l 288 572 l 290 569 q 413 603 338 603 q 554 563 485 603 q 667 452 624 522 q 711 296 711 382 q 667 140 711 213 q 548 22 622 67 q 388 -22 474 -22 m 388 90 q 490 117 443 90 q 565 191 538 144 q 593 294 593 238 q 565 397 593 350 q 490 470 538 443 q 388 497 443 497 q 284 470 332 497 q 208 397 236 443 q 181 294 181 350 q 208 191 181 238 q 284 117 236 144 q 388 90 332 90 z "},"7":{"ha":735,"x_min":63,"x_max":672,"o":"m 107 32 l 550 838 l 63 838 l 63 950 l 672 950 l 672 829 l 211 -22 l 107 32 z "},"8":{"ha":765,"x_min":63,"x_max":704,"o":"m 383 -22 q 219 15 293 -22 q 104 117 146 53 q 63 261 63 182 q 106 402 63 342 q 221 497 150 463 l 221 503 q 130 591 165 536 q 94 706 94 646 q 131 842 94 781 q 234 938 168 903 q 383 972 300 972 q 531 938 465 972 q 634 842 597 903 q 671 706 671 781 q 635 591 671 646 q 546 503 600 536 l 546 497 q 660 402 617 463 q 704 261 704 342 q 662 117 704 182 q 546 15 619 53 q 383 -22 472 -22 m 383 553 q 504 596 457 553 q 551 708 551 639 q 503 819 551 778 q 383 860 456 860 q 262 819 310 860 q 214 708 214 778 q 262 596 214 639 q 383 553 310 553 m 383 90 q 526 140 468 90 q 583 268 583 189 q 526 394 583 344 q 383 443 468 443 q 240 394 299 443 q 182 268 182 344 q 240 140 182 189 q 383 90 299 90 z "},"9":{"ha":774,"x_min":63,"x_max":711,"o":"m 247 43 l 486 378 l 483 381 q 360 347 435 347 q 218 388 288 347 q 106 498 149 428 q 63 654 63 568 q 106 810 63 738 q 224 928 150 883 q 386 972 299 972 q 555 926 481 972 q 670 808 629 881 q 711 654 711 735 q 680 508 711 578 q 590 351 649 438 l 342 -22 l 247 43 m 386 453 q 490 480 442 453 q 565 553 538 507 q 593 656 593 600 q 565 759 593 713 q 490 833 538 806 q 386 860 442 860 q 283 833 331 860 q 208 759 236 806 q 181 656 181 713 q 208 553 181 600 q 283 480 236 507 q 386 453 331 453 z "},"\r":{"ha":0,"x_min":0,"x_max":0,"o":""}," ":{"ha":322,"x_min":0,"x_max":0,"o":""},"A":{"ha":929,"x_min":21,"x_max":908,"o":"m 397 994 l 531 994 l 908 0 l 779 0 l 679 274 l 250 274 l 150 0 l 21 0 l 397 994 m 639 385 l 507 743 l 467 850 l 461 850 l 422 743 l 290 385 l 639 385 z "},"Á":{"ha":929,"x_min":21,"x_max":908,"o":"m 397 994 l 531 994 l 908 0 l 779 0 l 679 274 l 250 274 l 150 0 l 21 0 l 397 994 m 639 385 l 507 743 l 467 850 l 461 850 l 422 743 l 290 385 l 639 385 m 485 1250 l 614 1250 l 515 1074 l 413 1074 l 485 1250 z "},"Ă":{"ha":929,"x_min":21,"x_max":908,"o":"m 397 994 l 531 994 l 908 0 l 779 0 l 679 274 l 250 274 l 150 0 l 21 0 l 397 994 m 639 385 l 507 743 l 467 850 l 461 850 l 422 743 l 290 385 l 639 385 m 465 1072 q 378 1095 419 1072 q 313 1158 338 1118 q 288 1244 288 1197 l 383 1244 q 406 1185 383 1210 q 465 1161 428 1161 q 522 1185 500 1161 q 544 1244 544 1210 l 639 1244 q 615 1158 639 1197 q 550 1095 590 1118 q 465 1072 510 1072 z "},"Â":{"ha":929,"x_min":21,"x_max":908,"o":"m 397 994 l 531 994 l 908 0 l 779 0 l 679 274 l 250 274 l 150 0 l 21 0 l 397 994 m 639 385 l 507 743 l 467 850 l 461 850 l 422 743 l 290 385 l 639 385 m 271 1089 l 413 1250 l 517 1250 l 658 1089 l 658 1082 l 544 1082 l 469 1169 l 458 1169 l 385 1082 l 271 1082 l 271 1089 z "},"Ä":{"ha":929,"x_min":21,"x_max":908,"o":"m 397 994 l 531 994 l 908 0 l 779 0 l 679 274 l 250 274 l 150 0 l 21 0 l 397 994 m 639 385 l 507 743 l 467 850 l 461 850 l 422 743 l 290 385 l 639 385 m 350 1096 q 297 1119 319 1096 q 275 1171 275 1142 q 297 1224 275 1203 q 350 1246 319 1246 q 403 1224 382 1246 q 424 1171 424 1203 q 403 1118 424 1140 q 350 1096 382 1096 m 578 1096 q 526 1119 549 1096 q 503 1171 503 1142 q 525 1224 503 1203 q 578 1246 547 1246 q 631 1224 610 1246 q 653 1171 653 1203 q 631 1118 653 1140 q 578 1096 610 1096 z "},"À":{"ha":929,"x_min":21,"x_max":908,"o":"m 397 994 l 531 994 l 908 0 l 779 0 l 679 274 l 250 274 l 150 0 l 21 0 l 397 994 m 639 385 l 507 743 l 467 850 l 461 850 l 422 743 l 290 385 l 639 385 m 315 1250 l 444 1250 l 517 1074 l 413 1074 l 315 1250 z "},"Ā":{"ha":929,"x_min":21,"x_max":908,"o":"m 397 994 l 531 994 l 908 0 l 779 0 l 679 274 l 250 274 l 150 0 l 21 0 l 397 994 m 639 385 l 507 743 l 467 850 l 461 850 l 422 743 l 290 385 l 639 385 m 272 1217 l 657 1217 l 657 1125 l 272 1125 l 272 1217 z "},"Ą":{"ha":929,"x_min":21,"x_max":933,"o":"m 868 -311 q 748 -265 793 -311 q 703 -150 703 -218 q 779 0 703 -67 l 679 274 l 250 274 l 150 0 l 21 0 l 397 994 l 531 994 l 908 0 q 833 -69 858 -39 q 808 -139 808 -100 q 827 -192 808 -171 q 878 -214 846 -214 q 933 -200 907 -214 l 933 -300 q 868 -311 908 -311 m 639 385 l 507 743 l 467 850 l 461 850 l 422 743 l 290 385 l 639 385 z "},"Å":{"ha":929,"x_min":21,"x_max":908,"o":"m 908 0 l 779 0 l 679 274 l 250 274 l 150 0 l 21 0 l 376 936 q 336 987 351 957 q 321 1050 321 1017 q 363 1151 321 1110 q 464 1193 404 1193 q 566 1151 524 1193 q 608 1050 608 1110 q 594 988 608 1017 q 553 938 579 958 l 908 0 m 464 1111 q 422 1093 440 1111 q 404 1050 404 1075 q 422 1007 404 1025 q 464 989 440 989 q 507 1007 489 989 q 525 1050 525 1025 q 507 1093 525 1075 q 464 1111 489 1111 m 639 385 l 507 743 l 467 850 l 461 850 l 422 743 l 290 385 l 639 385 z "},"Ǻ":{"ha":929,"x_min":21,"x_max":908,"o":"m 908 0 l 779 0 l 679 274 l 250 274 l 150 0 l 21 0 l 376 936 q 336 987 351 957 q 321 1050 321 1017 q 349 1135 321 1099 q 421 1186 376 1172 l 467 1294 l 585 1294 l 525 1181 q 585 1128 563 1163 q 608 1050 608 1093 q 594 988 608 1017 q 553 938 579 958 l 908 0 m 464 989 q 507 1007 489 989 q 525 1050 525 1025 q 507 1093 525 1075 q 464 1111 489 1111 q 422 1093 440 1111 q 404 1050 404 1075 q 422 1007 404 1025 q 464 989 440 989 m 639 385 l 507 743 l 467 850 l 461 850 l 422 743 l 290 385 l 639 385 z "},"Ã":{"ha":929,"x_min":21,"x_max":908,"o":"m 397 994 l 531 994 l 908 0 l 779 0 l 679 274 l 250 274 l 150 0 l 21 0 l 397 994 m 639 385 l 507 743 l 467 850 l 461 850 l 422 743 l 290 385 l 639 385 m 544 1083 q 495 1094 519 1083 q 436 1124 471 1104 q 381 1149 396 1149 q 331 1097 335 1149 l 233 1097 q 256 1185 233 1150 q 313 1238 278 1221 q 382 1256 347 1256 q 493 1214 425 1256 q 547 1190 535 1190 q 597 1242 593 1190 l 694 1242 q 648 1124 694 1165 q 544 1083 601 1083 z "},"Æ":{"ha":1333,"x_min":10,"x_max":1254,"o":"m 610 994 l 1254 994 l 1254 882 l 797 882 l 797 553 l 1210 553 l 1210 442 l 797 442 l 797 113 l 1254 113 l 1254 0 l 679 0 l 679 274 l 313 274 l 149 0 l 10 0 l 610 994 m 679 385 l 679 882 l 674 882 l 633 813 l 378 385 l 679 385 z "},"Ǽ":{"ha":1333,"x_min":10,"x_max":1254,"o":"m 610 994 l 1254 994 l 1254 882 l 797 882 l 797 553 l 1210 553 l 1210 442 l 797 442 l 797 113 l 1254 113 l 1254 0 l 679 0 l 679 274 l 313 274 l 149 0 l 10 0 l 610 994 m 679 385 l 679 882 l 674 882 l 633 813 l 378 385 l 679 385 m 946 1250 l 1075 1250 l 976 1074 l 874 1074 l 946 1250 z "},"B":{"ha":842,"x_min":111,"x_max":786,"o":"m 111 994 l 468 994 q 609 960 543 994 q 714 864 675 925 q 753 726 753 803 q 716 600 753 654 q 617 517 679 546 l 617 511 q 739 425 692 486 q 786 282 786 364 q 745 137 786 201 q 635 36 704 72 q 488 0 567 0 l 111 0 l 111 994 m 468 564 q 556 588 518 564 q 615 648 594 611 q 636 724 636 685 q 616 798 636 761 q 559 858 596 835 q 474 882 522 882 l 228 882 l 228 564 l 468 564 m 494 113 q 584 138 544 113 q 645 202 624 163 q 667 283 667 242 q 644 365 667 325 q 582 428 622 404 q 489 453 542 453 l 228 453 l 228 113 l 494 113 z "},"C":{"ha":1029,"x_min":63,"x_max":971,"o":"m 578 -22 q 315 46 433 -22 q 130 233 197 114 q 63 497 63 351 q 130 762 63 643 q 315 949 197 881 q 578 1017 433 1017 q 781 974 689 1017 q 942 854 874 932 l 857 772 q 733 872 800 840 q 578 904 665 904 q 379 853 469 904 q 235 710 289 803 q 182 497 182 618 q 235 284 182 376 q 379 141 289 192 q 578 90 469 90 q 885 239 758 90 l 971 156 q 800 26 901 74 q 578 -22 699 -22 z "},"Ć":{"ha":1029,"x_min":63,"x_max":971,"o":"m 578 -22 q 315 46 433 -22 q 130 233 197 114 q 63 497 63 351 q 130 762 63 643 q 315 949 197 881 q 578 1017 433 1017 q 781 974 689 1017 q 942 854 874 932 l 857 772 q 733 872 800 840 q 578 904 665 904 q 379 853 469 904 q 235 710 289 803 q 182 497 182 618 q 235 284 182 376 q 379 141 289 192 q 578 90 469 90 q 885 239 758 90 l 971 156 q 800 26 901 74 q 578 -22 699 -22 m 588 1250 l 717 1250 l 618 1074 l 515 1074 l 588 1250 z "},"Č":{"ha":1029,"x_min":63,"x_max":971,"o":"m 578 -22 q 315 46 433 -22 q 130 233 197 114 q 63 497 63 351 q 130 762 63 643 q 315 949 197 881 q 578 1017 433 1017 q 781 974 689 1017 q 942 854 874 932 l 857 772 q 733 872 800 840 q 578 904 665 904 q 379 853 469 904 q 235 710 289 803 q 182 497 182 618 q 235 284 182 376 q 379 141 289 192 q 578 90 469 90 q 885 239 758 90 l 971 156 q 800 26 901 74 q 578 -22 699 -22 m 374 1243 l 374 1250 l 488 1250 l 561 1163 l 572 1163 l 647 1250 l 761 1250 l 761 1243 l 619 1082 l 515 1082 l 374 1243 z "},"Ç":{"ha":1029,"x_min":63,"x_max":971,"o":"m 971 156 q 804 27 903 75 q 588 -22 706 -21 l 567 -68 q 599 -64 592 -64 q 688 -101 651 -64 q 725 -196 725 -139 q 685 -290 725 -251 q 585 -329 644 -329 q 505 -303 540 -329 q 454 -236 469 -276 l 524 -206 q 547 -241 531 -226 q 585 -256 563 -256 q 629 -238 613 -256 q 646 -196 646 -221 q 629 -151 646 -169 q 585 -133 613 -133 q 536 -157 556 -133 l 475 -129 l 517 -19 q 283 66 386 -6 q 121 250 179 138 q 63 497 63 363 q 130 762 63 643 q 315 949 197 881 q 578 1017 433 1017 q 781 974 689 1017 q 942 854 874 932 l 857 772 q 733 872 800 840 q 578 904 665 904 q 379 853 469 904 q 235 710 289 803 q 182 497 182 618 q 235 284 182 376 q 379 141 289 192 q 578 90 469 90 q 885 239 758 90 l 971 156 z "},"Ĉ":{"ha":1029,"x_min":63,"x_max":971,"o":"m 578 -22 q 315 46 433 -22 q 130 233 197 114 q 63 497 63 351 q 130 762 63 643 q 315 949 197 881 q 578 1017 433 1017 q 781 974 689 1017 q 942 854 874 932 l 857 772 q 733 872 800 840 q 578 904 665 904 q 379 853 469 904 q 235 710 289 803 q 182 497 182 618 q 235 284 182 376 q 379 141 289 192 q 578 90 469 90 q 885 239 758 90 l 971 156 q 800 26 901 74 q 578 -22 699 -22 m 374 1089 l 515 1250 l 619 1250 l 761 1089 l 761 1082 l 647 1082 l 572 1169 l 561 1169 l 488 1082 l 374 1082 l 374 1089 z "},"Ċ":{"ha":1029,"x_min":63,"x_max":971,"o":"m 578 -22 q 315 46 433 -22 q 130 233 197 114 q 63 497 63 351 q 130 762 63 643 q 315 949 197 881 q 578 1017 433 1017 q 781 974 689 1017 q 942 854 874 932 l 857 772 q 733 872 800 840 q 578 904 665 904 q 379 853 469 904 q 235 710 289 803 q 182 497 182 618 q 235 284 182 376 q 379 141 289 192 q 578 90 469 90 q 885 239 758 90 l 971 156 q 800 26 901 74 q 578 -22 699 -22 m 567 1121 q 519 1142 540 1121 q 499 1189 499 1163 q 519 1237 499 1217 q 567 1257 540 1257 q 617 1238 597 1257 q 636 1189 636 1218 q 616 1141 636 1161 q 567 1121 596 1121 z "},"D":{"ha":976,"x_min":111,"x_max":914,"o":"m 111 994 l 411 994 q 678 931 564 994 q 853 756 792 868 q 914 497 914 643 q 853 239 914 351 q 678 63 792 126 q 411 0 564 0 l 111 0 l 111 994 m 411 113 q 691 214 588 113 q 794 497 794 315 q 691 781 794 679 q 411 882 588 882 l 228 882 l 228 113 l 411 113 z "},"Ð":{"ha":1053,"x_min":82,"x_max":990,"o":"m 188 447 l 82 447 l 82 544 l 188 544 l 188 994 l 488 994 q 754 931 640 994 q 929 756 868 868 q 990 497 990 643 q 929 239 990 351 q 754 63 868 126 q 488 0 640 0 l 188 0 l 188 447 m 488 113 q 767 214 664 113 q 871 497 871 315 q 767 781 871 679 q 488 882 664 882 l 304 882 l 304 544 l 588 544 l 588 447 l 304 447 l 304 113 l 488 113 z "},"Ď":{"ha":976,"x_min":111,"x_max":914,"o":"m 111 994 l 411 994 q 678 931 564 994 q 853 756 792 868 q 914 497 914 643 q 853 239 914 351 q 678 63 792 126 q 411 0 564 0 l 111 0 l 111 994 m 411 113 q 691 214 588 113 q 794 497 794 315 q 691 781 794 679 q 411 882 588 882 l 228 882 l 228 113 l 411 113 m 249 1243 l 249 1250 l 363 1250 l 436 1163 l 447 1163 l 522 1250 l 636 1250 l 636 1243 l 494 1082 l 390 1082 l 249 1243 z "},"Đ":{"ha":979,"x_min":1,"x_max":917,"o":"m 114 471 l 1 471 l 1 563 l 114 563 l 114 994 l 414 994 q 681 931 567 994 q 856 756 794 868 q 917 497 917 643 q 856 239 917 351 q 681 63 794 126 q 414 0 567 0 l 114 0 l 114 471 m 414 113 q 694 214 590 113 q 797 497 797 315 q 694 781 797 679 q 414 882 590 882 l 232 882 l 232 563 l 488 563 l 488 471 l 232 471 l 232 113 l 414 113 z "},"E":{"ha":765,"x_min":111,"x_max":686,"o":"m 111 994 l 686 994 l 686 882 l 228 882 l 228 553 l 642 553 l 642 442 l 228 442 l 228 113 l 686 113 l 686 0 l 111 0 l 111 994 z "},"É":{"ha":765,"x_min":111,"x_max":686,"o":"m 111 994 l 686 994 l 686 882 l 228 882 l 228 553 l 642 553 l 642 442 l 228 442 l 228 113 l 686 113 l 686 0 l 111 0 l 111 994 m 419 1250 l 549 1250 l 450 1074 l 347 1074 l 419 1250 z "},"Ĕ":{"ha":765,"x_min":111,"x_max":686,"o":"m 111 994 l 686 994 l 686 882 l 228 882 l 228 553 l 642 553 l 642 442 l 228 442 l 228 113 l 686 113 l 686 0 l 111 0 l 111 994 m 400 1072 q 313 1095 354 1072 q 247 1158 272 1118 q 222 1244 222 1197 l 318 1244 q 340 1185 318 1210 q 400 1161 363 1161 q 457 1185 435 1161 q 479 1244 479 1210 l 574 1244 q 549 1158 574 1197 q 485 1095 525 1118 q 400 1072 444 1072 z "},"Ě":{"ha":765,"x_min":111,"x_max":686,"o":"m 111 994 l 686 994 l 686 882 l 228 882 l 228 553 l 642 553 l 642 442 l 228 442 l 228 113 l 686 113 l 686 0 l 111 0 l 111 994 m 206 1243 l 206 1250 l 319 1250 l 393 1163 l 404 1163 l 479 1250 l 593 1250 l 593 1243 l 451 1082 l 347 1082 l 206 1243 z "},"Ê":{"ha":765,"x_min":111,"x_max":686,"o":"m 111 994 l 686 994 l 686 882 l 228 882 l 228 553 l 642 553 l 642 442 l 228 442 l 228 113 l 686 113 l 686 0 l 111 0 l 111 994 m 206 1089 l 347 1250 l 451 1250 l 593 1089 l 593 1082 l 479 1082 l 404 1169 l 393 1169 l 319 1082 l 206 1082 l 206 1089 z "},"Ë":{"ha":765,"x_min":111,"x_max":686,"o":"m 111 994 l 686 994 l 686 882 l 228 882 l 228 553 l 642 553 l 642 442 l 228 442 l 228 113 l 686 113 l 686 0 l 111 0 l 111 994 m 285 1096 q 232 1119 254 1096 q 210 1171 210 1142 q 232 1224 210 1203 q 285 1246 254 1246 q 338 1224 317 1246 q 358 1171 358 1203 q 338 1118 358 1140 q 285 1096 317 1096 m 513 1096 q 460 1119 483 1096 q 438 1171 438 1142 q 460 1224 438 1203 q 513 1246 482 1246 q 566 1224 544 1246 q 588 1171 588 1203 q 566 1118 588 1140 q 513 1096 544 1096 z "},"Ė":{"ha":765,"x_min":111,"x_max":686,"o":"m 111 994 l 686 994 l 686 882 l 228 882 l 228 553 l 642 553 l 642 442 l 228 442 l 228 113 l 686 113 l 686 0 l 111 0 l 111 994 m 399 1121 q 351 1142 372 1121 q 331 1189 331 1163 q 351 1237 331 1217 q 399 1257 372 1257 q 449 1238 429 1257 q 468 1189 468 1218 q 448 1141 468 1161 q 399 1121 428 1121 z "},"È":{"ha":765,"x_min":111,"x_max":686,"o":"m 111 994 l 686 994 l 686 882 l 228 882 l 228 553 l 642 553 l 642 442 l 228 442 l 228 113 l 686 113 l 686 0 l 111 0 l 111 994 m 250 1250 l 379 1250 l 451 1074 l 347 1074 l 250 1250 z "},"Ē":{"ha":765,"x_min":111,"x_max":686,"o":"m 111 994 l 686 994 l 686 882 l 228 882 l 228 553 l 642 553 l 642 442 l 228 442 l 228 113 l 686 113 l 686 0 l 111 0 l 111 994 m 207 1217 l 592 1217 l 592 1125 l 207 1125 l 207 1217 z "},"Ę":{"ha":765,"x_min":111,"x_max":711,"o":"m 646 -311 q 526 -267 571 -311 q 481 -156 481 -222 q 507 -65 481 -104 q 569 0 533 -26 l 111 0 l 111 994 l 686 994 l 686 882 l 228 882 l 228 553 l 642 553 l 642 442 l 228 442 l 228 113 l 686 113 l 686 0 q 611 -69 636 -37 q 586 -139 586 -100 q 605 -192 586 -171 q 656 -214 624 -214 q 711 -200 685 -214 l 711 -300 q 646 -311 686 -311 z "},"F":{"ha":738,"x_min":111,"x_max":686,"o":"m 111 994 l 686 994 l 686 882 l 228 882 l 228 542 l 642 542 l 642 431 l 228 431 l 228 0 l 111 0 l 111 994 z "},"G":{"ha":1129,"x_min":63,"x_max":1065,"o":"m 578 -22 q 319 46 438 -22 q 132 233 201 114 q 63 497 63 353 q 132 761 63 642 q 319 949 201 881 q 578 1017 438 1017 q 784 978 688 1017 q 943 868 881 939 l 858 783 q 738 873 811 842 q 579 904 664 904 q 383 853 474 904 q 237 710 292 803 q 182 497 182 618 q 237 284 182 376 q 383 141 292 192 q 579 90 475 90 q 747 122 679 90 q 863 204 814 153 q 921 298 899 243 q 949 419 943 353 l 581 419 l 581 529 l 1058 529 q 1065 457 1065 490 q 1036 278 1065 365 q 943 126 1007 192 q 578 -22 806 -22 z "},"Ğ":{"ha":1129,"x_min":63,"x_max":1065,"o":"m 578 -22 q 319 46 438 -22 q 132 233 201 114 q 63 497 63 353 q 132 761 63 642 q 319 949 201 881 q 578 1017 438 1017 q 784 978 688 1017 q 943 868 881 939 l 858 783 q 738 873 811 842 q 579 904 664 904 q 383 853 474 904 q 237 710 292 803 q 182 497 182 618 q 237 284 182 376 q 383 141 292 192 q 579 90 475 90 q 747 122 679 90 q 863 204 814 153 q 921 298 899 243 q 949 419 943 353 l 581 419 l 581 529 l 1058 529 q 1065 457 1065 490 q 1036 278 1065 365 q 943 126 1007 192 q 578 -22 806 -22 m 579 1072 q 492 1095 533 1072 q 426 1158 451 1118 q 401 1244 401 1197 l 497 1244 q 519 1185 497 1210 q 579 1161 542 1161 q 636 1185 614 1161 q 658 1244 658 1210 l 753 1244 q 728 1158 753 1197 q 664 1095 704 1118 q 579 1072 624 1072 z "},"Ĝ":{"ha":1129,"x_min":63,"x_max":1065,"o":"m 578 -22 q 319 46 438 -22 q 132 233 201 114 q 63 497 63 353 q 132 761 63 642 q 319 949 201 881 q 578 1017 438 1017 q 784 978 688 1017 q 943 868 881 939 l 858 783 q 738 873 811 842 q 579 904 664 904 q 383 853 474 904 q 237 710 292 803 q 182 497 182 618 q 237 284 182 376 q 383 141 292 192 q 579 90 475 90 q 747 122 679 90 q 863 204 814 153 q 921 298 899 243 q 949 419 943 353 l 581 419 l 581 529 l 1058 529 q 1065 457 1065 490 q 1036 278 1065 365 q 943 126 1007 192 q 578 -22 806 -22 m 385 1089 l 526 1250 l 631 1250 l 772 1089 l 772 1082 l 658 1082 l 583 1169 l 572 1169 l 499 1082 l 385 1082 l 385 1089 z "},"Ģ":{"ha":1129,"x_min":63,"x_max":1065,"o":"m 578 -22 q 319 46 438 -22 q 132 233 201 114 q 63 497 63 353 q 132 761 63 642 q 319 949 201 881 q 578 1017 438 1017 q 784 978 688 1017 q 943 868 881 939 l 858 783 q 738 873 811 842 q 579 904 664 904 q 383 853 474 904 q 237 710 292 803 q 182 497 182 618 q 237 284 182 376 q 383 141 292 192 q 579 90 475 90 q 747 122 679 90 q 863 204 814 153 q 921 298 899 243 q 949 419 943 353 l 581 419 l 581 529 l 1058 529 q 1065 457 1065 490 q 1036 278 1065 365 q 943 126 1007 192 q 578 -22 806 -22 m 489 -294 l 544 -215 q 503 -190 519 -210 q 488 -143 488 -169 q 510 -90 488 -114 q 565 -67 532 -67 q 622 -90 600 -67 q 643 -147 643 -112 q 626 -207 643 -174 l 542 -331 l 489 -294 z "},"Ġ":{"ha":1129,"x_min":63,"x_max":1065,"o":"m 578 -22 q 319 46 438 -22 q 132 233 201 114 q 63 497 63 353 q 132 761 63 642 q 319 949 201 881 q 578 1017 438 1017 q 784 978 688 1017 q 943 868 881 939 l 858 783 q 738 873 811 842 q 579 904 664 904 q 383 853 474 904 q 237 710 292 803 q 182 497 182 618 q 237 284 182 376 q 383 141 292 192 q 579 90 475 90 q 747 122 679 90 q 863 204 814 153 q 921 298 899 243 q 949 419 943 353 l 581 419 l 581 529 l 1058 529 q 1065 457 1065 490 q 1036 278 1065 365 q 943 126 1007 192 q 578 -22 806 -22 m 578 1121 q 531 1142 551 1121 q 510 1189 510 1163 q 531 1237 510 1217 q 578 1257 551 1257 q 628 1238 608 1257 q 647 1189 647 1218 q 627 1141 647 1161 q 578 1121 607 1121 z "},"H":{"ha":969,"x_min":111,"x_max":858,"o":"m 111 994 l 228 994 l 228 564 l 742 564 l 742 994 l 858 994 l 858 0 l 742 0 l 742 453 l 228 453 l 228 0 l 111 0 l 111 994 z "},"Ħ":{"ha":969,"x_min":22,"x_max":947,"o":"m 947 707 l 858 707 l 858 0 l 742 0 l 742 453 l 228 453 l 228 0 l 111 0 l 111 707 l 22 707 l 22 799 l 111 799 l 111 994 l 228 994 l 228 799 l 742 799 l 742 994 l 858 994 l 858 799 l 947 799 l 947 707 m 742 707 l 228 707 l 228 564 l 742 564 l 742 707 z "},"Ĥ":{"ha":969,"x_min":111,"x_max":858,"o":"m 111 994 l 228 994 l 228 564 l 742 564 l 742 994 l 858 994 l 858 0 l 742 0 l 742 453 l 228 453 l 228 0 l 111 0 l 111 994 m 292 1089 l 433 1250 l 538 1250 l 679 1089 l 679 1082 l 565 1082 l 490 1169 l 479 1169 l 406 1082 l 292 1082 l 292 1089 z "},"I":{"ha":339,"x_min":111,"x_max":228,"o":"m 111 994 l 228 994 l 228 0 l 111 0 l 111 994 z "},"Í":{"ha":339,"x_min":111,"x_max":319,"o":"m 111 994 l 228 994 l 228 0 l 111 0 l 111 994 m 190 1250 l 319 1250 l 221 1074 l 118 1074 l 190 1250 z "},"Ĭ":{"ha":339,"x_min":-7,"x_max":344,"o":"m 111 994 l 228 994 l 228 0 l 111 0 l 111 994 m 171 1072 q 84 1095 125 1072 q 18 1158 43 1118 q -7 1244 -7 1197 l 89 1244 q 111 1185 89 1210 q 171 1161 133 1161 q 228 1185 206 1161 q 250 1244 250 1210 l 344 1244 q 320 1158 344 1197 q 256 1095 296 1118 q 171 1072 215 1072 z "},"Î":{"ha":339,"x_min":-24,"x_max":364,"o":"m 111 994 l 228 994 l 228 0 l 111 0 l 111 994 m -24 1089 l 118 1250 l 222 1250 l 364 1089 l 364 1082 l 250 1082 l 175 1169 l 164 1169 l 90 1082 l -24 1082 l -24 1089 z "},"Ï":{"ha":339,"x_min":3,"x_max":336,"o":"m 78 1097 q 25 1119 47 1097 q 3 1172 3 1142 q 25 1226 3 1204 q 78 1247 47 1247 q 131 1226 110 1247 q 151 1172 151 1204 q 131 1119 151 1142 q 78 1097 110 1097 m 263 1097 q 210 1119 232 1097 q 188 1172 188 1142 q 210 1226 188 1204 q 263 1247 232 1247 q 315 1226 294 1247 q 336 1172 336 1204 q 315 1119 336 1142 q 263 1097 294 1097 m 111 994 l 228 994 l 228 0 l 111 0 l 111 994 z "},"İ":{"ha":339,"x_min":101,"x_max":239,"o":"m 111 994 l 228 994 l 228 0 l 111 0 l 111 994 m 169 1121 q 122 1142 143 1121 q 101 1189 101 1163 q 122 1237 101 1217 q 169 1257 143 1257 q 219 1238 200 1257 q 239 1189 239 1218 q 219 1141 239 1161 q 169 1121 199 1121 z "},"Ì":{"ha":339,"x_min":21,"x_max":228,"o":"m 111 994 l 228 994 l 228 0 l 111 0 l 111 994 m 21 1250 l 150 1250 l 222 1074 l 118 1074 l 21 1250 z "},"Ī":{"ha":339,"x_min":-1,"x_max":340,"o":"m -1 1217 l 340 1217 l 340 1125 l -1 1125 l -1 1217 m 113 994 l 229 994 l 229 0 l 113 0 l 113 994 z "},"Į":{"ha":336,"x_min":21,"x_max":251,"o":"m 186 -311 q 66 -267 111 -311 q 21 -156 21 -222 q 47 -65 21 -104 q 110 0 74 -26 l 110 994 l 226 994 l 226 0 q 151 -69 176 -39 q 126 -139 126 -100 q 145 -192 126 -171 q 196 -214 164 -214 q 251 -200 225 -214 l 251 -300 q 186 -311 226 -311 z "},"Ĩ":{"ha":339,"x_min":-61,"x_max":400,"o":"m 111 994 l 228 994 l 228 0 l 111 0 l 111 994 m 250 1083 q 201 1094 225 1083 q 142 1124 176 1104 q 86 1149 101 1149 q 36 1097 40 1149 l -61 1097 q -39 1185 -61 1150 q 18 1238 -17 1221 q 88 1256 53 1256 q 199 1214 131 1256 q 253 1190 240 1190 q 303 1242 299 1190 l 400 1242 q 353 1124 400 1165 q 250 1083 307 1083 z "},"J":{"ha":736,"x_min":36,"x_max":642,"o":"m 343 -22 q 151 38 233 -22 q 36 208 69 99 l 147 254 q 343 90 197 90 q 474 147 425 90 q 524 297 524 204 l 524 994 l 642 994 l 642 307 q 603 128 642 203 q 498 16 565 54 q 343 -22 431 -22 z "},"Ĵ":{"ha":736,"x_min":36,"x_max":778,"o":"m 343 -22 q 151 38 233 -22 q 36 208 69 99 l 147 254 q 343 90 197 90 q 474 147 425 90 q 524 297 524 204 l 524 994 l 642 994 l 642 307 q 603 128 642 203 q 498 16 565 54 q 343 -22 431 -22 m 390 1089 l 532 1250 l 636 1250 l 778 1089 l 778 1082 l 664 1082 l 589 1169 l 578 1169 l 504 1082 l 390 1082 l 390 1089 z "},"K":{"ha":868,"x_min":111,"x_max":860,"o":"m 111 994 l 228 994 l 228 471 l 233 471 l 682 994 l 833 994 l 833 989 l 465 564 l 860 6 l 860 0 l 717 0 l 386 474 l 228 292 l 228 0 l 111 0 l 111 994 z "},"Ķ":{"ha":868,"x_min":111,"x_max":860,"o":"m 111 994 l 228 994 l 228 471 l 233 471 l 682 994 l 833 994 l 833 989 l 465 564 l 860 6 l 860 0 l 717 0 l 386 474 l 228 292 l 228 0 l 111 0 l 111 994 m 357 -294 l 413 -215 q 372 -190 388 -210 q 356 -143 356 -169 q 378 -90 356 -114 q 433 -67 400 -67 q 490 -90 468 -67 q 511 -147 511 -112 q 494 -207 511 -174 l 410 -331 l 357 -294 z "},"L":{"ha":707,"x_min":111,"x_max":664,"o":"m 111 994 l 228 994 l 228 113 l 664 113 l 664 0 l 111 0 l 111 994 z "},"Ĺ":{"ha":707,"x_min":111,"x_max":664,"o":"m 111 994 l 228 994 l 228 113 l 664 113 l 664 0 l 111 0 l 111 994 m 190 1250 l 319 1250 l 221 1074 l 118 1074 l 190 1250 z "},"Ľ":{"ha":707,"x_min":111,"x_max":664,"o":"m 111 994 l 228 994 l 228 113 l 664 113 l 664 0 l 111 0 l 111 994 m 440 994 l 567 994 l 526 732 l 440 732 l 440 994 z "},"Ļ":{"ha":707,"x_min":111,"x_max":664,"o":"m 111 994 l 228 994 l 228 113 l 664 113 l 664 0 l 111 0 l 111 994 m 311 -294 l 367 -215 q 326 -190 342 -210 q 310 -143 310 -169 q 332 -90 310 -114 q 388 -67 354 -67 q 444 -90 422 -67 q 465 -147 465 -112 q 449 -207 465 -174 l 364 -331 l 311 -294 z "},"Ŀ":{"ha":707,"x_min":111,"x_max":664,"o":"m 111 994 l 228 994 l 228 113 l 664 113 l 664 0 l 111 0 l 111 994 m 460 389 q 397 415 422 389 q 371 478 371 440 q 397 541 371 515 q 460 567 422 567 q 522 541 496 567 q 547 478 547 515 q 522 415 547 440 q 460 389 496 389 z "},"Ł":{"ha":808,"x_min":68,"x_max":767,"o":"m 213 390 l 122 335 l 68 421 l 213 511 l 213 994 l 331 994 l 331 593 l 513 706 l 565 618 l 331 472 l 331 113 l 767 113 l 767 0 l 213 0 l 213 390 z "},"M":{"ha":1203,"x_min":111,"x_max":1092,"o":"m 111 994 l 282 994 l 599 179 l 604 179 l 921 994 l 1092 994 l 1092 0 l 975 0 l 975 632 l 981 821 l 975 821 l 650 0 l 553 0 l 228 821 l 222 821 l 228 632 l 228 0 l 111 0 l 111 994 z "},"N":{"ha":983,"x_min":111,"x_max":872,"o":"m 111 994 l 256 994 l 754 203 l 760 203 l 754 394 l 754 994 l 872 994 l 872 0 l 750 0 l 228 829 l 222 829 l 228 638 l 228 0 l 111 0 l 111 994 z "},"Ń":{"ha":983,"x_min":111,"x_max":872,"o":"m 111 994 l 256 994 l 754 203 l 760 203 l 754 394 l 754 994 l 872 994 l 872 0 l 750 0 l 228 829 l 222 829 l 228 638 l 228 0 l 111 0 l 111 994 m 526 1250 l 656 1250 l 557 1074 l 454 1074 l 526 1250 z "},"Ň":{"ha":983,"x_min":111,"x_max":872,"o":"m 111 994 l 256 994 l 754 203 l 760 203 l 754 394 l 754 994 l 872 994 l 872 0 l 750 0 l 228 829 l 222 829 l 228 638 l 228 0 l 111 0 l 111 994 m 313 1243 l 313 1250 l 426 1250 l 500 1163 l 511 1163 l 586 1250 l 700 1250 l 700 1243 l 558 1082 l 454 1082 l 313 1243 z "},"Ņ":{"ha":983,"x_min":111,"x_max":872,"o":"m 111 994 l 256 994 l 754 203 l 760 203 l 754 394 l 754 994 l 872 994 l 872 0 l 750 0 l 228 829 l 222 829 l 228 638 l 228 0 l 111 0 l 111 994 m 415 -294 l 471 -215 q 430 -190 446 -210 q 414 -143 414 -169 q 436 -90 414 -114 q 492 -67 458 -67 q 548 -90 526 -67 q 569 -147 569 -112 q 553 -207 569 -174 l 468 -331 l 415 -294 z "},"Ŋ":{"ha":983,"x_min":111,"x_max":872,"o":"m 676 -314 q 617 -306 643 -314 l 617 -193 q 672 -207 642 -207 q 735 -180 715 -207 q 754 -100 754 -153 l 754 4 l 228 829 l 222 829 l 228 638 l 228 0 l 111 0 l 111 994 l 256 994 l 754 203 l 760 203 l 754 394 l 754 994 l 872 994 l 872 -100 q 821 -260 872 -207 q 676 -314 769 -314 z "},"Ñ":{"ha":983,"x_min":111,"x_max":872,"o":"m 111 994 l 256 994 l 754 203 l 760 203 l 754 394 l 754 994 l 872 994 l 872 0 l 750 0 l 228 829 l 222 829 l 228 638 l 228 0 l 111 0 l 111 994 m 586 1083 q 537 1094 561 1083 q 478 1124 513 1104 q 422 1149 438 1149 q 372 1097 376 1149 l 275 1097 q 297 1185 275 1150 q 354 1238 319 1221 q 424 1256 389 1256 q 535 1214 467 1256 q 589 1190 576 1190 q 639 1242 635 1190 l 736 1242 q 690 1124 736 1165 q 586 1083 643 1083 z "},"O":{"ha":1146,"x_min":63,"x_max":1083,"o":"m 572 -22 q 313 47 429 -22 q 129 235 196 117 q 63 497 63 354 q 129 758 63 639 q 313 947 196 878 q 572 1017 429 1017 q 832 947 715 1017 q 1016 758 949 878 q 1083 497 1083 639 q 1017 235 1083 354 q 833 47 950 117 q 572 -22 715 -22 m 572 90 q 769 142 679 90 q 910 287 858 194 q 963 497 963 379 q 910 708 963 615 q 769 852 858 800 q 572 904 679 904 q 376 852 465 904 q 235 707 288 800 q 182 497 182 614 q 235 288 182 381 q 376 142 288 194 q 572 90 465 90 z "},"Ó":{"ha":1146,"x_min":63,"x_max":1083,"o":"m 572 -22 q 313 47 429 -22 q 129 235 196 117 q 63 497 63 354 q 129 758 63 639 q 313 947 196 878 q 572 1017 429 1017 q 832 947 715 1017 q 1016 758 949 878 q 1083 497 1083 639 q 1017 235 1083 354 q 833 47 950 117 q 572 -22 715 -22 m 572 90 q 769 142 679 90 q 910 287 858 194 q 963 497 963 379 q 910 708 963 615 q 769 852 858 800 q 572 904 679 904 q 376 852 465 904 q 235 707 288 800 q 182 497 182 614 q 235 288 182 381 q 376 142 288 194 q 572 90 465 90 m 593 1250 l 722 1250 l 624 1074 l 521 1074 l 593 1250 z "},"Ŏ":{"ha":1146,"x_min":63,"x_max":1083,"o":"m 572 -22 q 313 47 429 -22 q 129 235 196 117 q 63 497 63 354 q 129 758 63 639 q 313 947 196 878 q 572 1017 429 1017 q 832 947 715 1017 q 1016 758 949 878 q 1083 497 1083 639 q 1017 235 1083 354 q 833 47 950 117 q 572 -22 715 -22 m 572 90 q 769 142 679 90 q 910 287 858 194 q 963 497 963 379 q 910 708 963 615 q 769 852 858 800 q 572 904 679 904 q 376 852 465 904 q 235 707 288 800 q 182 497 182 614 q 235 288 182 381 q 376 142 288 194 q 572 90 465 90 m 574 1072 q 487 1095 528 1072 q 421 1158 446 1118 q 396 1244 396 1197 l 492 1244 q 514 1185 492 1210 q 574 1161 536 1161 q 631 1185 608 1161 q 653 1244 653 1210 l 747 1244 q 723 1158 747 1197 q 658 1095 699 1118 q 574 1072 618 1072 z "},"Ô":{"ha":1146,"x_min":63,"x_max":1083,"o":"m 572 -22 q 313 47 429 -22 q 129 235 196 117 q 63 497 63 354 q 129 758 63 639 q 313 947 196 878 q 572 1017 429 1017 q 832 947 715 1017 q 1016 758 949 878 q 1083 497 1083 639 q 1017 235 1083 354 q 833 47 950 117 q 572 -22 715 -22 m 572 90 q 769 142 679 90 q 910 287 858 194 q 963 497 963 379 q 910 708 963 615 q 769 852 858 800 q 572 904 679 904 q 376 852 465 904 q 235 707 288 800 q 182 497 182 614 q 235 288 182 381 q 376 142 288 194 q 572 90 465 90 m 379 1089 l 521 1250 l 625 1250 l 767 1089 l 767 1082 l 653 1082 l 578 1169 l 567 1169 l 493 1082 l 379 1082 l 379 1089 z "},"Ö":{"ha":1146,"x_min":63,"x_max":1083,"o":"m 572 -22 q 313 47 429 -22 q 129 235 196 117 q 63 497 63 354 q 129 758 63 639 q 313 947 196 878 q 572 1017 429 1017 q 832 947 715 1017 q 1016 758 949 878 q 1083 497 1083 639 q 1017 235 1083 354 q 833 47 950 117 q 572 -22 715 -22 m 572 90 q 769 142 679 90 q 910 287 858 194 q 963 497 963 379 q 910 708 963 615 q 769 852 858 800 q 572 904 679 904 q 376 852 465 904 q 235 707 288 800 q 182 497 182 614 q 235 288 182 381 q 376 142 288 194 q 572 90 465 90 m 458 1096 q 406 1119 428 1096 q 383 1171 383 1142 q 406 1224 383 1203 q 458 1246 428 1246 q 511 1224 490 1246 q 532 1171 532 1203 q 511 1118 532 1140 q 458 1096 490 1096 m 686 1096 q 634 1119 657 1096 q 611 1171 611 1142 q 633 1224 611 1203 q 686 1246 656 1246 q 740 1224 718 1246 q 761 1171 761 1203 q 740 1118 761 1140 q 686 1096 718 1096 z "},"Ò":{"ha":1146,"x_min":63,"x_max":1083,"o":"m 572 -22 q 313 47 429 -22 q 129 235 196 117 q 63 497 63 354 q 129 758 63 639 q 313 947 196 878 q 572 1017 429 1017 q 832 947 715 1017 q 1016 758 949 878 q 1083 497 1083 639 q 1017 235 1083 354 q 833 47 950 117 q 572 -22 715 -22 m 572 90 q 769 142 679 90 q 910 287 858 194 q 963 497 963 379 q 910 708 963 615 q 769 852 858 800 q 572 904 679 904 q 376 852 465 904 q 235 707 288 800 q 182 497 182 614 q 235 288 182 381 q 376 142 288 194 q 572 90 465 90 m 424 1250 l 553 1250 l 625 1074 l 521 1074 l 424 1250 z "},"Ő":{"ha":1146,"x_min":63,"x_max":1083,"o":"m 572 -22 q 313 47 429 -22 q 129 235 196 117 q 63 497 63 354 q 129 758 63 639 q 313 947 196 878 q 572 1017 429 1017 q 832 947 715 1017 q 1016 758 949 878 q 1083 497 1083 639 q 1017 235 1083 354 q 833 47 950 117 q 572 -22 715 -22 m 572 90 q 769 142 679 90 q 910 287 858 194 q 963 497 963 379 q 910 708 963 615 q 769 852 858 800 q 572 904 679 904 q 376 852 465 904 q 235 707 288 800 q 182 497 182 614 q 235 288 182 381 q 376 142 288 194 q 572 90 465 90 m 506 1250 l 635 1250 l 536 1074 l 433 1074 l 506 1250 m 682 1250 l 811 1250 l 713 1074 l 610 1074 l 682 1250 z "},"Ō":{"ha":1146,"x_min":63,"x_max":1083,"o":"m 572 -22 q 313 47 429 -22 q 129 235 196 117 q 63 497 63 354 q 129 758 63 639 q 313 947 196 878 q 572 1017 429 1017 q 832 947 715 1017 q 1016 758 949 878 q 1083 497 1083 639 q 1017 235 1083 354 q 833 47 950 117 q 572 -22 715 -22 m 572 90 q 769 142 679 90 q 910 287 858 194 q 963 497 963 379 q 910 708 963 615 q 769 852 858 800 q 572 904 679 904 q 376 852 465 904 q 235 707 288 800 q 182 497 182 614 q 235 288 182 381 q 376 142 288 194 q 572 90 465 90 m 381 1217 l 765 1217 l 765 1125 l 381 1125 l 381 1217 z "},"Ø":{"ha":1146,"x_min":63,"x_max":1083,"o":"m 888 910 q 1031 730 979 838 q 1083 497 1083 622 q 1017 235 1083 354 q 833 47 950 117 q 572 -22 715 -22 q 340 32 446 -22 l 289 -50 l 207 1 l 258 83 q 115 264 167 156 q 63 497 63 372 q 129 758 63 639 q 313 947 196 878 q 572 1017 429 1017 q 806 961 699 1017 l 858 1046 l 939 993 l 888 910 m 182 497 q 219 319 182 400 q 319 182 256 238 l 746 865 q 572 904 664 904 q 376 852 465 904 q 235 707 288 800 q 182 497 182 614 m 572 90 q 769 142 679 90 q 910 287 858 194 q 963 497 963 379 q 926 675 963 594 q 826 811 890 756 l 400 129 q 572 90 482 90 z "},"Ǿ":{"ha":1146,"x_min":63,"x_max":1083,"o":"m 888 910 q 1031 730 979 838 q 1083 497 1083 622 q 1017 235 1083 354 q 833 47 950 117 q 572 -22 715 -22 q 340 32 446 -22 l 289 -50 l 207 1 l 258 83 q 115 264 167 156 q 63 497 63 372 q 129 758 63 639 q 313 947 196 878 q 572 1017 429 1017 q 806 961 699 1017 l 858 1046 l 939 993 l 888 910 m 182 497 q 219 319 182 400 q 319 182 256 238 l 746 865 q 572 904 664 904 q 376 852 465 904 q 235 707 288 800 q 182 497 182 614 m 572 90 q 769 142 679 90 q 910 287 858 194 q 963 497 963 379 q 926 675 963 594 q 826 811 890 756 l 400 129 q 572 90 482 90 m 593 1250 l 722 1250 l 624 1074 l 521 1074 l 593 1250 z "},"Õ":{"ha":1146,"x_min":63,"x_max":1083,"o":"m 572 -22 q 313 47 429 -22 q 129 235 196 117 q 63 497 63 354 q 129 758 63 639 q 313 947 196 878 q 572 1017 429 1017 q 832 947 715 1017 q 1016 758 949 878 q 1083 497 1083 639 q 1017 235 1083 354 q 833 47 950 117 q 572 -22 715 -22 m 572 90 q 769 142 679 90 q 910 287 858 194 q 963 497 963 379 q 910 708 963 615 q 769 852 858 800 q 572 904 679 904 q 376 852 465 904 q 235 707 288 800 q 182 497 182 614 q 235 288 182 381 q 376 142 288 194 q 572 90 465 90 m 653 1083 q 603 1094 628 1083 q 544 1124 579 1104 q 489 1149 504 1149 q 439 1097 443 1149 l 342 1097 q 364 1185 342 1150 q 421 1238 386 1221 q 490 1256 456 1256 q 601 1214 533 1256 q 656 1190 643 1190 q 706 1242 701 1190 l 803 1242 q 756 1124 803 1165 q 653 1083 710 1083 z "},"Œ":{"ha":1617,"x_min":63,"x_max":1539,"o":"m 572 -22 q 313 47 429 -22 q 129 235 196 117 q 63 497 63 354 q 129 758 63 639 q 313 947 196 878 q 572 1017 429 1017 q 797 966 696 1017 q 963 825 897 915 l 963 994 l 1539 994 l 1539 882 l 1081 882 l 1081 553 l 1494 553 l 1494 442 l 1081 442 l 1081 113 l 1539 113 l 1539 0 l 963 0 l 963 168 q 797 28 897 79 q 572 -22 696 -22 m 572 90 q 769 142 679 90 q 910 287 858 194 q 963 497 963 379 q 910 708 963 615 q 769 852 858 800 q 572 904 679 904 q 376 852 465 904 q 235 707 288 800 q 182 497 182 614 q 235 288 182 381 q 376 142 288 194 q 572 90 465 90 z "},"P":{"ha":800,"x_min":111,"x_max":756,"o":"m 111 994 l 446 994 q 600 957 529 994 q 713 852 671 919 q 756 700 756 785 q 713 548 756 615 q 600 443 671 481 q 446 406 529 406 l 228 406 l 228 0 l 111 0 l 111 994 m 449 518 q 547 544 504 518 q 613 613 589 571 q 636 700 636 654 q 613 788 636 746 q 547 856 589 829 q 449 882 504 882 l 228 882 l 228 518 l 449 518 z "},"Þ":{"ha":800,"x_min":111,"x_max":756,"o":"m 111 994 l 228 994 l 228 824 l 446 824 q 600 786 529 824 q 713 681 671 749 q 756 529 756 614 q 713 377 756 444 q 600 272 671 310 q 446 235 529 235 l 228 235 l 228 0 l 111 0 l 111 994 m 449 347 q 547 374 504 347 q 613 442 589 400 q 636 529 636 483 q 613 617 636 575 q 547 685 589 658 q 449 711 504 711 l 228 711 l 228 347 l 449 347 z "},"Q":{"ha":1146,"x_min":63,"x_max":1083,"o":"m 815 38 q 572 -22 703 -22 q 313 47 429 -22 q 129 235 196 117 q 63 497 63 354 q 129 758 63 639 q 313 947 196 878 q 572 1017 429 1017 q 832 947 715 1017 q 1016 758 949 878 q 1083 497 1083 639 q 1037 276 1083 379 q 906 100 990 172 l 975 -3 l 883 -62 l 815 38 m 572 90 q 751 133 665 90 l 631 314 l 722 376 l 842 197 q 931 328 899 251 q 963 497 963 406 q 910 708 963 615 q 769 852 858 800 q 572 904 679 904 q 376 852 465 904 q 235 707 288 800 q 182 497 182 614 q 235 288 182 381 q 376 142 288 194 q 572 90 465 90 z "},"R":{"ha":814,"x_min":111,"x_max":794,"o":"m 111 994 l 447 994 q 600 957 529 994 q 713 852 671 919 q 756 700 756 785 q 724 571 756 631 q 638 471 693 511 q 517 417 583 431 l 514 413 l 794 6 l 794 0 l 656 0 l 385 406 l 228 406 l 228 0 l 111 0 l 111 994 m 440 515 q 537 539 492 515 q 609 605 582 563 q 636 700 636 647 q 613 788 636 746 q 547 856 589 829 q 449 882 504 882 l 228 882 l 228 515 l 440 515 z "},"Ŕ":{"ha":814,"x_min":111,"x_max":794,"o":"m 111 994 l 447 994 q 600 957 529 994 q 713 852 671 919 q 756 700 756 785 q 724 571 756 631 q 638 471 693 511 q 517 417 583 431 l 514 413 l 794 6 l 794 0 l 656 0 l 385 406 l 228 406 l 228 0 l 111 0 l 111 994 m 440 515 q 537 539 492 515 q 609 605 582 563 q 636 700 636 647 q 613 788 636 746 q 547 856 589 829 q 449 882 504 882 l 228 882 l 228 515 l 440 515 m 410 1250 l 539 1250 l 440 1074 l 338 1074 l 410 1250 z "},"Ř":{"ha":814,"x_min":111,"x_max":794,"o":"m 111 994 l 447 994 q 600 957 529 994 q 713 852 671 919 q 756 700 756 785 q 724 571 756 631 q 638 471 693 511 q 517 417 583 431 l 514 413 l 794 6 l 794 0 l 656 0 l 385 406 l 228 406 l 228 0 l 111 0 l 111 994 m 440 515 q 537 539 492 515 q 609 605 582 563 q 636 700 636 647 q 613 788 636 746 q 547 856 589 829 q 449 882 504 882 l 228 882 l 228 515 l 440 515 m 196 1243 l 196 1250 l 310 1250 l 383 1163 l 394 1163 l 469 1250 l 583 1250 l 583 1243 l 442 1082 l 338 1082 l 196 1243 z "},"Ŗ":{"ha":814,"x_min":111,"x_max":794,"o":"m 111 994 l 447 994 q 600 957 529 994 q 713 852 671 919 q 756 700 756 785 q 724 571 756 631 q 638 471 693 511 q 517 417 583 431 l 514 413 l 794 6 l 794 0 l 656 0 l 385 406 l 228 406 l 228 0 l 111 0 l 111 994 m 440 515 q 537 539 492 515 q 609 605 582 563 q 636 700 636 647 q 613 788 636 746 q 547 856 589 829 q 449 882 504 882 l 228 882 l 228 515 l 440 515 m 331 -294 l 386 -215 q 345 -190 361 -210 q 329 -143 329 -169 q 351 -90 329 -114 q 407 -67 374 -67 q 463 -90 442 -67 q 485 -147 485 -112 q 468 -207 485 -174 l 383 -331 l 331 -294 z "},"S":{"ha":779,"x_min":42,"x_max":717,"o":"m 389 -22 q 175 49 272 -22 q 42 247 78 119 l 154 293 q 242 147 178 204 q 392 90 306 90 q 538 137 478 90 q 597 264 597 183 q 547 378 597 333 q 381 463 496 424 l 318 485 q 146 583 213 522 q 79 753 79 644 q 118 884 79 824 q 226 981 157 944 q 382 1017 296 1017 q 532 985 468 1017 q 634 907 596 953 q 688 817 672 861 l 576 769 q 513 863 563 821 q 383 904 464 904 q 253 861 307 904 q 199 753 199 818 q 244 658 199 694 q 383 589 290 621 l 449 567 q 646 452 575 521 q 717 265 717 383 q 667 104 717 169 q 543 8 618 39 q 389 -22 468 -22 z "},"Ś":{"ha":779,"x_min":42,"x_max":717,"o":"m 389 -22 q 175 49 272 -22 q 42 247 78 119 l 154 293 q 242 147 178 204 q 392 90 306 90 q 538 137 478 90 q 597 264 597 183 q 547 378 597 333 q 381 463 496 424 l 318 485 q 146 583 213 522 q 79 753 79 644 q 118 884 79 824 q 226 981 157 944 q 382 1017 296 1017 q 532 985 468 1017 q 634 907 596 953 q 688 817 672 861 l 576 769 q 513 863 563 821 q 383 904 464 904 q 253 861 307 904 q 199 753 199 818 q 244 658 199 694 q 383 589 290 621 l 449 567 q 646 452 575 521 q 717 265 717 383 q 667 104 717 169 q 543 8 618 39 q 389 -22 468 -22 m 403 1250 l 532 1250 l 433 1074 l 331 1074 l 403 1250 z "},"Š":{"ha":779,"x_min":42,"x_max":717,"o":"m 389 -22 q 175 49 272 -22 q 42 247 78 119 l 154 293 q 242 147 178 204 q 392 90 306 90 q 538 137 478 90 q 597 264 597 183 q 547 378 597 333 q 381 463 496 424 l 318 485 q 146 583 213 522 q 79 753 79 644 q 118 884 79 824 q 226 981 157 944 q 382 1017 296 1017 q 532 985 468 1017 q 634 907 596 953 q 688 817 672 861 l 576 769 q 513 863 563 821 q 383 904 464 904 q 253 861 307 904 q 199 753 199 818 q 244 658 199 694 q 383 589 290 621 l 449 567 q 646 452 575 521 q 717 265 717 383 q 667 104 717 169 q 543 8 618 39 q 389 -22 468 -22 m 189 1243 l 189 1250 l 303 1250 l 376 1163 l 388 1163 l 463 1250 l 576 1250 l 576 1243 l 435 1082 l 331 1082 l 189 1243 z "},"Ş":{"ha":779,"x_min":42,"x_max":717,"o":"m 717 265 q 671 109 717 172 q 554 14 625 46 q 407 -22 483 -18 l 386 -68 q 418 -64 411 -64 q 508 -101 471 -64 q 544 -196 544 -139 q 504 -290 544 -251 q 404 -329 464 -329 q 324 -303 360 -329 q 274 -236 289 -276 l 343 -206 q 366 -241 350 -226 q 404 -256 382 -256 q 449 -238 432 -256 q 465 -196 465 -221 q 449 -151 465 -169 q 404 -133 432 -133 q 356 -157 375 -133 l 294 -129 l 336 -18 q 154 66 235 -3 q 42 247 74 135 l 154 293 q 242 147 178 204 q 392 90 306 90 q 538 137 478 90 q 597 264 597 183 q 547 378 597 333 q 381 463 496 424 l 318 485 q 146 583 213 522 q 79 753 79 644 q 118 884 79 824 q 226 981 157 944 q 382 1017 296 1017 q 532 985 468 1017 q 634 907 596 953 q 688 817 672 861 l 576 769 q 513 863 563 821 q 383 904 464 904 q 253 861 307 904 q 199 753 199 818 q 244 658 199 694 q 383 589 290 621 l 449 567 q 646 452 575 521 q 717 265 717 383 z "},"Ŝ":{"ha":779,"x_min":42,"x_max":717,"o":"m 389 -22 q 175 49 272 -22 q 42 247 78 119 l 154 293 q 242 147 178 204 q 392 90 306 90 q 538 137 478 90 q 597 264 597 183 q 547 378 597 333 q 381 463 496 424 l 318 485 q 146 583 213 522 q 79 753 79 644 q 118 884 79 824 q 226 981 157 944 q 382 1017 296 1017 q 532 985 468 1017 q 634 907 596 953 q 688 817 672 861 l 576 769 q 513 863 563 821 q 383 904 464 904 q 253 861 307 904 q 199 753 199 818 q 244 658 199 694 q 383 589 290 621 l 449 567 q 646 452 575 521 q 717 265 717 383 q 667 104 717 169 q 543 8 618 39 q 389 -22 468 -22 m 189 1089 l 331 1250 l 435 1250 l 576 1089 l 576 1082 l 463 1082 l 388 1169 l 376 1169 l 303 1082 l 189 1082 l 189 1089 z "},"Ș":{"ha":779,"x_min":42,"x_max":717,"o":"m 389 -22 q 175 49 272 -22 q 42 247 78 119 l 154 293 q 242 147 178 204 q 392 90 306 90 q 538 137 478 90 q 597 264 597 183 q 547 378 597 333 q 381 463 496 424 l 318 485 q 146 583 213 522 q 79 753 79 644 q 118 884 79 824 q 226 981 157 944 q 382 1017 296 1017 q 532 985 468 1017 q 634 907 596 953 q 688 817 672 861 l 576 769 q 513 863 563 821 q 383 904 464 904 q 253 861 307 904 q 199 753 199 818 q 244 658 199 694 q 383 589 290 621 l 449 567 q 646 452 575 521 q 717 265 717 383 q 667 104 717 169 q 543 8 618 39 q 389 -22 468 -22 m 315 -294 l 371 -215 q 330 -190 346 -210 q 314 -143 314 -169 q 336 -90 314 -114 q 392 -67 358 -67 q 448 -90 426 -67 q 469 -147 469 -112 q 453 -207 469 -174 l 368 -331 l 315 -294 z "},"T":{"ha":749,"x_min":36,"x_max":711,"o":"m 315 882 l 36 882 l 36 994 l 711 994 l 711 882 l 433 882 l 433 0 l 315 0 l 315 882 z "},"Ŧ":{"ha":749,"x_min":36,"x_max":711,"o":"m 433 882 l 433 565 l 614 565 l 614 474 l 433 474 l 433 0 l 315 0 l 315 474 l 135 474 l 135 565 l 315 565 l 315 882 l 36 882 l 36 994 l 711 994 l 711 882 l 433 882 z "},"Ť":{"ha":749,"x_min":36,"x_max":711,"o":"m 315 882 l 36 882 l 36 994 l 711 994 l 711 882 l 433 882 l 433 0 l 315 0 l 315 882 m 181 1243 l 181 1250 l 294 1250 l 368 1163 l 379 1163 l 454 1250 l 568 1250 l 568 1243 l 426 1082 l 322 1082 l 181 1243 z "},"Ţ":{"ha":749,"x_min":36,"x_max":711,"o":"m 396 -329 q 316 -303 351 -329 q 265 -236 281 -276 l 333 -206 q 358 -241 342 -226 q 396 -256 374 -256 q 440 -238 422 -256 q 457 -196 457 -221 q 440 -152 457 -171 q 396 -133 422 -133 q 347 -157 367 -133 l 286 -129 l 333 0 l 315 0 l 315 882 l 36 882 l 36 994 l 711 994 l 711 882 l 433 882 l 433 0 l 408 0 l 378 -68 q 410 -64 399 -64 q 498 -101 461 -64 q 535 -196 535 -139 q 495 -290 535 -251 q 396 -329 456 -329 z "},"Ț":{"ha":749,"x_min":36,"x_max":711,"o":"m 315 882 l 36 882 l 36 994 l 711 994 l 711 882 l 433 882 l 433 0 l 315 0 l 315 882 m 297 -294 l 353 -215 q 312 -190 328 -210 q 296 -143 296 -169 q 318 -90 296 -114 q 374 -67 340 -67 q 430 -90 408 -67 q 451 -147 451 -112 q 435 -207 451 -174 l 350 -331 l 297 -294 z "},"U":{"ha":906,"x_min":93,"x_max":824,"o":"m 458 -22 q 268 27 351 -22 q 139 165 185 76 q 93 368 93 253 l 93 994 l 211 994 l 211 363 q 275 166 211 242 q 458 90 339 90 q 642 166 578 90 q 707 363 707 242 l 707 994 l 824 994 l 824 368 q 780 164 824 253 q 653 26 736 75 q 458 -22 571 -22 z "},"Ú":{"ha":906,"x_min":93,"x_max":824,"o":"m 458 -22 q 268 27 351 -22 q 139 165 185 76 q 93 368 93 253 l 93 994 l 211 994 l 211 363 q 275 166 211 242 q 458 90 339 90 q 642 166 578 90 q 707 363 707 242 l 707 994 l 824 994 l 824 368 q 780 164 824 253 q 653 26 736 75 q 458 -22 571 -22 m 479 1250 l 608 1250 l 510 1074 l 407 1074 l 479 1250 z "},"Ŭ":{"ha":906,"x_min":93,"x_max":824,"o":"m 458 -22 q 268 27 351 -22 q 139 165 185 76 q 93 368 93 253 l 93 994 l 211 994 l 211 363 q 275 166 211 242 q 458 90 339 90 q 642 166 578 90 q 707 363 707 242 l 707 994 l 824 994 l 824 368 q 780 164 824 253 q 653 26 736 75 q 458 -22 571 -22 m 460 1072 q 373 1095 414 1072 q 307 1158 332 1118 q 282 1244 282 1197 l 378 1244 q 400 1185 378 1210 q 460 1161 422 1161 q 517 1185 494 1161 q 539 1244 539 1210 l 633 1244 q 609 1158 633 1197 q 544 1095 585 1118 q 460 1072 504 1072 z "},"Û":{"ha":906,"x_min":93,"x_max":824,"o":"m 458 -22 q 268 27 351 -22 q 139 165 185 76 q 93 368 93 253 l 93 994 l 211 994 l 211 363 q 275 166 211 242 q 458 90 339 90 q 642 166 578 90 q 707 363 707 242 l 707 994 l 824 994 l 824 368 q 780 164 824 253 q 653 26 736 75 q 458 -22 571 -22 m 265 1089 l 407 1250 l 511 1250 l 653 1089 l 653 1082 l 539 1082 l 464 1169 l 453 1169 l 379 1082 l 265 1082 l 265 1089 z "},"Ü":{"ha":906,"x_min":93,"x_max":824,"o":"m 458 -22 q 268 27 351 -22 q 139 165 185 76 q 93 368 93 253 l 93 994 l 211 994 l 211 363 q 275 166 211 242 q 458 90 339 90 q 642 166 578 90 q 707 363 707 242 l 707 994 l 824 994 l 824 368 q 780 164 824 253 q 653 26 736 75 q 458 -22 571 -22 m 344 1096 q 292 1119 314 1096 q 269 1171 269 1142 q 292 1224 269 1203 q 344 1246 314 1246 q 397 1224 376 1246 q 418 1171 418 1203 q 397 1118 418 1140 q 344 1096 376 1096 m 572 1096 q 520 1119 543 1096 q 497 1171 497 1142 q 519 1224 497 1203 q 572 1246 542 1246 q 626 1224 604 1246 q 647 1171 647 1203 q 626 1118 647 1140 q 572 1096 604 1096 z "},"Ù":{"ha":906,"x_min":93,"x_max":824,"o":"m 458 -22 q 268 27 351 -22 q 139 165 185 76 q 93 368 93 253 l 93 994 l 211 994 l 211 363 q 275 166 211 242 q 458 90 339 90 q 642 166 578 90 q 707 363 707 242 l 707 994 l 824 994 l 824 368 q 780 164 824 253 q 653 26 736 75 q 458 -22 571 -22 m 310 1250 l 439 1250 l 511 1074 l 407 1074 l 310 1250 z "},"Ű":{"ha":906,"x_min":93,"x_max":824,"o":"m 458 -22 q 268 27 351 -22 q 139 165 185 76 q 93 368 93 253 l 93 994 l 211 994 l 211 363 q 275 166 211 242 q 458 90 339 90 q 642 166 578 90 q 707 363 707 242 l 707 994 l 824 994 l 824 368 q 780 164 824 253 q 653 26 736 75 q 458 -22 571 -22 m 392 1250 l 521 1250 l 422 1074 l 319 1074 l 392 1250 m 568 1250 l 697 1250 l 599 1074 l 496 1074 l 568 1250 z "},"Ū":{"ha":906,"x_min":93,"x_max":824,"o":"m 458 -22 q 268 27 351 -22 q 139 165 185 76 q 93 368 93 253 l 93 994 l 211 994 l 211 363 q 275 166 211 242 q 458 90 339 90 q 642 166 578 90 q 707 363 707 242 l 707 994 l 824 994 l 824 368 q 780 164 824 253 q 653 26 736 75 q 458 -22 571 -22 m 267 1217 l 651 1217 l 651 1125 l 267 1125 l 267 1217 z "},"Ų":{"ha":918,"x_min":93,"x_max":824,"o":"m 583 -311 q 462 -266 507 -311 q 417 -156 417 -221 q 438 -79 417 -114 q 490 -21 460 -44 q 458 -22 481 -22 q 268 27 351 -22 q 139 165 185 76 q 93 368 93 253 l 93 994 l 211 994 l 211 363 q 275 166 211 242 q 458 90 339 90 q 642 166 578 90 q 707 363 707 242 l 707 994 l 824 994 l 824 368 q 785 175 824 260 q 676 42 746 90 q 522 -139 522 -62 q 542 -192 522 -171 q 593 -214 561 -214 q 649 -200 621 -214 l 649 -300 q 583 -311 624 -311 z "},"Ů":{"ha":906,"x_min":93,"x_max":824,"o":"m 458 -22 q 268 27 351 -22 q 139 165 185 76 q 93 368 93 253 l 93 994 l 211 994 l 211 363 q 275 166 211 242 q 458 90 339 90 q 642 166 578 90 q 707 363 707 242 l 707 994 l 824 994 l 824 368 q 780 164 824 253 q 653 26 736 75 q 458 -22 571 -22 m 458 1046 q 357 1088 399 1046 q 315 1189 315 1129 q 356 1291 315 1250 q 458 1332 397 1332 q 560 1290 518 1332 q 603 1189 603 1249 q 560 1088 603 1129 q 458 1046 518 1046 m 458 1122 q 504 1142 485 1122 q 524 1189 524 1161 q 504 1235 524 1217 q 458 1254 485 1254 q 413 1235 432 1254 q 393 1189 393 1215 q 413 1142 393 1163 q 458 1122 432 1122 z "},"Ũ":{"ha":906,"x_min":93,"x_max":824,"o":"m 458 -22 q 268 27 351 -22 q 139 165 185 76 q 93 368 93 253 l 93 994 l 211 994 l 211 363 q 275 166 211 242 q 458 90 339 90 q 642 166 578 90 q 707 363 707 242 l 707 994 l 824 994 l 824 368 q 780 164 824 253 q 653 26 736 75 q 458 -22 571 -22 m 539 1083 q 490 1094 514 1083 q 431 1124 465 1104 q 375 1149 390 1149 q 325 1097 329 1149 l 228 1097 q 250 1185 228 1150 q 307 1238 272 1221 q 376 1256 342 1256 q 488 1214 419 1256 q 542 1190 529 1190 q 592 1242 588 1190 l 689 1242 q 642 1124 689 1165 q 539 1083 596 1083 z "},"V":{"ha":875,"x_min":19,"x_max":857,"o":"m 19 994 l 150 994 l 396 274 l 429 175 l 435 175 l 469 274 l 726 994 l 857 994 l 493 0 l 371 0 l 19 994 z "},"W":{"ha":1311,"x_min":24,"x_max":1288,"o":"m 24 994 l 154 994 l 335 264 l 351 196 l 357 196 l 378 264 l 600 994 l 722 994 l 935 264 l 956 196 l 961 196 l 1157 994 l 1288 994 l 1019 0 l 897 0 l 686 719 l 664 797 l 658 797 l 635 719 l 415 0 l 293 0 l 24 994 z "},"Ẃ":{"ha":1311,"x_min":24,"x_max":1288,"o":"m 24 994 l 154 994 l 335 264 l 351 196 l 357 196 l 378 264 l 600 994 l 722 994 l 935 264 l 956 196 l 961 196 l 1157 994 l 1288 994 l 1019 0 l 897 0 l 686 719 l 664 797 l 658 797 l 635 719 l 415 0 l 293 0 l 24 994 m 682 1250 l 811 1250 l 713 1074 l 610 1074 l 682 1250 z "},"Ŵ":{"ha":1311,"x_min":24,"x_max":1288,"o":"m 24 994 l 154 994 l 335 264 l 351 196 l 357 196 l 378 264 l 600 994 l 722 994 l 935 264 l 956 196 l 961 196 l 1157 994 l 1288 994 l 1019 0 l 897 0 l 686 719 l 664 797 l 658 797 l 635 719 l 415 0 l 293 0 l 24 994 m 468 1089 l 610 1250 l 714 1250 l 856 1089 l 856 1082 l 742 1082 l 667 1169 l 656 1169 l 582 1082 l 468 1082 l 468 1089 z "},"Ẅ":{"ha":1311,"x_min":24,"x_max":1288,"o":"m 24 994 l 154 994 l 335 264 l 351 196 l 357 196 l 378 264 l 600 994 l 722 994 l 935 264 l 956 196 l 961 196 l 1157 994 l 1288 994 l 1019 0 l 897 0 l 686 719 l 664 797 l 658 797 l 635 719 l 415 0 l 293 0 l 24 994 m 547 1096 q 494 1119 517 1096 q 472 1171 472 1142 q 494 1224 472 1203 q 547 1246 517 1246 q 600 1224 579 1246 q 621 1171 621 1203 q 600 1118 621 1140 q 547 1096 579 1096 m 775 1096 q 723 1119 746 1096 q 700 1171 700 1142 q 722 1224 700 1203 q 775 1246 744 1246 q 828 1224 807 1246 q 850 1171 850 1203 q 828 1118 850 1140 q 775 1096 807 1096 z "},"Ẁ":{"ha":1311,"x_min":24,"x_max":1288,"o":"m 24 994 l 154 994 l 335 264 l 351 196 l 357 196 l 378 264 l 600 994 l 722 994 l 935 264 l 956 196 l 961 196 l 1157 994 l 1288 994 l 1019 0 l 897 0 l 686 719 l 664 797 l 658 797 l 635 719 l 415 0 l 293 0 l 24 994 m 513 1250 l 642 1250 l 714 1074 l 610 1074 l 513 1250 z "},"X":{"ha":876,"x_min":25,"x_max":851,"o":"m 361 514 l 44 994 l 186 994 l 435 607 l 440 607 l 692 994 l 832 994 l 515 514 l 851 0 l 713 0 l 440 415 l 435 415 l 164 0 l 25 0 l 361 514 z "},"Y":{"ha":826,"x_min":21,"x_max":806,"o":"m 357 460 l 21 994 l 158 994 l 413 578 l 418 578 l 668 994 l 806 994 l 475 460 l 475 0 l 357 0 l 357 460 z "},"Ý":{"ha":826,"x_min":21,"x_max":806,"o":"m 357 460 l 21 994 l 158 994 l 413 578 l 418 578 l 668 994 l 806 994 l 475 460 l 475 0 l 357 0 l 357 460 m 433 1250 l 563 1250 l 464 1074 l 361 1074 l 433 1250 z "},"Ŷ":{"ha":826,"x_min":21,"x_max":806,"o":"m 357 460 l 21 994 l 158 994 l 413 578 l 418 578 l 668 994 l 806 994 l 475 460 l 475 0 l 357 0 l 357 460 m 219 1089 l 361 1250 l 465 1250 l 607 1089 l 607 1082 l 493 1082 l 418 1169 l 407 1169 l 333 1082 l 219 1082 l 219 1089 z "},"Ÿ":{"ha":826,"x_min":21,"x_max":806,"o":"m 357 460 l 21 994 l 158 994 l 413 578 l 418 578 l 668 994 l 806 994 l 475 460 l 475 0 l 357 0 l 357 460 m 299 1096 q 246 1119 268 1096 q 224 1171 224 1142 q 246 1224 224 1203 q 299 1246 268 1246 q 351 1224 331 1246 q 372 1171 372 1203 q 351 1118 372 1140 q 299 1096 331 1096 m 526 1096 q 474 1119 497 1096 q 451 1171 451 1142 q 474 1224 451 1203 q 526 1246 496 1246 q 580 1224 558 1246 q 601 1171 601 1203 q 580 1118 601 1140 q 526 1096 558 1096 z "},"Ỳ":{"ha":826,"x_min":21,"x_max":806,"o":"m 357 460 l 21 994 l 158 994 l 413 578 l 418 578 l 668 994 l 806 994 l 475 460 l 475 0 l 357 0 l 357 460 m 264 1250 l 393 1250 l 465 1074 l 361 1074 l 264 1250 z "},"Z":{"ha":794,"x_min":53,"x_max":731,"o":"m 53 124 l 589 882 l 75 882 l 75 994 l 725 994 l 725 871 l 189 113 l 731 113 l 731 0 l 53 0 l 53 124 z "},"Ź":{"ha":794,"x_min":53,"x_max":731,"o":"m 53 124 l 589 882 l 75 882 l 75 994 l 725 994 l 725 871 l 189 113 l 731 113 l 731 0 l 53 0 l 53 124 m 421 1250 l 550 1250 l 451 1074 l 349 1074 l 421 1250 z "},"Ž":{"ha":794,"x_min":53,"x_max":731,"o":"m 53 124 l 589 882 l 75 882 l 75 994 l 725 994 l 725 871 l 189 113 l 731 113 l 731 0 l 53 0 l 53 124 m 207 1243 l 207 1250 l 321 1250 l 394 1163 l 406 1163 l 481 1250 l 594 1250 l 594 1243 l 453 1082 l 349 1082 l 207 1243 z "},"Ż":{"ha":794,"x_min":53,"x_max":731,"o":"m 53 124 l 589 882 l 75 882 l 75 994 l 725 994 l 725 871 l 189 113 l 731 113 l 731 0 l 53 0 l 53 124 m 400 1121 q 353 1142 374 1121 q 332 1189 332 1163 q 353 1237 332 1217 q 400 1257 374 1257 q 450 1238 431 1257 q 469 1189 469 1218 q 449 1141 469 1161 q 400 1121 429 1121 z "},"a":{"ha":738,"x_min":47,"x_max":661,"o":"m 314 -22 q 175 8 236 -22 q 81 92 114 39 q 47 214 47 146 q 132 390 47 326 q 346 453 217 453 q 465 439 410 453 q 549 407 519 425 l 549 450 q 493 577 549 529 q 353 625 438 625 q 243 599 293 625 q 164 528 193 574 l 75 594 q 190 694 117 658 q 351 731 263 731 q 578 655 496 731 q 661 449 661 579 l 661 0 l 549 0 l 549 101 l 543 101 q 451 14 513 50 q 314 -22 390 -22 m 325 82 q 436 113 385 82 q 518 194 488 143 q 549 307 549 246 q 467 343 515 329 q 364 357 418 357 q 217 317 267 357 q 168 213 168 276 q 213 118 168 154 q 325 82 257 82 z "},"á":{"ha":738,"x_min":47,"x_max":661,"o":"m 314 -22 q 175 8 236 -22 q 81 92 114 39 q 47 214 47 146 q 132 390 47 326 q 346 453 217 453 q 465 439 410 453 q 549 407 519 425 l 549 450 q 493 577 549 529 q 353 625 438 625 q 243 599 293 625 q 164 528 193 574 l 75 594 q 190 694 117 658 q 351 731 263 731 q 578 655 496 731 q 661 449 661 579 l 661 0 l 549 0 l 549 101 l 543 101 q 451 14 513 50 q 314 -22 390 -22 m 325 82 q 436 113 385 82 q 518 194 488 143 q 549 307 549 246 q 467 343 515 329 q 364 357 418 357 q 217 317 267 357 q 168 213 168 276 q 213 118 168 154 q 325 82 257 82 m 381 1022 l 510 1022 l 411 846 l 308 846 l 381 1022 z "},"ă":{"ha":738,"x_min":47,"x_max":661,"o":"m 314 -22 q 175 8 236 -22 q 81 92 114 39 q 47 214 47 146 q 132 390 47 326 q 346 453 217 453 q 465 439 410 453 q 549 407 519 425 l 549 450 q 493 577 549 529 q 353 625 438 625 q 243 599 293 625 q 164 528 193 574 l 75 594 q 190 694 117 658 q 351 731 263 731 q 578 655 496 731 q 661 449 661 579 l 661 0 l 549 0 l 549 101 l 543 101 q 451 14 513 50 q 314 -22 390 -22 m 325 82 q 436 113 385 82 q 518 194 488 143 q 549 307 549 246 q 467 343 515 329 q 364 357 418 357 q 217 317 267 357 q 168 213 168 276 q 213 118 168 154 q 325 82 257 82 m 361 843 q 274 866 315 843 q 208 928 233 889 q 183 1017 183 968 l 279 1017 q 301 957 279 982 q 361 932 324 932 q 418 957 396 932 q 440 1017 440 982 l 535 1017 q 510 928 535 968 q 446 866 486 889 q 361 843 406 843 z "},"â":{"ha":738,"x_min":47,"x_max":661,"o":"m 314 -22 q 175 8 236 -22 q 81 92 114 39 q 47 214 47 146 q 132 390 47 326 q 346 453 217 453 q 465 439 410 453 q 549 407 519 425 l 549 450 q 493 577 549 529 q 353 625 438 625 q 243 599 293 625 q 164 528 193 574 l 75 594 q 190 694 117 658 q 351 731 263 731 q 578 655 496 731 q 661 449 661 579 l 661 0 l 549 0 l 549 101 l 543 101 q 451 14 513 50 q 314 -22 390 -22 m 325 82 q 436 113 385 82 q 518 194 488 143 q 549 307 549 246 q 467 343 515 329 q 364 357 418 357 q 217 317 267 357 q 168 213 168 276 q 213 118 168 154 q 325 82 257 82 m 167 860 l 308 1022 l 413 1022 l 554 860 l 554 853 l 440 853 l 365 942 l 354 942 l 281 853 l 167 853 l 167 860 z "},"ä":{"ha":738,"x_min":47,"x_max":661,"o":"m 314 -22 q 175 8 236 -22 q 81 92 114 39 q 47 214 47 146 q 132 390 47 326 q 346 453 217 453 q 465 439 410 453 q 549 407 519 425 l 549 450 q 493 577 549 529 q 353 625 438 625 q 243 599 293 625 q 164 528 193 574 l 75 594 q 190 694 117 658 q 351 731 263 731 q 578 655 496 731 q 661 449 661 579 l 661 0 l 549 0 l 549 101 l 543 101 q 451 14 513 50 q 314 -22 390 -22 m 325 82 q 436 113 385 82 q 518 194 488 143 q 549 307 549 246 q 467 343 515 329 q 364 357 418 357 q 217 317 267 357 q 168 213 168 276 q 213 118 168 154 q 325 82 257 82 m 246 868 q 193 890 215 868 q 171 943 171 913 q 193 996 171 975 q 246 1017 215 1017 q 299 996 278 1017 q 319 943 319 975 q 299 890 319 913 q 246 868 278 868 m 474 868 q 422 890 444 868 q 399 943 399 913 q 421 996 399 975 q 474 1017 443 1017 q 527 996 506 1017 q 549 943 549 975 q 527 890 549 913 q 474 868 506 868 z "},"à":{"ha":738,"x_min":47,"x_max":661,"o":"m 314 -22 q 175 8 236 -22 q 81 92 114 39 q 47 214 47 146 q 132 390 47 326 q 346 453 217 453 q 465 439 410 453 q 549 407 519 425 l 549 450 q 493 577 549 529 q 353 625 438 625 q 243 599 293 625 q 164 528 193 574 l 75 594 q 190 694 117 658 q 351 731 263 731 q 578 655 496 731 q 661 449 661 579 l 661 0 l 549 0 l 549 101 l 543 101 q 451 14 513 50 q 314 -22 390 -22 m 325 82 q 436 113 385 82 q 518 194 488 143 q 549 307 549 246 q 467 343 515 329 q 364 357 418 357 q 217 317 267 357 q 168 213 168 276 q 213 118 168 154 q 325 82 257 82 m 211 1022 l 340 1022 l 413 846 l 308 846 l 211 1022 z "},"ā":{"ha":738,"x_min":47,"x_max":661,"o":"m 314 -22 q 175 8 236 -22 q 81 92 114 39 q 47 214 47 146 q 132 390 47 326 q 346 453 217 453 q 465 439 410 453 q 549 407 519 425 l 549 450 q 493 577 549 529 q 353 625 438 625 q 243 599 293 625 q 164 528 193 574 l 75 594 q 190 694 117 658 q 351 731 263 731 q 578 655 496 731 q 661 449 661 579 l 661 0 l 549 0 l 549 101 l 543 101 q 451 14 513 50 q 314 -22 390 -22 m 325 82 q 436 113 385 82 q 518 194 488 143 q 549 307 549 246 q 467 343 515 329 q 364 357 418 357 q 217 317 267 357 q 168 213 168 276 q 213 118 168 154 q 325 82 257 82 m 168 989 l 553 989 l 553 896 l 168 896 l 168 989 z "},"ą":{"ha":738,"x_min":47,"x_max":686,"o":"m 621 -311 q 499 -266 544 -311 q 454 -156 454 -221 q 482 -64 454 -103 q 549 0 510 -25 l 549 101 l 543 101 q 451 14 513 50 q 314 -22 390 -22 q 175 8 236 -22 q 81 92 114 39 q 47 214 47 146 q 132 390 47 326 q 346 453 217 453 q 465 439 410 453 q 549 407 519 425 l 549 450 q 493 577 549 529 q 353 625 438 625 q 243 599 293 625 q 164 528 193 574 l 75 594 q 190 694 117 658 q 351 731 263 731 q 578 655 496 731 q 661 449 661 579 l 661 0 q 585 -69 611 -39 q 560 -139 560 -100 q 579 -192 560 -171 q 631 -214 599 -214 q 686 -200 658 -214 l 686 -300 q 621 -311 661 -311 m 325 82 q 436 113 385 82 q 518 194 488 143 q 549 307 549 246 q 467 343 515 329 q 364 357 418 357 q 217 317 267 357 q 168 213 168 276 q 213 118 168 154 q 325 82 257 82 z "},"å":{"ha":738,"x_min":47,"x_max":661,"o":"m 314 -22 q 175 8 236 -22 q 81 92 114 39 q 47 214 47 146 q 132 390 47 326 q 346 453 217 453 q 465 439 410 453 q 549 407 519 425 l 549 450 q 493 577 549 529 q 353 625 438 625 q 243 599 293 625 q 164 528 193 574 l 75 594 q 190 694 117 658 q 351 731 263 731 q 578 655 496 731 q 661 449 661 579 l 661 0 l 549 0 l 549 101 l 543 101 q 451 14 513 50 q 314 -22 390 -22 m 325 82 q 436 113 385 82 q 518 194 488 143 q 549 307 549 246 q 467 343 515 329 q 364 357 418 357 q 217 317 267 357 q 168 213 168 276 q 213 118 168 154 q 325 82 257 82 m 360 817 q 258 859 300 817 q 217 961 217 901 q 258 1063 217 1021 q 360 1104 300 1104 q 462 1063 419 1104 q 504 961 504 1021 q 462 859 504 901 q 360 817 419 817 m 360 894 q 406 914 388 894 q 425 961 425 933 q 406 1008 425 989 q 360 1026 386 1026 q 314 1007 333 1026 q 294 961 294 988 q 314 914 294 933 q 360 894 333 894 z "},"ǻ":{"ha":738,"x_min":47,"x_max":661,"o":"m 363 1276 l 492 1276 l 410 1131 l 303 1131 l 363 1276 m 358 817 q 257 859 299 817 q 215 961 215 901 q 257 1063 215 1021 q 358 1104 299 1104 q 460 1063 418 1104 q 503 961 503 1021 q 460 859 503 901 q 358 817 418 817 m 358 894 q 405 914 386 894 q 424 961 424 933 q 405 1008 424 989 q 358 1026 386 1026 q 313 1007 332 1026 q 293 961 293 988 q 313 914 293 933 q 358 894 332 894 m 314 -22 q 175 8 236 -22 q 81 92 114 39 q 47 214 47 146 q 132 390 47 326 q 346 453 217 453 q 465 439 410 453 q 549 407 519 425 l 549 450 q 493 577 549 529 q 353 625 438 625 q 243 599 293 625 q 164 528 193 574 l 75 594 q 190 694 117 658 q 351 731 263 731 q 578 655 496 731 q 661 449 661 579 l 661 0 l 549 0 l 549 101 l 543 101 q 451 14 513 50 q 314 -22 390 -22 m 325 82 q 436 113 385 82 q 518 194 488 143 q 549 307 549 246 q 467 343 515 329 q 364 357 418 357 q 217 317 267 357 q 168 213 168 276 q 213 118 168 154 q 325 82 257 82 z "},"ã":{"ha":738,"x_min":47,"x_max":661,"o":"m 314 -22 q 175 8 236 -22 q 81 92 114 39 q 47 214 47 146 q 132 390 47 326 q 346 453 217 453 q 465 439 410 453 q 549 407 519 425 l 549 450 q 493 577 549 529 q 353 625 438 625 q 243 599 293 625 q 164 528 193 574 l 75 594 q 190 694 117 658 q 351 731 263 731 q 578 655 496 731 q 661 449 661 579 l 661 0 l 549 0 l 549 101 l 543 101 q 451 14 513 50 q 314 -22 390 -22 m 325 82 q 436 113 385 82 q 518 194 488 143 q 549 307 549 246 q 467 343 515 329 q 364 357 418 357 q 217 317 267 357 q 168 213 168 276 q 213 118 168 154 q 325 82 257 82 m 440 856 q 391 866 415 856 q 332 896 367 876 q 276 921 292 921 q 226 869 231 921 l 129 869 q 175 986 129 946 q 278 1026 221 1026 q 389 985 321 1026 q 443 961 431 961 q 493 1013 489 961 l 590 1013 q 544 896 590 936 q 440 856 499 856 z "},"æ":{"ha":1276,"x_min":47,"x_max":1226,"o":"m 314 -22 q 175 8 236 -22 q 81 92 114 39 q 47 214 47 146 q 132 390 47 326 q 346 453 217 453 q 465 439 410 453 q 549 407 519 425 l 549 450 q 496 577 549 529 q 360 625 443 625 q 260 598 303 625 q 192 524 217 571 l 92 574 q 195 688 124 644 q 357 731 267 731 q 521 694 453 731 q 625 590 589 657 q 735 692 668 656 q 888 729 803 729 q 1068 683 992 729 q 1185 556 1144 638 q 1226 368 1226 474 q 1224 332 1226 351 l 663 332 q 701 196 667 251 q 790 113 736 140 q 901 85 843 85 q 1111 213 1040 85 l 1211 164 q 1088 28 1167 79 q 897 -22 1008 -22 q 718 26 796 -22 q 600 156 640 74 q 314 -22 500 -22 m 1101 429 q 1076 518 1099 474 q 1007 592 1054 563 q 888 622 960 622 q 745 569 803 622 q 669 429 688 517 l 1101 429 m 325 82 q 436 113 385 82 q 518 194 488 143 q 549 307 549 246 q 469 342 518 328 q 364 357 419 357 q 217 317 267 357 q 168 213 168 276 q 213 118 168 154 q 325 82 257 82 z "},"ǽ":{"ha":1276,"x_min":47,"x_max":1226,"o":"m 314 -22 q 175 8 236 -22 q 81 92 114 39 q 47 214 47 146 q 132 390 47 326 q 346 453 217 453 q 465 439 410 453 q 549 407 519 425 l 549 450 q 496 577 549 529 q 360 625 443 625 q 260 598 303 625 q 192 524 217 571 l 92 574 q 195 688 124 644 q 357 731 267 731 q 521 694 453 731 q 625 590 589 657 q 735 692 668 656 q 888 729 803 729 q 1068 683 992 729 q 1185 556 1144 638 q 1226 368 1226 474 q 1224 332 1226 351 l 663 332 q 701 196 667 251 q 790 113 736 140 q 901 85 843 85 q 1111 213 1040 85 l 1211 164 q 1088 28 1167 79 q 897 -22 1008 -22 q 718 26 796 -22 q 600 156 640 74 q 314 -22 500 -22 m 1101 429 q 1076 518 1099 474 q 1007 592 1054 563 q 888 622 960 622 q 745 569 803 622 q 669 429 688 517 l 1101 429 m 325 82 q 436 113 385 82 q 518 194 488 143 q 549 307 549 246 q 469 342 518 328 q 364 357 419 357 q 217 317 267 357 q 168 213 168 276 q 213 118 168 154 q 325 82 257 82 m 646 1022 l 775 1022 l 676 846 l 574 846 l 646 1022 z "},"b":{"ha":836,"x_min":88,"x_max":786,"o":"m 447 -22 q 302 15 367 -22 q 206 104 238 51 l 200 104 l 200 0 l 88 0 l 88 994 l 206 994 l 206 701 l 200 603 l 206 603 q 302 694 238 657 q 447 731 367 731 q 619 682 542 731 q 742 547 697 633 q 786 354 786 461 q 742 160 786 246 q 619 26 697 75 q 447 -22 542 -22 m 433 85 q 549 118 494 85 q 635 213 603 151 q 668 354 668 275 q 635 495 668 433 q 549 590 603 557 q 433 624 494 624 q 318 590 372 624 q 232 496 264 557 q 200 354 200 435 q 232 213 200 274 q 318 118 264 151 q 433 85 372 85 z "},"c":{"ha":758,"x_min":50,"x_max":718,"o":"m 408 -22 q 224 27 306 -22 q 96 162 142 76 q 50 354 50 247 q 96 547 50 461 q 224 682 142 633 q 408 731 306 731 q 602 677 524 731 q 714 535 681 624 l 607 490 q 528 590 581 556 q 403 624 476 624 q 286 590 340 624 q 199 494 232 556 q 167 354 167 433 q 199 214 167 275 q 286 119 232 153 q 403 85 340 85 q 532 119 478 85 q 613 218 586 154 l 718 174 q 602 32 682 86 q 408 -22 522 -22 z "},"ć":{"ha":758,"x_min":50,"x_max":718,"o":"m 408 -22 q 224 27 306 -22 q 96 162 142 76 q 50 354 50 247 q 96 547 50 461 q 224 682 142 633 q 408 731 306 731 q 602 677 524 731 q 714 535 681 624 l 607 490 q 528 590 581 556 q 403 624 476 624 q 286 590 340 624 q 199 494 232 556 q 167 354 167 433 q 199 214 167 275 q 286 119 232 153 q 403 85 340 85 q 532 119 478 85 q 613 218 586 154 l 718 174 q 602 32 682 86 q 408 -22 522 -22 m 426 1022 l 556 1022 l 457 846 l 354 846 l 426 1022 z "},"č":{"ha":758,"x_min":50,"x_max":718,"o":"m 408 -22 q 224 27 306 -22 q 96 162 142 76 q 50 354 50 247 q 96 547 50 461 q 224 682 142 633 q 408 731 306 731 q 602 677 524 731 q 714 535 681 624 l 607 490 q 528 590 581 556 q 403 624 476 624 q 286 590 340 624 q 199 494 232 556 q 167 354 167 433 q 199 214 167 275 q 286 119 232 153 q 403 85 340 85 q 532 119 478 85 q 613 218 586 154 l 718 174 q 602 32 682 86 q 408 -22 522 -22 m 213 1015 l 213 1022 l 326 1022 l 400 933 l 411 933 l 486 1022 l 600 1022 l 600 1015 l 458 853 l 354 853 l 213 1015 z "},"ç":{"ha":758,"x_min":50,"x_max":718,"o":"m 718 174 q 604 33 682 88 q 414 -22 526 -21 l 393 -68 q 425 -64 418 -64 q 515 -101 478 -64 q 551 -196 551 -139 q 511 -290 551 -251 q 411 -329 471 -329 q 331 -303 367 -329 q 281 -236 296 -276 l 350 -206 q 373 -241 357 -226 q 411 -256 389 -256 q 456 -238 439 -256 q 472 -196 472 -221 q 456 -151 472 -169 q 411 -133 439 -133 q 363 -157 382 -133 l 301 -129 l 343 -17 q 190 49 257 -3 q 87 179 124 100 q 50 354 50 258 q 96 547 50 461 q 224 682 142 633 q 408 731 306 731 q 602 677 524 731 q 714 535 681 624 l 607 490 q 528 590 581 556 q 403 624 476 624 q 286 590 340 624 q 199 494 232 556 q 167 354 167 433 q 199 214 167 275 q 286 119 232 153 q 403 85 340 85 q 532 119 478 85 q 613 218 586 154 l 718 174 z "},"ĉ":{"ha":758,"x_min":50,"x_max":718,"o":"m 408 -22 q 224 27 306 -22 q 96 162 142 76 q 50 354 50 247 q 96 547 50 461 q 224 682 142 633 q 408 731 306 731 q 602 677 524 731 q 714 535 681 624 l 607 490 q 528 590 581 556 q 403 624 476 624 q 286 590 340 624 q 199 494 232 556 q 167 354 167 433 q 199 214 167 275 q 286 119 232 153 q 403 85 340 85 q 532 119 478 85 q 613 218 586 154 l 718 174 q 602 32 682 86 q 408 -22 522 -22 m 213 860 l 354 1022 l 458 1022 l 600 860 l 600 853 l 486 853 l 411 942 l 400 942 l 326 853 l 213 853 l 213 860 z "},"ċ":{"ha":758,"x_min":50,"x_max":718,"o":"m 408 -22 q 224 27 306 -22 q 96 162 142 76 q 50 354 50 247 q 96 547 50 461 q 224 682 142 633 q 408 731 306 731 q 602 677 524 731 q 714 535 681 624 l 607 490 q 528 590 581 556 q 403 624 476 624 q 286 590 340 624 q 199 494 232 556 q 167 354 167 433 q 199 214 167 275 q 286 119 232 153 q 403 85 340 85 q 532 119 478 85 q 613 218 586 154 l 718 174 q 602 32 682 86 q 408 -22 522 -22 m 406 868 q 353 890 375 868 q 331 943 331 913 q 353 996 331 975 q 406 1017 375 1017 q 458 996 438 1017 q 479 943 479 975 q 458 890 479 913 q 406 868 438 868 z "},"d":{"ha":836,"x_min":50,"x_max":749,"o":"m 388 -22 q 216 26 293 -22 q 94 160 139 75 q 50 354 50 246 q 94 547 50 461 q 216 682 139 633 q 388 731 293 731 q 533 694 469 731 q 631 603 597 657 l 636 603 l 631 701 l 631 994 l 749 994 l 749 0 l 636 0 l 636 104 l 631 104 q 533 15 597 51 q 388 -22 469 -22 m 401 85 q 517 118 464 85 q 603 213 571 151 q 636 354 636 274 q 603 496 636 435 q 517 590 571 557 q 401 624 464 624 q 286 590 340 624 q 199 495 232 557 q 167 354 167 433 q 199 213 167 275 q 286 118 232 151 q 401 85 340 85 z "},"ð":{"ha":817,"x_min":64,"x_max":753,"o":"m 407 -22 q 235 26 314 -22 q 110 156 156 75 q 64 333 64 238 q 110 512 64 432 q 233 637 157 592 q 397 682 310 682 q 513 658 463 682 q 589 604 563 635 l 594 608 q 539 710 572 667 q 457 790 506 753 l 279 713 l 243 799 l 367 853 q 206 914 288 896 l 244 1014 q 482 904 383 974 l 622 967 l 658 881 l 564 839 q 706 628 658 750 q 753 361 753 506 q 709 162 753 249 q 587 26 665 75 q 407 -22 508 -22 m 407 90 q 521 121 469 90 q 602 207 572 151 q 632 332 632 263 q 602 456 632 401 q 522 542 572 511 q 410 574 471 574 q 295 543 347 574 q 213 457 243 513 q 183 332 183 401 q 213 207 183 263 q 294 121 243 151 q 407 90 346 90 z "},"ď":{"ha":946,"x_min":50,"x_max":968,"o":"m 388 -22 q 216 26 293 -22 q 94 160 139 75 q 50 354 50 246 q 94 547 50 461 q 216 682 139 633 q 388 731 293 731 q 533 694 469 731 q 631 603 597 657 l 636 603 l 631 701 l 631 994 l 749 994 l 749 0 l 636 0 l 636 104 l 631 104 q 533 15 597 51 q 388 -22 469 -22 m 401 85 q 517 118 464 85 q 603 213 571 151 q 636 354 636 274 q 603 496 636 435 q 517 590 571 557 q 401 624 464 624 q 286 590 340 624 q 199 495 232 557 q 167 354 167 433 q 199 213 167 275 q 286 118 232 151 q 401 85 340 85 m 842 994 l 968 994 l 928 732 l 842 732 l 842 994 z "},"đ":{"ha":836,"x_min":50,"x_max":836,"o":"m 836 810 l 749 810 l 749 0 l 636 0 l 636 104 l 631 104 q 533 15 597 51 q 388 -22 469 -22 q 216 26 293 -22 q 94 160 139 75 q 50 354 50 246 q 94 547 50 461 q 216 682 139 633 q 388 731 293 731 q 533 694 469 731 q 631 603 597 657 l 636 603 l 631 697 l 631 810 l 417 810 l 417 903 l 631 903 l 631 994 l 749 994 l 749 903 l 836 903 l 836 810 m 401 85 q 517 118 464 85 q 603 213 571 151 q 636 354 636 274 q 603 496 636 435 q 517 590 571 557 q 401 624 464 624 q 286 590 340 624 q 199 495 232 557 q 167 354 167 433 q 199 213 167 275 q 286 118 232 151 q 401 85 340 85 z "},"e":{"ha":782,"x_min":50,"x_max":732,"o":"m 403 -22 q 221 26 301 -22 q 95 160 140 75 q 50 353 50 246 q 92 542 50 456 q 213 679 135 628 q 393 731 290 731 q 574 684 497 731 q 691 556 650 638 q 732 368 732 474 q 728 332 732 347 l 168 332 q 207 196 172 251 q 295 113 242 140 q 407 85 349 85 q 617 213 543 85 l 717 164 q 592 28 671 78 q 403 -22 514 -22 m 607 429 q 582 518 604 474 q 512 593 560 563 q 392 624 464 624 q 251 570 308 624 q 175 429 193 517 l 607 429 z "},"é":{"ha":782,"x_min":50,"x_max":732,"o":"m 403 -22 q 221 26 301 -22 q 95 160 140 75 q 50 353 50 246 q 92 542 50 456 q 213 679 135 628 q 393 731 290 731 q 574 684 497 731 q 691 556 650 638 q 732 368 732 474 q 728 332 732 347 l 168 332 q 207 196 172 251 q 295 113 242 140 q 407 85 349 85 q 617 213 543 85 l 717 164 q 592 28 671 78 q 403 -22 514 -22 m 607 429 q 582 518 604 474 q 512 593 560 563 q 392 624 464 624 q 251 570 308 624 q 175 429 193 517 l 607 429 m 415 1022 l 544 1022 l 446 846 l 343 846 l 415 1022 z "},"ĕ":{"ha":782,"x_min":50,"x_max":732,"o":"m 403 -22 q 221 26 301 -22 q 95 160 140 75 q 50 353 50 246 q 92 542 50 456 q 213 679 135 628 q 393 731 290 731 q 574 684 497 731 q 691 556 650 638 q 732 368 732 474 q 728 332 732 347 l 168 332 q 207 196 172 251 q 295 113 242 140 q 407 85 349 85 q 617 213 543 85 l 717 164 q 592 28 671 78 q 403 -22 514 -22 m 607 429 q 582 518 604 474 q 512 593 560 563 q 392 624 464 624 q 251 570 308 624 q 175 429 193 517 l 607 429 m 396 843 q 309 866 350 843 q 243 928 268 889 q 218 1017 218 968 l 314 1017 q 336 957 314 982 q 396 932 358 932 q 453 957 431 932 q 475 1017 475 982 l 569 1017 q 545 928 569 968 q 481 866 521 889 q 396 843 440 843 z "},"ě":{"ha":782,"x_min":50,"x_max":732,"o":"m 403 -22 q 221 26 301 -22 q 95 160 140 75 q 50 353 50 246 q 92 542 50 456 q 213 679 135 628 q 393 731 290 731 q 574 684 497 731 q 691 556 650 638 q 732 368 732 474 q 728 332 732 347 l 168 332 q 207 196 172 251 q 295 113 242 140 q 407 85 349 85 q 617 213 543 85 l 717 164 q 592 28 671 78 q 403 -22 514 -22 m 607 429 q 582 518 604 474 q 512 593 560 563 q 392 624 464 624 q 251 570 308 624 q 175 429 193 517 l 607 429 m 201 1015 l 201 1022 l 315 1022 l 389 933 l 400 933 l 475 1022 l 589 1022 l 589 1015 l 447 853 l 343 853 l 201 1015 z "},"ê":{"ha":782,"x_min":50,"x_max":732,"o":"m 403 -22 q 221 26 301 -22 q 95 160 140 75 q 50 353 50 246 q 92 542 50 456 q 213 679 135 628 q 393 731 290 731 q 574 684 497 731 q 691 556 650 638 q 732 368 732 474 q 728 332 732 347 l 168 332 q 207 196 172 251 q 295 113 242 140 q 407 85 349 85 q 617 213 543 85 l 717 164 q 592 28 671 78 q 403 -22 514 -22 m 607 429 q 582 518 604 474 q 512 593 560 563 q 392 624 464 624 q 251 570 308 624 q 175 429 193 517 l 607 429 m 201 860 l 343 1022 l 447 1022 l 589 860 l 589 853 l 475 853 l 400 942 l 389 942 l 315 853 l 201 853 l 201 860 z "},"ë":{"ha":782,"x_min":50,"x_max":732,"o":"m 403 -22 q 221 26 301 -22 q 95 160 140 75 q 50 353 50 246 q 92 542 50 456 q 213 679 135 628 q 393 731 290 731 q 574 684 497 731 q 691 556 650 638 q 732 368 732 474 q 728 332 732 347 l 168 332 q 207 196 172 251 q 295 113 242 140 q 407 85 349 85 q 617 213 543 85 l 717 164 q 592 28 671 78 q 403 -22 514 -22 m 607 429 q 582 518 604 474 q 512 593 560 563 q 392 624 464 624 q 251 570 308 624 q 175 429 193 517 l 607 429 m 281 868 q 228 890 250 868 q 206 943 206 913 q 228 996 206 975 q 281 1017 250 1017 q 333 996 313 1017 q 354 943 354 975 q 333 890 354 913 q 281 868 313 868 m 508 868 q 456 890 479 868 q 433 943 433 913 q 456 996 433 975 q 508 1017 478 1017 q 562 996 540 1017 q 583 943 583 975 q 562 890 583 913 q 508 868 540 868 z "},"ė":{"ha":782,"x_min":50,"x_max":732,"o":"m 403 -22 q 221 26 301 -22 q 95 160 140 75 q 50 353 50 246 q 92 542 50 456 q 213 679 135 628 q 393 731 290 731 q 574 684 497 731 q 691 556 650 638 q 732 368 732 474 q 728 332 732 347 l 168 332 q 207 196 172 251 q 295 113 242 140 q 407 85 349 85 q 617 213 543 85 l 717 164 q 592 28 671 78 q 403 -22 514 -22 m 607 429 q 582 518 604 474 q 512 593 560 563 q 392 624 464 624 q 251 570 308 624 q 175 429 193 517 l 607 429 m 394 868 q 342 890 364 868 q 319 943 319 913 q 342 996 319 975 q 394 1017 364 1017 q 447 996 426 1017 q 468 943 468 975 q 447 890 468 913 q 394 868 426 868 z "},"è":{"ha":782,"x_min":50,"x_max":732,"o":"m 403 -22 q 221 26 301 -22 q 95 160 140 75 q 50 353 50 246 q 92 542 50 456 q 213 679 135 628 q 393 731 290 731 q 574 684 497 731 q 691 556 650 638 q 732 368 732 474 q 728 332 732 347 l 168 332 q 207 196 172 251 q 295 113 242 140 q 407 85 349 85 q 617 213 543 85 l 717 164 q 592 28 671 78 q 403 -22 514 -22 m 607 429 q 582 518 604 474 q 512 593 560 563 q 392 624 464 624 q 251 570 308 624 q 175 429 193 517 l 607 429 m 246 1022 l 375 1022 l 447 846 l 343 846 l 246 1022 z "},"ē":{"ha":782,"x_min":50,"x_max":732,"o":"m 403 -22 q 221 26 301 -22 q 95 160 140 75 q 50 353 50 246 q 92 542 50 456 q 213 679 135 628 q 393 731 290 731 q 574 684 497 731 q 691 556 650 638 q 732 368 732 474 q 728 332 732 347 l 168 332 q 207 196 172 251 q 295 113 242 140 q 407 85 349 85 q 617 213 543 85 l 717 164 q 592 28 671 78 q 403 -22 514 -22 m 607 429 q 582 518 604 474 q 512 593 560 563 q 392 624 464 624 q 251 570 308 624 q 175 429 193 517 l 607 429 m 203 989 l 588 989 l 588 896 l 203 896 l 203 989 z "},"ę":{"ha":782,"x_min":50,"x_max":732,"o":"m 514 -311 q 392 -266 438 -311 q 347 -156 347 -221 q 413 -22 347 -85 l 403 -22 q 221 26 301 -22 q 95 160 140 75 q 50 353 50 246 q 92 542 50 456 q 213 679 135 628 q 393 731 290 731 q 574 684 497 731 q 691 556 650 638 q 732 368 732 474 q 728 332 732 347 l 168 332 q 207 196 172 251 q 295 113 242 140 q 407 85 349 85 q 617 213 543 85 l 717 164 q 582 22 676 88 q 481 -62 510 -28 q 453 -139 453 -97 q 472 -192 453 -171 q 524 -214 492 -214 q 579 -200 551 -214 l 579 -300 q 514 -311 554 -311 m 607 429 q 582 518 604 474 q 512 593 560 563 q 392 624 464 624 q 251 570 308 624 q 175 429 193 517 l 607 429 z "},"ə":{"ha":782,"x_min":50,"x_max":732,"o":"m 379 731 q 561 682 481 731 q 687 548 642 633 q 732 356 732 463 q 690 167 732 253 q 569 29 647 81 q 389 -22 492 -22 q 208 24 285 -22 q 91 153 132 71 q 50 340 50 235 q 54 376 50 363 l 614 376 q 575 513 610 457 q 487 596 540 568 q 375 624 433 624 q 165 496 239 624 l 65 544 q 190 681 111 631 q 379 731 268 731 m 175 279 q 200 190 178 235 q 270 115 222 146 q 390 85 318 85 q 531 138 474 85 q 607 279 589 192 l 175 279 z "},"f":{"ha":526,"x_min":39,"x_max":500,"o":"m 169 601 l 39 601 l 39 708 l 169 708 l 169 785 q 200 901 169 851 q 282 978 231 951 q 396 1006 333 1006 q 500 989 456 1006 l 500 874 q 453 890 475 883 q 400 896 431 896 q 321 863 354 896 q 288 772 288 831 l 288 708 l 469 708 l 469 601 l 288 601 l 288 0 l 169 0 l 169 601 z "},"g":{"ha":829,"x_min":50,"x_max":742,"o":"m 399 -322 q 192 -264 274 -322 q 83 -124 111 -206 l 190 -78 q 269 -177 214 -139 q 399 -215 324 -215 q 569 -151 508 -215 q 629 29 629 -87 l 629 108 l 624 108 q 526 20 589 54 q 382 -14 463 -14 q 215 33 290 -14 q 94 165 139 81 q 50 358 50 250 q 94 551 50 465 q 215 683 139 636 q 382 731 290 731 q 526 697 463 731 q 624 607 589 663 l 629 607 l 629 708 l 742 708 l 742 28 q 647 -233 742 -143 q 399 -322 553 -322 m 399 93 q 515 125 463 93 q 598 217 567 157 q 629 358 629 276 q 598 501 629 442 q 515 592 567 561 q 399 624 463 624 q 282 592 335 624 q 198 500 229 560 q 167 358 167 440 q 198 216 167 276 q 282 124 229 156 q 399 93 335 93 z "},"ğ":{"ha":829,"x_min":50,"x_max":742,"o":"m 399 -322 q 192 -264 274 -322 q 83 -124 111 -206 l 190 -78 q 269 -177 214 -139 q 399 -215 324 -215 q 569 -151 508 -215 q 629 29 629 -87 l 629 108 l 624 108 q 526 20 589 54 q 382 -14 463 -14 q 215 33 290 -14 q 94 165 139 81 q 50 358 50 250 q 94 551 50 465 q 215 683 139 636 q 382 731 290 731 q 526 697 463 731 q 624 607 589 663 l 629 607 l 629 708 l 742 708 l 742 28 q 647 -233 742 -143 q 399 -322 553 -322 m 399 93 q 515 125 463 93 q 598 217 567 157 q 629 358 629 276 q 598 501 629 442 q 515 592 567 561 q 399 624 463 624 q 282 592 335 624 q 198 500 229 560 q 167 358 167 440 q 198 216 167 276 q 282 124 229 156 q 399 93 335 93 m 414 843 q 327 866 368 843 q 261 928 286 889 q 236 1017 236 968 l 332 1017 q 354 957 332 982 q 414 932 376 932 q 471 957 449 932 q 493 1017 493 982 l 588 1017 q 563 928 588 968 q 499 866 539 889 q 414 843 458 843 z "},"ĝ":{"ha":829,"x_min":50,"x_max":742,"o":"m 399 -322 q 192 -264 274 -322 q 83 -124 111 -206 l 190 -78 q 269 -177 214 -139 q 399 -215 324 -215 q 569 -151 508 -215 q 629 29 629 -87 l 629 108 l 624 108 q 526 20 589 54 q 382 -14 463 -14 q 215 33 290 -14 q 94 165 139 81 q 50 358 50 250 q 94 551 50 465 q 215 683 139 636 q 382 731 290 731 q 526 697 463 731 q 624 607 589 663 l 629 607 l 629 708 l 742 708 l 742 28 q 647 -233 742 -143 q 399 -322 553 -322 m 399 93 q 515 125 463 93 q 598 217 567 157 q 629 358 629 276 q 598 501 629 442 q 515 592 567 561 q 399 624 463 624 q 282 592 335 624 q 198 500 229 560 q 167 358 167 440 q 198 216 167 276 q 282 124 229 156 q 399 93 335 93 m 219 860 l 361 1022 l 465 1022 l 607 860 l 607 853 l 493 853 l 418 942 l 407 942 l 333 853 l 219 853 l 219 860 z "},"ģ":{"ha":829,"x_min":50,"x_max":742,"o":"m 399 -322 q 192 -264 274 -322 q 83 -124 111 -206 l 190 -78 q 269 -177 214 -139 q 399 -215 324 -215 q 569 -151 508 -215 q 629 29 629 -87 l 629 108 l 624 108 q 526 20 589 54 q 382 -14 463 -14 q 215 33 290 -14 q 94 165 139 81 q 50 358 50 250 q 94 551 50 465 q 215 683 139 636 q 382 731 290 731 q 526 697 463 731 q 624 607 589 663 l 629 607 l 629 708 l 742 708 l 742 28 q 647 -233 742 -143 q 399 -322 553 -322 m 399 93 q 515 125 463 93 q 598 217 567 157 q 629 358 629 276 q 598 501 629 442 q 515 592 567 561 q 399 624 463 624 q 282 592 335 624 q 198 500 229 560 q 167 358 167 440 q 198 216 167 276 q 282 124 229 156 q 399 93 335 93 m 486 1050 l 431 971 q 472 945 456 965 q 488 899 488 925 q 465 846 488 869 q 410 822 443 822 q 353 845 375 822 q 332 903 332 868 q 349 963 332 929 l 433 1086 l 486 1050 z "},"ġ":{"ha":829,"x_min":50,"x_max":742,"o":"m 399 -322 q 192 -264 274 -322 q 83 -124 111 -206 l 190 -78 q 269 -177 214 -139 q 399 -215 324 -215 q 569 -151 508 -215 q 629 29 629 -87 l 629 108 l 624 108 q 526 20 589 54 q 382 -14 463 -14 q 215 33 290 -14 q 94 165 139 81 q 50 358 50 250 q 94 551 50 465 q 215 683 139 636 q 382 731 290 731 q 526 697 463 731 q 624 607 589 663 l 629 607 l 629 708 l 742 708 l 742 28 q 647 -233 742 -143 q 399 -322 553 -322 m 399 93 q 515 125 463 93 q 598 217 567 157 q 629 358 629 276 q 598 501 629 442 q 515 592 567 561 q 399 624 463 624 q 282 592 335 624 q 198 500 229 560 q 167 358 167 440 q 198 216 167 276 q 282 124 229 156 q 399 93 335 93 m 413 868 q 360 890 382 868 q 338 943 338 913 q 360 996 338 975 q 413 1017 382 1017 q 465 996 444 1017 q 486 943 486 975 q 465 890 486 913 q 413 868 444 868 z "},"h":{"ha":783,"x_min":88,"x_max":701,"o":"m 88 994 l 206 994 l 206 701 l 200 604 l 206 604 q 298 694 235 658 q 436 731 361 731 q 633 655 565 731 q 701 454 701 579 l 701 0 l 583 0 l 583 436 q 535 578 583 532 q 408 624 486 624 q 306 590 353 624 q 233 504 260 557 q 206 394 206 451 l 206 0 l 88 0 l 88 994 z "},"ħ":{"ha":783,"x_min":-1,"x_max":701,"o":"m 436 731 q 633 655 565 731 q 701 454 701 579 l 701 0 l 583 0 l 583 436 q 535 578 583 532 q 408 624 486 624 q 306 590 353 624 q 233 504 260 557 q 206 394 206 451 l 206 0 l 88 0 l 88 810 l -1 810 l -1 903 l 88 903 l 88 994 l 206 994 l 206 903 l 418 903 l 418 810 l 206 810 l 206 701 l 200 604 l 206 604 q 298 694 235 658 q 436 731 361 731 z "},"ĥ":{"ha":783,"x_min":88,"x_max":701,"o":"m 88 994 l 206 994 l 206 701 l 200 604 l 206 604 q 298 694 235 658 q 436 731 361 731 q 633 655 565 731 q 701 454 701 579 l 701 0 l 583 0 l 583 436 q 535 578 583 532 q 408 624 486 624 q 306 590 353 624 q 233 504 260 557 q 206 394 206 451 l 206 0 l 88 0 l 88 994 m 206 1088 l 347 1250 l 451 1250 l 593 1088 l 593 1081 l 479 1081 l 404 1169 l 393 1169 l 319 1081 l 206 1081 l 206 1088 z "},"i":{"ha":314,"x_min":72,"x_max":242,"o":"m 157 839 q 97 864 122 839 q 72 924 72 889 q 97 983 72 958 q 157 1007 122 1007 q 217 983 192 1007 q 242 924 242 958 q 217 864 242 889 q 157 839 193 839 m 99 708 l 215 708 l 215 0 l 99 0 l 99 708 z "},"ı":{"ha":314,"x_min":99,"x_max":215,"o":"m 99 708 l 215 708 l 215 0 l 99 0 l 99 708 z "},"í":{"ha":314,"x_min":99,"x_max":307,"o":"m 99 708 l 215 708 l 215 0 l 99 0 l 99 708 m 178 1022 l 307 1022 l 208 846 l 106 846 l 178 1022 z "},"ĭ":{"ha":314,"x_min":-19,"x_max":332,"o":"m 99 708 l 215 708 l 215 0 l 99 0 l 99 708 m 158 843 q 72 866 113 843 q 6 928 31 889 q -19 1017 -19 968 l 76 1017 q 99 957 76 982 q 158 932 121 932 q 215 957 193 932 q 238 1017 238 982 l 332 1017 q 308 928 332 968 q 243 866 283 889 q 158 843 203 843 z "},"î":{"ha":314,"x_min":-36,"x_max":351,"o":"m 99 708 l 215 708 l 215 0 l 99 0 l 99 708 m -36 860 l 106 1022 l 210 1022 l 351 860 l 351 853 l 238 853 l 163 942 l 151 942 l 78 853 l -36 853 l -36 860 z "},"ï":{"ha":314,"x_min":-10,"x_max":324,"o":"m 65 868 q 13 890 35 868 q -10 943 -10 913 q 13 996 -10 975 q 65 1017 35 1017 q 118 996 97 1017 q 139 943 139 975 q 118 890 139 913 q 65 868 97 868 m 250 868 q 197 890 219 868 q 175 943 175 913 q 197 996 175 975 q 250 1017 219 1017 q 303 996 282 1017 q 324 943 324 975 q 303 890 324 913 q 250 868 282 868 m 99 708 l 215 708 l 215 0 l 99 0 l 99 708 z "},"ì":{"ha":314,"x_min":8,"x_max":215,"o":"m 99 708 l 215 708 l 215 0 l 99 0 l 99 708 m 8 1022 l 138 1022 l 210 846 l 106 846 l 8 1022 z "},"ī":{"ha":314,"x_min":-35,"x_max":350,"o":"m 99 708 l 215 708 l 215 0 l 99 0 l 99 708 m -35 989 l 350 989 l 350 896 l -35 896 l -35 989 z "},"į":{"ha":314,"x_min":10,"x_max":242,"o":"m 157 839 q 97 864 122 839 q 72 924 72 889 q 97 983 72 958 q 157 1007 122 1007 q 217 983 192 1007 q 242 924 242 958 q 217 864 242 889 q 157 839 193 839 m 175 -311 q 55 -266 100 -311 q 10 -156 10 -221 q 99 0 10 -68 l 99 708 l 215 708 l 215 0 q 140 -69 165 -39 q 115 -139 115 -100 q 134 -192 115 -171 q 185 -214 153 -214 q 240 -200 214 -214 l 240 -300 q 175 -311 215 -311 z "},"ĩ":{"ha":314,"x_min":-74,"x_max":388,"o":"m 99 708 l 215 708 l 215 0 l 99 0 l 99 708 m 238 856 q 188 866 213 856 q 129 896 164 876 q 74 921 89 921 q 24 869 28 921 l -74 869 q -28 986 -74 946 q 75 1026 18 1026 q 186 985 118 1026 q 240 961 228 961 q 290 1013 286 961 l 388 1013 q 342 896 388 936 q 238 856 296 856 z "},"j":{"ha":314,"x_min":-42,"x_max":242,"o":"m 157 839 q 97 864 122 839 q 72 924 72 889 q 97 983 72 958 q 157 1007 122 1007 q 217 983 192 1007 q 242 924 242 958 q 217 864 242 889 q 157 839 193 839 m 21 -314 q -42 -304 -12 -314 l -42 -192 q -14 -203 -31 -199 q 17 -207 3 -207 q 79 -180 60 -207 q 99 -100 99 -153 l 99 708 l 215 708 l 215 -100 q 164 -260 215 -207 q 21 -314 113 -314 z "},"ȷ":{"ha":314,"x_min":-42,"x_max":215,"o":"m 21 -314 q -42 -304 -12 -314 l -42 -192 q -14 -203 -31 -199 q 17 -207 3 -207 q 79 -180 60 -207 q 99 -100 99 -153 l 99 708 l 215 708 l 215 -100 q 164 -260 215 -207 q 21 -314 113 -314 z "},"ĵ":{"ha":314,"x_min":-42,"x_max":351,"o":"m 21 -314 q -42 -304 -12 -314 l -42 -192 q -14 -203 -31 -199 q 17 -207 3 -207 q 79 -180 60 -207 q 99 -100 99 -153 l 99 708 l 215 708 l 215 -100 q 164 -260 215 -207 q 21 -314 113 -314 m -36 860 l 106 1022 l 210 1022 l 351 860 l 351 853 l 238 853 l 163 942 l 151 942 l 78 853 l -36 853 l -36 860 z "},"k":{"ha":701,"x_min":88,"x_max":696,"o":"m 88 994 l 206 994 l 206 369 l 539 708 l 689 708 l 689 703 l 411 422 l 696 6 l 696 0 l 556 0 l 328 340 l 206 218 l 206 0 l 88 0 l 88 994 z "},"ķ":{"ha":701,"x_min":88,"x_max":696,"o":"m 88 994 l 206 994 l 206 369 l 539 708 l 689 708 l 689 703 l 411 422 l 696 6 l 696 0 l 556 0 l 328 340 l 206 218 l 206 0 l 88 0 l 88 994 m 288 -294 l 343 -215 q 302 -190 318 -210 q 286 -143 286 -169 q 308 -90 286 -114 q 364 -67 331 -67 q 420 -90 399 -67 q 442 -147 442 -112 q 425 -207 442 -174 l 340 -331 l 288 -294 z "},"ĸ":{"ha":678,"x_min":88,"x_max":672,"o":"m 88 708 l 206 708 l 206 388 l 211 388 l 510 708 l 658 708 l 658 703 l 339 372 l 672 6 l 672 0 l 528 0 l 211 357 l 206 357 l 206 0 l 88 0 l 88 708 z "},"l":{"ha":293,"x_min":88,"x_max":206,"o":"m 88 994 l 206 994 l 206 0 l 88 0 l 88 994 z "},"ĺ":{"ha":293,"x_min":88,"x_max":296,"o":"m 88 994 l 206 994 l 206 0 l 88 0 l 88 994 m 167 1250 l 296 1250 l 197 1074 l 94 1074 l 167 1250 z "},"ľ":{"ha":414,"x_min":88,"x_max":449,"o":"m 88 994 l 206 994 l 206 0 l 88 0 l 88 994 m 322 994 l 449 994 l 408 732 l 322 732 l 322 994 z "},"ļ":{"ha":293,"x_min":68,"x_max":224,"o":"m 88 994 l 206 994 l 206 0 l 88 0 l 88 994 m 69 -294 l 125 -215 q 84 -190 100 -210 q 68 -143 68 -169 q 90 -90 68 -114 q 146 -67 113 -67 q 202 -90 181 -67 q 224 -147 224 -112 q 207 -207 224 -174 l 122 -331 l 69 -294 z "},"ł":{"ha":513,"x_min":50,"x_max":474,"o":"m 193 438 l 111 378 l 50 458 l 193 564 l 193 994 l 310 994 l 310 643 l 413 718 l 474 636 l 310 517 l 310 0 l 193 0 l 193 438 z "},"m":{"ha":1215,"x_min":88,"x_max":1133,"o":"m 88 708 l 200 708 l 200 604 l 206 604 q 297 694 236 658 q 426 731 358 731 q 562 693 504 731 q 644 593 619 656 q 744 693 682 656 q 888 731 806 731 q 1072 656 1010 731 q 1133 454 1133 582 l 1133 0 l 1017 0 l 1017 436 q 976 579 1017 535 q 857 624 936 624 q 761 593 804 624 q 694 511 718 563 q 669 400 669 460 l 669 0 l 551 0 l 551 435 q 511 579 551 535 q 393 624 471 624 q 297 592 340 624 q 230 509 254 561 q 206 397 206 457 l 206 0 l 88 0 l 88 708 z "},"n":{"ha":779,"x_min":88,"x_max":697,"o":"m 88 708 l 200 708 l 200 604 l 206 604 q 299 694 235 657 q 435 731 363 731 q 630 656 563 731 q 697 454 697 582 l 697 0 l 579 0 l 579 436 q 532 579 579 535 q 403 624 485 624 q 301 592 346 624 q 231 508 256 560 q 206 399 206 456 l 206 0 l 88 0 l 88 708 z "},"ń":{"ha":779,"x_min":88,"x_max":697,"o":"m 88 708 l 200 708 l 200 604 l 206 604 q 299 694 235 657 q 435 731 363 731 q 630 656 563 731 q 697 454 697 582 l 697 0 l 579 0 l 579 436 q 532 579 579 535 q 403 624 485 624 q 301 592 346 624 q 231 508 256 560 q 206 399 206 456 l 206 0 l 88 0 l 88 708 m 428 1022 l 557 1022 l 458 846 l 356 846 l 428 1022 z "},"ň":{"ha":779,"x_min":88,"x_max":697,"o":"m 88 708 l 200 708 l 200 604 l 206 604 q 299 694 235 657 q 435 731 363 731 q 630 656 563 731 q 697 454 697 582 l 697 0 l 579 0 l 579 436 q 532 579 579 535 q 403 624 485 624 q 301 592 346 624 q 231 508 256 560 q 206 399 206 456 l 206 0 l 88 0 l 88 708 m 214 1015 l 214 1022 l 328 1022 l 401 933 l 413 933 l 488 1022 l 601 1022 l 601 1015 l 460 853 l 356 853 l 214 1015 z "},"ņ":{"ha":779,"x_min":88,"x_max":697,"o":"m 88 708 l 200 708 l 200 604 l 206 604 q 299 694 235 657 q 435 731 363 731 q 630 656 563 731 q 697 454 697 582 l 697 0 l 579 0 l 579 436 q 532 579 579 535 q 403 624 485 624 q 301 592 346 624 q 231 508 256 560 q 206 399 206 456 l 206 0 l 88 0 l 88 708 m 317 -294 l 372 -215 q 331 -190 347 -210 q 315 -143 315 -169 q 338 -90 315 -114 q 393 -67 360 -67 q 449 -90 428 -67 q 471 -147 471 -112 q 454 -207 471 -174 l 369 -331 l 317 -294 z "},"ŋ":{"ha":779,"x_min":88,"x_max":697,"o":"m 501 -314 q 439 -304 471 -314 l 439 -192 q 467 -203 450 -199 q 499 -207 485 -207 q 560 -180 542 -207 q 579 -100 579 -153 l 579 436 q 532 579 579 535 q 403 624 485 624 q 301 592 346 624 q 231 508 256 560 q 206 399 206 456 l 206 0 l 88 0 l 88 708 l 200 708 l 200 604 l 206 604 q 299 694 235 657 q 435 731 363 731 q 630 656 563 731 q 697 454 697 582 l 697 -100 q 646 -260 697 -207 q 501 -314 594 -314 z "},"ñ":{"ha":779,"x_min":88,"x_max":697,"o":"m 88 708 l 200 708 l 200 604 l 206 604 q 299 694 235 657 q 435 731 363 731 q 630 656 563 731 q 697 454 697 582 l 697 0 l 579 0 l 579 436 q 532 579 579 535 q 403 624 485 624 q 301 592 346 624 q 231 508 256 560 q 206 399 206 456 l 206 0 l 88 0 l 88 708 m 488 856 q 438 866 463 856 q 379 896 414 876 q 324 921 339 921 q 274 869 278 921 l 176 869 q 222 986 176 946 q 325 1026 268 1026 q 436 985 368 1026 q 490 961 478 961 q 540 1013 536 961 l 638 1013 q 592 896 638 936 q 488 856 546 856 z "},"o":{"ha":828,"x_min":50,"x_max":778,"o":"m 414 -22 q 226 28 310 -22 q 97 164 143 78 q 50 354 50 250 q 97 544 50 458 q 226 681 143 631 q 414 731 310 731 q 601 681 518 731 q 731 544 685 631 q 778 354 778 458 q 731 164 778 250 q 601 28 685 78 q 414 -22 518 -22 m 414 85 q 535 117 479 85 q 626 211 592 150 q 660 354 660 272 q 626 497 660 436 q 535 591 592 558 q 414 624 479 624 q 292 591 349 624 q 201 497 235 558 q 167 354 167 436 q 201 211 167 272 q 292 117 235 150 q 414 85 349 85 z "},"ó":{"ha":828,"x_min":50,"x_max":778,"o":"m 414 -22 q 226 28 310 -22 q 97 164 143 78 q 50 354 50 250 q 97 544 50 458 q 226 681 143 631 q 414 731 310 731 q 601 681 518 731 q 731 544 685 631 q 778 354 778 458 q 731 164 778 250 q 601 28 685 78 q 414 -22 518 -22 m 414 85 q 535 117 479 85 q 626 211 592 150 q 660 354 660 272 q 626 497 660 436 q 535 591 592 558 q 414 624 479 624 q 292 591 349 624 q 201 497 235 558 q 167 354 167 436 q 201 211 167 272 q 292 117 235 150 q 414 85 349 85 m 435 1022 l 564 1022 l 465 846 l 363 846 l 435 1022 z "},"ŏ":{"ha":828,"x_min":50,"x_max":778,"o":"m 414 -22 q 226 28 310 -22 q 97 164 143 78 q 50 354 50 250 q 97 544 50 458 q 226 681 143 631 q 414 731 310 731 q 601 681 518 731 q 731 544 685 631 q 778 354 778 458 q 731 164 778 250 q 601 28 685 78 q 414 -22 518 -22 m 414 85 q 535 117 479 85 q 626 211 592 150 q 660 354 660 272 q 626 497 660 436 q 535 591 592 558 q 414 624 479 624 q 292 591 349 624 q 201 497 235 558 q 167 354 167 436 q 201 211 167 272 q 292 117 235 150 q 414 85 349 85 m 415 843 q 328 866 369 843 q 263 928 288 889 q 238 1017 238 968 l 333 1017 q 356 957 333 982 q 415 932 378 932 q 472 957 450 932 q 494 1017 494 982 l 589 1017 q 565 928 589 968 q 500 866 540 889 q 415 843 460 843 z "},"ô":{"ha":828,"x_min":50,"x_max":778,"o":"m 414 -22 q 226 28 310 -22 q 97 164 143 78 q 50 354 50 250 q 97 544 50 458 q 226 681 143 631 q 414 731 310 731 q 601 681 518 731 q 731 544 685 631 q 778 354 778 458 q 731 164 778 250 q 601 28 685 78 q 414 -22 518 -22 m 414 85 q 535 117 479 85 q 626 211 592 150 q 660 354 660 272 q 626 497 660 436 q 535 591 592 558 q 414 624 479 624 q 292 591 349 624 q 201 497 235 558 q 167 354 167 436 q 201 211 167 272 q 292 117 235 150 q 414 85 349 85 m 221 860 l 363 1022 l 467 1022 l 608 860 l 608 853 l 494 853 l 419 942 l 408 942 l 335 853 l 221 853 l 221 860 z "},"ö":{"ha":828,"x_min":50,"x_max":778,"o":"m 414 -22 q 226 28 310 -22 q 97 164 143 78 q 50 354 50 250 q 97 544 50 458 q 226 681 143 631 q 414 731 310 731 q 601 681 518 731 q 731 544 685 631 q 778 354 778 458 q 731 164 778 250 q 601 28 685 78 q 414 -22 518 -22 m 414 85 q 535 117 479 85 q 626 211 592 150 q 660 354 660 272 q 626 497 660 436 q 535 591 592 558 q 414 624 479 624 q 292 591 349 624 q 201 497 235 558 q 167 354 167 436 q 201 211 167 272 q 292 117 235 150 q 414 85 349 85 m 300 868 q 247 890 269 868 q 225 943 225 913 q 247 996 225 975 q 300 1017 269 1017 q 353 996 332 1017 q 374 943 374 975 q 353 890 374 913 q 300 868 332 868 m 528 868 q 476 890 499 868 q 453 943 453 913 q 475 996 453 975 q 528 1017 497 1017 q 581 996 560 1017 q 603 943 603 975 q 581 890 603 913 q 528 868 560 868 z "},"ò":{"ha":828,"x_min":50,"x_max":778,"o":"m 414 -22 q 226 28 310 -22 q 97 164 143 78 q 50 354 50 250 q 97 544 50 458 q 226 681 143 631 q 414 731 310 731 q 601 681 518 731 q 731 544 685 631 q 778 354 778 458 q 731 164 778 250 q 601 28 685 78 q 414 -22 518 -22 m 414 85 q 535 117 479 85 q 626 211 592 150 q 660 354 660 272 q 626 497 660 436 q 535 591 592 558 q 414 624 479 624 q 292 591 349 624 q 201 497 235 558 q 167 354 167 436 q 201 211 167 272 q 292 117 235 150 q 414 85 349 85 m 265 1022 l 394 1022 l 467 846 l 363 846 l 265 1022 z "},"ő":{"ha":828,"x_min":50,"x_max":778,"o":"m 414 -22 q 226 28 310 -22 q 97 164 143 78 q 50 354 50 250 q 97 544 50 458 q 226 681 143 631 q 414 731 310 731 q 601 681 518 731 q 731 544 685 631 q 778 354 778 458 q 731 164 778 250 q 601 28 685 78 q 414 -22 518 -22 m 414 85 q 535 117 479 85 q 626 211 592 150 q 660 354 660 272 q 626 497 660 436 q 535 591 592 558 q 414 624 479 624 q 292 591 349 624 q 201 497 235 558 q 167 354 167 436 q 201 211 167 272 q 292 117 235 150 q 414 85 349 85 m 325 1022 l 454 1022 l 356 846 l 253 846 l 325 1022 m 546 1022 l 675 1022 l 576 846 l 474 846 l 546 1022 z "},"ō":{"ha":828,"x_min":50,"x_max":778,"o":"m 414 -22 q 226 28 310 -22 q 97 164 143 78 q 50 354 50 250 q 97 544 50 458 q 226 681 143 631 q 414 731 310 731 q 601 681 518 731 q 731 544 685 631 q 778 354 778 458 q 731 164 778 250 q 601 28 685 78 q 414 -22 518 -22 m 414 85 q 535 117 479 85 q 626 211 592 150 q 660 354 660 272 q 626 497 660 436 q 535 591 592 558 q 414 624 479 624 q 292 591 349 624 q 201 497 235 558 q 167 354 167 436 q 201 211 167 272 q 292 117 235 150 q 414 85 349 85 m 222 989 l 607 989 l 607 896 l 222 896 l 222 989 z "},"ø":{"ha":828,"x_min":50,"x_max":778,"o":"m 649 647 q 744 518 710 594 q 778 354 778 442 q 731 164 778 250 q 601 28 685 78 q 414 -22 518 -22 q 254 13 328 -22 l 218 -44 l 142 -1 l 181 60 q 84 188 118 113 q 50 354 50 264 q 97 544 50 458 q 226 681 143 631 q 414 731 310 731 q 575 694 503 731 l 613 754 l 688 710 l 649 647 m 167 354 q 186 243 167 293 q 240 157 206 193 l 517 600 q 414 624 467 624 q 292 591 349 624 q 201 497 235 558 q 167 354 167 436 m 414 85 q 535 117 479 85 q 626 211 592 150 q 660 354 660 272 q 588 550 660 474 l 313 107 q 414 85 358 85 z "},"ǿ":{"ha":828,"x_min":50,"x_max":778,"o":"m 649 647 q 744 518 710 594 q 778 354 778 442 q 731 164 778 250 q 601 28 685 78 q 414 -22 518 -22 q 254 13 328 -22 l 218 -44 l 142 -1 l 181 60 q 84 188 118 113 q 50 354 50 264 q 97 544 50 458 q 226 681 143 631 q 414 731 310 731 q 575 694 503 731 l 613 754 l 688 710 l 649 647 m 167 354 q 186 243 167 293 q 240 157 206 193 l 517 600 q 414 624 467 624 q 292 591 349 624 q 201 497 235 558 q 167 354 167 436 m 414 85 q 535 117 479 85 q 626 211 592 150 q 660 354 660 272 q 588 550 660 474 l 313 107 q 414 85 358 85 m 435 1022 l 564 1022 l 465 846 l 363 846 l 435 1022 z "},"õ":{"ha":828,"x_min":50,"x_max":778,"o":"m 414 -22 q 226 28 310 -22 q 97 164 143 78 q 50 354 50 250 q 97 544 50 458 q 226 681 143 631 q 414 731 310 731 q 601 681 518 731 q 731 544 685 631 q 778 354 778 458 q 731 164 778 250 q 601 28 685 78 q 414 -22 518 -22 m 414 85 q 535 117 479 85 q 626 211 592 150 q 660 354 660 272 q 626 497 660 436 q 535 591 592 558 q 414 624 479 624 q 292 591 349 624 q 201 497 235 558 q 167 354 167 436 q 201 211 167 272 q 292 117 235 150 q 414 85 349 85 m 494 856 q 445 866 469 856 q 386 896 421 876 q 331 921 346 921 q 281 869 285 921 l 183 869 q 229 986 183 946 q 332 1026 275 1026 q 443 985 375 1026 q 497 961 485 961 q 547 1013 543 961 l 644 1013 q 599 896 644 936 q 494 856 553 856 z "},"œ":{"ha":1393,"x_min":50,"x_max":1343,"o":"m 414 -22 q 226 28 310 -22 q 97 164 143 78 q 50 354 50 250 q 97 544 50 458 q 226 681 143 631 q 414 731 310 731 q 592 684 513 731 q 717 556 671 638 q 835 684 760 638 q 1004 731 910 731 q 1185 684 1108 731 q 1302 556 1261 638 q 1343 368 1343 474 q 1340 332 1343 351 l 779 332 q 818 196 783 251 q 906 113 853 140 q 1018 85 960 85 q 1228 213 1157 85 l 1328 164 q 1204 28 1283 79 q 1014 -22 1125 -22 q 839 24 915 -22 q 717 153 763 69 q 592 24 671 69 q 414 -22 513 -22 m 414 85 q 535 117 479 85 q 626 211 592 150 q 660 354 660 272 q 626 497 660 436 q 535 591 592 558 q 414 624 479 624 q 292 591 349 624 q 201 497 235 558 q 167 354 167 436 q 201 211 167 272 q 292 117 235 150 q 414 85 349 85 m 1218 429 q 1193 518 1215 474 q 1124 593 1171 563 q 1004 624 1076 624 q 863 570 921 624 q 786 429 804 517 l 1218 429 z "},"p":{"ha":831,"x_min":82,"x_max":781,"o":"m 82 708 l 194 708 l 194 603 l 200 603 q 297 694 232 657 q 442 731 361 731 q 614 682 536 731 q 736 547 692 633 q 781 354 781 461 q 736 160 781 246 q 614 26 692 75 q 442 -22 536 -22 q 297 15 361 -22 q 200 104 232 51 l 194 104 l 200 7 l 200 -300 l 82 -300 l 82 708 m 428 85 q 543 118 489 85 q 630 213 597 151 q 663 354 663 275 q 630 495 663 433 q 543 590 597 557 q 428 624 489 624 q 313 590 367 624 q 226 496 258 557 q 194 354 194 435 q 226 213 194 274 q 313 118 258 151 q 428 85 367 85 z "},"þ":{"ha":832,"x_min":83,"x_max":782,"o":"m 83 994 l 201 994 l 201 697 l 196 603 l 201 603 q 299 694 235 657 q 443 731 363 731 q 616 682 539 731 q 738 547 693 633 q 782 354 782 461 q 738 160 782 246 q 616 26 693 75 q 443 -22 539 -22 q 299 15 363 -22 q 201 104 235 51 l 196 104 l 201 10 l 201 -300 l 83 -300 l 83 994 m 431 85 q 546 118 492 85 q 633 213 600 151 q 665 354 665 275 q 633 495 665 433 q 546 590 600 557 q 431 624 492 624 q 315 590 368 624 q 228 496 261 557 q 196 354 196 435 q 228 213 196 274 q 315 118 261 151 q 431 85 368 85 z "},"q":{"ha":831,"x_min":50,"x_max":749,"o":"m 631 7 l 636 104 l 631 104 q 533 15 597 51 q 388 -22 469 -22 q 216 26 293 -22 q 94 160 139 75 q 50 354 50 246 q 94 547 50 461 q 216 682 139 633 q 388 731 293 731 q 533 694 469 731 q 631 603 597 657 l 636 603 l 636 708 l 749 708 l 749 -300 l 631 -300 l 631 7 m 401 85 q 517 118 464 85 q 603 213 571 151 q 636 354 636 274 q 603 496 636 435 q 517 590 571 557 q 401 624 464 624 q 286 590 340 624 q 199 495 232 557 q 167 354 167 433 q 199 213 167 275 q 286 118 232 151 q 401 85 340 85 z "},"r":{"ha":521,"x_min":88,"x_max":494,"o":"m 88 708 l 200 708 l 200 594 l 206 594 q 286 691 226 653 q 411 729 346 729 q 494 715 460 729 l 494 588 q 394 610 450 610 q 300 581 343 610 q 231 502 257 551 q 206 396 206 453 l 206 0 l 88 0 l 88 708 z "},"ŕ":{"ha":521,"x_min":88,"x_max":494,"o":"m 88 708 l 200 708 l 200 594 l 206 594 q 286 691 226 653 q 411 729 346 729 q 494 715 460 729 l 494 588 q 394 610 450 610 q 300 581 343 610 q 231 502 257 551 q 206 396 206 453 l 206 0 l 88 0 l 88 708 m 304 1022 l 433 1022 l 335 846 l 232 846 l 304 1022 z "},"ř":{"ha":521,"x_min":88,"x_max":494,"o":"m 88 708 l 200 708 l 200 594 l 206 594 q 286 691 226 653 q 411 729 346 729 q 494 715 460 729 l 494 588 q 394 610 450 610 q 300 581 343 610 q 231 502 257 551 q 206 396 206 453 l 206 0 l 88 0 l 88 708 m 90 1015 l 90 1022 l 204 1022 l 278 933 l 289 933 l 364 1022 l 478 1022 l 478 1015 l 336 853 l 232 853 l 90 1015 z "},"ŗ":{"ha":521,"x_min":68,"x_max":494,"o":"m 88 708 l 200 708 l 200 594 l 206 594 q 286 691 226 653 q 411 729 346 729 q 494 715 460 729 l 494 588 q 394 610 450 610 q 300 581 343 610 q 231 502 257 551 q 206 396 206 453 l 206 0 l 88 0 l 88 708 m 69 -294 l 125 -215 q 84 -190 100 -210 q 68 -143 68 -169 q 90 -90 68 -114 q 146 -67 113 -67 q 202 -90 181 -67 q 224 -147 224 -112 q 207 -207 224 -174 l 122 -331 l 69 -294 z "},"s":{"ha":657,"x_min":36,"x_max":615,"o":"m 335 -22 q 144 31 221 -22 q 36 168 68 85 l 142 215 q 220 117 168 151 q 335 82 272 82 q 449 109 401 82 q 496 186 496 136 q 458 258 496 231 q 340 304 421 285 l 254 326 q 115 397 169 347 q 61 526 61 447 q 98 634 61 588 q 196 706 135 681 q 328 731 257 731 q 494 690 421 731 q 597 578 567 650 l 494 531 q 326 625 447 625 q 224 598 268 625 q 181 529 181 571 q 211 466 181 490 q 303 426 242 442 l 406 400 q 563 322 510 374 q 615 194 615 269 q 578 80 615 129 q 476 4 540 31 q 335 -22 413 -22 z "},"ś":{"ha":657,"x_min":36,"x_max":615,"o":"m 335 -22 q 144 31 221 -22 q 36 168 68 85 l 142 215 q 220 117 168 151 q 335 82 272 82 q 449 109 401 82 q 496 186 496 136 q 458 258 496 231 q 340 304 421 285 l 254 326 q 115 397 169 347 q 61 526 61 447 q 98 634 61 588 q 196 706 135 681 q 328 731 257 731 q 494 690 421 731 q 597 578 567 650 l 494 531 q 326 625 447 625 q 224 598 268 625 q 181 529 181 571 q 211 466 181 490 q 303 426 242 442 l 406 400 q 563 322 510 374 q 615 194 615 269 q 578 80 615 129 q 476 4 540 31 q 335 -22 413 -22 m 349 1022 l 478 1022 l 379 846 l 276 846 l 349 1022 z "},"š":{"ha":657,"x_min":36,"x_max":615,"o":"m 335 -22 q 144 31 221 -22 q 36 168 68 85 l 142 215 q 220 117 168 151 q 335 82 272 82 q 449 109 401 82 q 496 186 496 136 q 458 258 496 231 q 340 304 421 285 l 254 326 q 115 397 169 347 q 61 526 61 447 q 98 634 61 588 q 196 706 135 681 q 328 731 257 731 q 494 690 421 731 q 597 578 567 650 l 494 531 q 326 625 447 625 q 224 598 268 625 q 181 529 181 571 q 211 466 181 490 q 303 426 242 442 l 406 400 q 563 322 510 374 q 615 194 615 269 q 578 80 615 129 q 476 4 540 31 q 335 -22 413 -22 m 135 1015 l 135 1022 l 249 1022 l 322 933 l 333 933 l 408 1022 l 522 1022 l 522 1015 l 381 853 l 276 853 l 135 1015 z "},"ş":{"ha":657,"x_min":36,"x_max":615,"o":"m 615 194 q 544 44 615 103 q 364 -21 474 -14 l 343 -68 q 375 -64 368 -64 q 465 -101 428 -64 q 501 -196 501 -139 q 461 -290 501 -251 q 361 -329 421 -329 q 281 -303 317 -329 q 231 -236 246 -276 l 300 -206 q 323 -241 307 -226 q 361 -256 339 -256 q 406 -238 389 -256 q 422 -196 422 -221 q 406 -151 422 -169 q 361 -133 389 -133 q 313 -157 332 -133 l 251 -129 l 293 -19 q 130 41 196 -11 q 36 168 64 93 l 142 215 q 220 117 168 151 q 335 82 272 82 q 449 109 401 82 q 496 186 496 136 q 458 258 496 231 q 340 304 421 285 l 254 326 q 115 397 169 347 q 61 526 61 447 q 98 634 61 588 q 196 706 135 681 q 328 731 257 731 q 494 690 421 731 q 597 578 567 650 l 494 531 q 326 625 447 625 q 224 598 268 625 q 181 529 181 571 q 211 466 181 490 q 303 426 242 442 l 406 400 q 563 322 510 374 q 615 194 615 269 z "},"ŝ":{"ha":657,"x_min":36,"x_max":615,"o":"m 335 -22 q 144 31 221 -22 q 36 168 68 85 l 142 215 q 220 117 168 151 q 335 82 272 82 q 449 109 401 82 q 496 186 496 136 q 458 258 496 231 q 340 304 421 285 l 254 326 q 115 397 169 347 q 61 526 61 447 q 98 634 61 588 q 196 706 135 681 q 328 731 257 731 q 494 690 421 731 q 597 578 567 650 l 494 531 q 326 625 447 625 q 224 598 268 625 q 181 529 181 571 q 211 466 181 490 q 303 426 242 442 l 406 400 q 563 322 510 374 q 615 194 615 269 q 578 80 615 129 q 476 4 540 31 q 335 -22 413 -22 m 135 860 l 276 1022 l 381 1022 l 522 860 l 522 853 l 408 853 l 333 942 l 322 942 l 249 853 l 135 853 l 135 860 z "},"ș":{"ha":657,"x_min":36,"x_max":615,"o":"m 335 -22 q 144 31 221 -22 q 36 168 68 85 l 142 215 q 220 117 168 151 q 335 82 272 82 q 449 109 401 82 q 496 186 496 136 q 458 258 496 231 q 340 304 421 285 l 254 326 q 115 397 169 347 q 61 526 61 447 q 98 634 61 588 q 196 706 135 681 q 328 731 257 731 q 494 690 421 731 q 597 578 567 650 l 494 531 q 326 625 447 625 q 224 598 268 625 q 181 529 181 571 q 211 466 181 490 q 303 426 242 442 l 406 400 q 563 322 510 374 q 615 194 615 269 q 578 80 615 129 q 476 4 540 31 q 335 -22 413 -22 m 260 -294 l 315 -215 q 274 -190 290 -210 q 258 -143 258 -169 q 281 -90 258 -114 q 336 -67 303 -67 q 392 -90 371 -67 q 414 -147 414 -112 q 397 -207 414 -174 l 313 -331 l 260 -294 z "},"ß":{"ha":793,"x_min":110,"x_max":738,"o":"m 422 -11 q 346 -4 381 -11 l 346 107 q 422 101 385 101 q 562 156 506 101 q 618 290 618 210 q 590 385 618 342 q 513 453 561 428 q 411 478 465 478 l 357 478 l 357 586 l 394 586 q 526 631 478 586 q 574 750 574 676 q 524 861 574 818 q 404 904 475 904 q 276 853 322 904 q 229 717 229 803 l 229 0 l 110 0 l 110 717 q 144 871 110 803 q 246 978 179 939 q 404 1017 313 1017 q 553 982 488 1017 q 656 887 619 947 q 693 750 693 826 q 569 540 693 603 l 569 535 q 690 443 643 506 q 738 290 738 381 q 697 135 738 204 q 585 28 657 67 q 422 -11 513 -11 z "},"t":{"ha":508,"x_min":39,"x_max":457,"o":"m 360 -11 q 280 3 317 -11 q 218 40 243 17 q 176 101 190 67 q 163 186 163 136 l 163 601 l 39 601 l 39 708 l 163 708 l 163 908 l 281 908 l 281 708 l 453 708 l 453 601 l 281 601 l 281 215 q 303 129 281 157 q 379 99 329 99 q 457 122 419 99 l 457 7 q 415 -7 436 -3 q 360 -11 393 -11 z "},"ŧ":{"ha":508,"x_min":39,"x_max":457,"o":"m 379 99 q 457 122 419 99 l 457 7 q 415 -7 436 -3 q 360 -11 393 -11 q 280 3 317 -11 q 218 40 243 17 q 176 101 190 67 q 163 186 163 136 l 163 325 l 39 325 l 39 432 l 163 432 l 163 601 l 39 601 l 39 708 l 163 708 l 163 908 l 281 908 l 281 708 l 453 708 l 453 601 l 281 601 l 281 432 l 453 432 l 453 325 l 281 325 l 281 215 q 303 129 281 157 q 379 99 329 99 z "},"ť":{"ha":499,"x_min":39,"x_max":489,"o":"m 371 994 l 489 994 l 456 797 l 371 797 l 371 994 m 360 -11 q 280 3 317 -11 q 218 40 243 17 q 176 101 190 67 q 163 186 163 136 l 163 601 l 39 601 l 39 708 l 163 708 l 163 908 l 281 908 l 281 708 l 453 708 l 453 601 l 281 601 l 281 215 q 303 129 281 157 q 379 99 329 99 q 457 122 419 99 l 457 7 q 415 -7 436 -3 q 360 -11 393 -11 z "},"ţ":{"ha":508,"x_min":39,"x_max":457,"o":"m 360 -11 q 324 -8 346 -11 l 294 -68 q 326 -64 319 -64 q 415 -101 378 -64 q 451 -196 451 -139 q 412 -290 451 -251 q 313 -329 372 -329 q 233 -303 268 -329 q 182 -236 197 -276 l 251 -206 q 274 -242 258 -226 q 313 -257 290 -257 q 357 -239 340 -257 q 374 -196 374 -221 q 357 -151 374 -169 q 313 -133 340 -133 q 264 -157 283 -133 l 203 -129 l 261 11 q 218 40 238 22 q 176 101 190 67 q 163 186 163 136 l 163 601 l 39 601 l 39 708 l 163 708 l 163 908 l 281 908 l 281 708 l 453 708 l 453 601 l 281 601 l 281 215 q 303 129 281 157 q 379 99 329 99 q 457 122 419 99 l 457 7 q 415 -7 436 -3 q 360 -11 393 -11 z "},"ț":{"ha":508,"x_min":39,"x_max":457,"o":"m 360 -11 q 280 3 317 -11 q 218 40 243 17 q 176 101 190 67 q 163 186 163 136 l 163 601 l 39 601 l 39 708 l 163 708 l 163 908 l 281 908 l 281 708 l 453 708 l 453 601 l 281 601 l 281 215 q 303 129 281 157 q 379 99 329 99 q 457 122 419 99 l 457 7 q 415 -7 436 -3 q 360 -11 393 -11 m 249 -294 l 304 -215 q 263 -190 279 -210 q 247 -143 247 -169 q 269 -90 247 -114 q 325 -67 292 -67 q 381 -90 360 -67 q 403 -147 403 -112 q 386 -207 403 -174 l 301 -331 l 249 -294 z "},"u":{"ha":779,"x_min":82,"x_max":692,"o":"m 344 -22 q 149 53 217 -22 q 82 263 82 128 l 82 708 l 200 708 l 200 281 q 246 132 200 179 q 369 85 292 85 q 476 117 429 85 q 548 200 522 149 q 574 308 574 251 l 574 708 l 692 708 l 692 0 l 579 0 l 579 103 l 574 103 q 481 14 544 50 q 344 -22 417 -22 z "},"ú":{"ha":779,"x_min":82,"x_max":692,"o":"m 344 -22 q 149 53 217 -22 q 82 263 82 128 l 82 708 l 200 708 l 200 281 q 246 132 200 179 q 369 85 292 85 q 476 117 429 85 q 548 200 522 149 q 574 308 574 251 l 574 708 l 692 708 l 692 0 l 579 0 l 579 103 l 574 103 q 481 14 544 50 q 344 -22 417 -22 m 407 1022 l 536 1022 l 438 846 l 335 846 l 407 1022 z "},"ŭ":{"ha":779,"x_min":82,"x_max":692,"o":"m 344 -22 q 149 53 217 -22 q 82 263 82 128 l 82 708 l 200 708 l 200 281 q 246 132 200 179 q 369 85 292 85 q 476 117 429 85 q 548 200 522 149 q 574 308 574 251 l 574 708 l 692 708 l 692 0 l 579 0 l 579 103 l 574 103 q 481 14 544 50 q 344 -22 417 -22 m 388 843 q 301 866 342 843 q 235 928 260 889 q 210 1017 210 968 l 306 1017 q 328 957 306 982 q 388 932 350 932 q 444 957 422 932 q 467 1017 467 982 l 561 1017 q 537 928 561 968 q 472 866 513 889 q 388 843 432 843 z "},"û":{"ha":779,"x_min":82,"x_max":692,"o":"m 344 -22 q 149 53 217 -22 q 82 263 82 128 l 82 708 l 200 708 l 200 281 q 246 132 200 179 q 369 85 292 85 q 476 117 429 85 q 548 200 522 149 q 574 308 574 251 l 574 708 l 692 708 l 692 0 l 579 0 l 579 103 l 574 103 q 481 14 544 50 q 344 -22 417 -22 m 193 860 l 335 1022 l 439 1022 l 581 860 l 581 853 l 467 853 l 392 942 l 381 942 l 307 853 l 193 853 l 193 860 z "},"ü":{"ha":779,"x_min":82,"x_max":692,"o":"m 344 -22 q 149 53 217 -22 q 82 263 82 128 l 82 708 l 200 708 l 200 281 q 246 132 200 179 q 369 85 292 85 q 476 117 429 85 q 548 200 522 149 q 574 308 574 251 l 574 708 l 692 708 l 692 0 l 579 0 l 579 103 l 574 103 q 481 14 544 50 q 344 -22 417 -22 m 272 868 q 219 890 242 868 q 197 943 197 913 q 219 996 197 975 q 272 1017 242 1017 q 325 996 304 1017 q 346 943 346 975 q 325 890 346 913 q 272 868 304 868 m 500 868 q 448 890 471 868 q 425 943 425 913 q 447 996 425 975 q 500 1017 469 1017 q 553 996 532 1017 q 575 943 575 975 q 553 890 575 913 q 500 868 532 868 z "},"ù":{"ha":779,"x_min":82,"x_max":692,"o":"m 344 -22 q 149 53 217 -22 q 82 263 82 128 l 82 708 l 200 708 l 200 281 q 246 132 200 179 q 369 85 292 85 q 476 117 429 85 q 548 200 522 149 q 574 308 574 251 l 574 708 l 692 708 l 692 0 l 579 0 l 579 103 l 574 103 q 481 14 544 50 q 344 -22 417 -22 m 238 1022 l 367 1022 l 439 846 l 335 846 l 238 1022 z "},"ű":{"ha":779,"x_min":82,"x_max":692,"o":"m 344 -22 q 149 53 217 -22 q 82 263 82 128 l 82 708 l 200 708 l 200 281 q 246 132 200 179 q 369 85 292 85 q 476 117 429 85 q 548 200 522 149 q 574 308 574 251 l 574 708 l 692 708 l 692 0 l 579 0 l 579 103 l 574 103 q 481 14 544 50 q 344 -22 417 -22 m 297 1022 l 426 1022 l 328 846 l 225 846 l 297 1022 m 518 1022 l 647 1022 l 549 846 l 446 846 l 518 1022 z "},"ū":{"ha":779,"x_min":82,"x_max":692,"o":"m 344 -22 q 149 53 217 -22 q 82 263 82 128 l 82 708 l 200 708 l 200 281 q 246 132 200 179 q 369 85 292 85 q 476 117 429 85 q 548 200 522 149 q 574 308 574 251 l 574 708 l 692 708 l 692 0 l 579 0 l 579 103 l 574 103 q 481 14 544 50 q 344 -22 417 -22 m 194 989 l 579 989 l 579 896 l 194 896 l 194 989 z "},"ų":{"ha":779,"x_min":82,"x_max":717,"o":"m 650 -311 q 530 -266 575 -311 q 485 -156 485 -221 q 513 -65 485 -104 q 579 0 540 -25 l 579 103 l 574 103 q 481 14 544 50 q 344 -22 417 -22 q 149 53 217 -22 q 82 263 82 128 l 82 708 l 200 708 l 200 281 q 246 132 200 179 q 369 85 292 85 q 476 117 429 85 q 548 200 522 149 q 574 308 574 251 l 574 708 l 692 708 l 692 0 q 616 -69 642 -39 q 590 -139 590 -100 q 610 -192 590 -171 q 661 -214 629 -214 q 717 -200 689 -214 l 717 -300 q 650 -311 692 -311 z "},"ů":{"ha":779,"x_min":82,"x_max":692,"o":"m 344 -22 q 149 53 217 -22 q 82 263 82 128 l 82 708 l 200 708 l 200 281 q 246 132 200 179 q 369 85 292 85 q 476 117 429 85 q 548 200 522 149 q 574 308 574 251 l 574 708 l 692 708 l 692 0 l 579 0 l 579 103 l 574 103 q 481 14 544 50 q 344 -22 417 -22 m 386 817 q 285 859 326 817 q 243 961 243 901 q 285 1063 243 1021 q 386 1104 326 1104 q 488 1063 446 1104 q 531 961 531 1021 q 488 859 531 901 q 386 817 446 817 m 386 894 q 433 914 414 894 q 451 961 451 933 q 432 1008 451 989 q 386 1026 413 1026 q 340 1007 360 1026 q 321 961 321 988 q 340 914 321 933 q 386 894 360 894 z "},"ũ":{"ha":779,"x_min":82,"x_max":692,"o":"m 344 -22 q 149 53 217 -22 q 82 263 82 128 l 82 708 l 200 708 l 200 281 q 246 132 200 179 q 369 85 292 85 q 476 117 429 85 q 548 200 522 149 q 574 308 574 251 l 574 708 l 692 708 l 692 0 l 579 0 l 579 103 l 574 103 q 481 14 544 50 q 344 -22 417 -22 m 467 856 q 417 866 442 856 q 358 896 393 876 q 303 921 318 921 q 253 869 257 921 l 156 869 q 201 986 156 946 q 304 1026 247 1026 q 415 985 347 1026 q 469 961 457 961 q 519 1013 515 961 l 617 1013 q 571 896 617 936 q 467 856 525 856 z "},"v":{"ha":714,"x_min":10,"x_max":704,"o":"m 10 708 l 136 708 l 356 139 l 358 139 l 581 708 l 704 708 l 415 0 l 296 0 l 10 708 z "},"w":{"ha":1079,"x_min":10,"x_max":1069,"o":"m 10 708 l 131 708 l 300 149 l 301 149 l 479 708 l 601 708 l 781 150 l 782 150 l 950 708 l 1069 708 l 840 0 l 721 0 l 538 565 l 356 0 l 238 0 l 10 708 z "},"ẃ":{"ha":1079,"x_min":10,"x_max":1069,"o":"m 10 708 l 131 708 l 300 149 l 301 149 l 479 708 l 601 708 l 781 150 l 782 150 l 950 708 l 1069 708 l 840 0 l 721 0 l 538 565 l 356 0 l 238 0 l 10 708 m 561 1022 l 690 1022 l 592 846 l 489 846 l 561 1022 z "},"ŵ":{"ha":1079,"x_min":10,"x_max":1069,"o":"m 10 708 l 131 708 l 300 149 l 301 149 l 479 708 l 601 708 l 781 150 l 782 150 l 950 708 l 1069 708 l 840 0 l 721 0 l 538 565 l 356 0 l 238 0 l 10 708 m 347 860 l 489 1022 l 593 1022 l 735 860 l 735 853 l 621 853 l 546 942 l 535 942 l 461 853 l 347 853 l 347 860 z "},"ẅ":{"ha":1079,"x_min":10,"x_max":1069,"o":"m 10 708 l 131 708 l 300 149 l 301 149 l 479 708 l 601 708 l 781 150 l 782 150 l 950 708 l 1069 708 l 840 0 l 721 0 l 538 565 l 356 0 l 238 0 l 10 708 m 426 868 q 374 890 396 868 q 351 943 351 913 q 374 996 351 975 q 426 1017 396 1017 q 479 996 458 1017 q 500 943 500 975 q 479 890 500 913 q 426 868 458 868 m 654 868 q 602 890 625 868 q 579 943 579 913 q 601 996 579 975 q 654 1017 624 1017 q 708 996 686 1017 q 729 943 729 975 q 708 890 729 913 q 654 868 686 868 z "},"ẁ":{"ha":1079,"x_min":10,"x_max":1069,"o":"m 10 708 l 131 708 l 300 149 l 301 149 l 479 708 l 601 708 l 781 150 l 782 150 l 950 708 l 1069 708 l 840 0 l 721 0 l 538 565 l 356 0 l 238 0 l 10 708 m 392 1022 l 521 1022 l 593 846 l 489 846 l 392 1022 z "},"x":{"ha":676,"x_min":18,"x_max":658,"o":"m 268 360 l 22 708 l 156 708 l 339 446 l 515 708 l 653 708 l 406 360 l 658 0 l 521 0 l 336 272 l 156 0 l 18 0 l 268 360 z "},"y":{"ha":717,"x_min":11,"x_max":706,"o":"m 304 44 l 11 708 l 139 708 l 361 182 l 364 182 l 578 708 l 706 708 l 268 -300 l 146 -300 l 304 44 z "},"ý":{"ha":717,"x_min":11,"x_max":706,"o":"m 304 44 l 11 708 l 139 708 l 361 182 l 364 182 l 578 708 l 706 708 l 268 -300 l 146 -300 l 304 44 m 379 1022 l 508 1022 l 410 846 l 307 846 l 379 1022 z "},"ŷ":{"ha":717,"x_min":11,"x_max":706,"o":"m 304 44 l 11 708 l 139 708 l 361 182 l 364 182 l 578 708 l 706 708 l 268 -300 l 146 -300 l 304 44 m 165 860 l 307 1022 l 411 1022 l 553 860 l 553 853 l 439 853 l 364 942 l 353 942 l 279 853 l 165 853 l 165 860 z "},"ÿ":{"ha":717,"x_min":11,"x_max":706,"o":"m 304 44 l 11 708 l 139 708 l 361 182 l 364 182 l 578 708 l 706 708 l 268 -300 l 146 -300 l 304 44 m 244 868 q 192 890 214 868 q 169 943 169 913 q 192 996 169 975 q 244 1017 214 1017 q 297 996 276 1017 q 318 943 318 975 q 297 890 318 913 q 244 868 276 868 m 472 868 q 420 890 443 868 q 397 943 397 913 q 419 996 397 975 q 472 1017 442 1017 q 526 996 504 1017 q 547 943 547 975 q 526 890 547 913 q 472 868 504 868 z "},"ỳ":{"ha":717,"x_min":11,"x_max":706,"o":"m 304 44 l 11 708 l 139 708 l 361 182 l 364 182 l 578 708 l 706 708 l 268 -300 l 146 -300 l 304 44 m 210 1022 l 339 1022 l 411 846 l 307 846 l 210 1022 z "},"z":{"ha":676,"x_min":51,"x_max":625,"o":"m 51 101 l 469 601 l 64 601 l 64 708 l 614 708 l 614 607 l 194 107 l 625 107 l 625 0 l 51 0 l 51 101 z "},"ź":{"ha":676,"x_min":51,"x_max":625,"o":"m 51 101 l 469 601 l 64 601 l 64 708 l 614 708 l 614 607 l 194 107 l 625 107 l 625 0 l 51 0 l 51 101 m 360 1022 l 489 1022 l 390 846 l 288 846 l 360 1022 z "},"ž":{"ha":676,"x_min":51,"x_max":625,"o":"m 51 101 l 469 601 l 64 601 l 64 708 l 614 708 l 614 607 l 194 107 l 625 107 l 625 0 l 51 0 l 51 101 m 146 1015 l 146 1022 l 260 1022 l 333 933 l 344 933 l 419 1022 l 533 1022 l 533 1015 l 392 853 l 288 853 l 146 1015 z "},"ż":{"ha":676,"x_min":51,"x_max":625,"o":"m 51 101 l 469 601 l 64 601 l 64 708 l 614 708 l 614 607 l 194 107 l 625 107 l 625 0 l 51 0 l 51 101 m 339 868 q 286 890 308 868 q 264 943 264 913 q 286 996 264 975 q 339 1017 308 1017 q 392 996 371 1017 q 413 943 413 975 q 392 890 413 913 q 339 868 371 868 z "},"ª":{"ha":658,"x_min":57,"x_max":601,"o":"m 288 378 q 172 403 225 378 q 88 476 119 429 q 57 582 57 522 q 133 732 57 678 q 319 786 208 786 q 420 773 374 786 q 493 744 467 760 l 493 767 q 447 876 493 836 q 335 917 401 917 q 244 898 281 917 q 185 838 208 879 l 85 886 q 173 978 111 940 q 331 1017 235 1017 q 467 987 406 1017 q 565 899 529 957 q 601 761 601 842 l 601 397 l 493 397 l 493 489 l 488 489 q 408 409 460 440 q 288 378 356 378 m 304 475 q 395 499 351 475 q 466 563 439 522 q 493 656 493 604 q 476 668 492 657 q 422 690 460 679 q 343 700 385 700 q 216 666 258 700 q 174 576 174 632 q 213 501 174 528 q 304 475 251 475 z "},"º":{"ha":715,"x_min":51,"x_max":665,"o":"m 358 378 q 201 419 271 378 q 91 534 131 461 q 51 697 51 607 q 91 860 51 788 q 201 975 131 933 q 358 1017 271 1017 q 516 975 446 1017 q 626 860 586 933 q 665 697 665 788 q 626 534 665 607 q 516 419 586 461 q 358 378 446 378 m 358 481 q 453 508 408 481 q 524 585 497 536 q 551 697 551 635 q 524 809 551 760 q 453 886 497 858 q 358 914 408 914 q 263 886 307 914 q 191 809 218 858 q 164 697 164 760 q 191 585 164 635 q 263 508 218 536 q 358 481 307 481 z "},"А":{"ha":929,"x_min":21,"x_max":908,"o":"m 397 994 l 531 994 l 908 0 l 779 0 l 679 274 l 250 274 l 150 0 l 21 0 l 397 994 m 639 385 l 507 743 l 467 850 l 461 850 l 422 743 l 290 385 l 639 385 z "},"Б":{"ha":842,"x_min":111,"x_max":786,"o":"m 111 994 l 685 994 l 685 882 l 228 882 l 228 571 l 488 571 q 635 535 567 571 q 745 435 704 500 q 786 286 786 369 q 745 137 786 201 q 635 36 704 72 q 488 0 567 0 l 111 0 l 111 994 m 493 113 q 584 138 544 113 q 645 202 624 163 q 667 285 667 242 q 645 368 667 328 q 584 433 624 408 q 493 458 544 458 l 228 458 l 228 113 l 493 113 z "},"В":{"ha":842,"x_min":111,"x_max":786,"o":"m 111 994 l 468 994 q 609 960 543 994 q 714 864 675 925 q 753 726 753 803 q 716 600 753 654 q 617 517 679 546 l 617 511 q 739 425 692 486 q 786 282 786 364 q 745 137 786 201 q 635 36 704 72 q 488 0 567 0 l 111 0 l 111 994 m 468 564 q 556 588 518 564 q 615 648 594 611 q 636 724 636 685 q 616 798 636 761 q 559 858 596 835 q 474 882 522 882 l 228 882 l 228 564 l 468 564 m 494 113 q 584 138 544 113 q 645 202 624 163 q 667 283 667 242 q 644 365 667 325 q 582 428 622 404 q 489 453 542 453 l 228 453 l 228 113 l 494 113 z "},"Г":{"ha":700,"x_min":111,"x_max":664,"o":"m 111 994 l 664 994 l 664 882 l 228 882 l 228 0 l 111 0 l 111 994 z "},"Ѓ":{"ha":700,"x_min":111,"x_max":664,"o":"m 111 994 l 664 994 l 664 882 l 228 882 l 228 0 l 111 0 l 111 994 m 408 1250 l 538 1250 l 439 1074 l 336 1074 l 408 1250 z "},"Ґ":{"ha":701,"x_min":97,"x_max":668,"o":"m 97 994 l 556 994 l 556 1147 l 668 1147 l 668 882 l 215 882 l 215 0 l 97 0 l 97 994 z "},"Д":{"ha":1083,"x_min":64,"x_max":1019,"o":"m 1019 -211 l 907 -211 l 907 0 l 176 0 l 176 -211 l 64 -211 l 64 113 l 154 113 q 256 333 222 181 q 289 665 289 486 l 289 994 l 914 994 l 914 113 l 1019 113 l 1019 -211 m 796 113 l 796 882 l 404 882 l 404 649 q 374 341 404 479 q 288 113 344 203 l 796 113 z "},"Е":{"ha":765,"x_min":111,"x_max":686,"o":"m 111 994 l 686 994 l 686 882 l 228 882 l 228 553 l 642 553 l 642 442 l 228 442 l 228 113 l 686 113 l 686 0 l 111 0 l 111 994 z "},"Ѐ":{"ha":765,"x_min":111,"x_max":686,"o":"m 111 994 l 686 994 l 686 882 l 228 882 l 228 553 l 642 553 l 642 442 l 228 442 l 228 113 l 686 113 l 686 0 l 111 0 l 111 994 m 250 1250 l 379 1250 l 451 1074 l 347 1074 l 250 1250 z "},"Ё":{"ha":765,"x_min":111,"x_max":686,"o":"m 111 994 l 686 994 l 686 882 l 228 882 l 228 553 l 642 553 l 642 442 l 228 442 l 228 113 l 686 113 l 686 0 l 111 0 l 111 994 m 285 1096 q 232 1119 254 1096 q 210 1171 210 1142 q 232 1224 210 1203 q 285 1246 254 1246 q 338 1224 317 1246 q 358 1171 358 1203 q 338 1118 358 1140 q 285 1096 317 1096 m 513 1096 q 460 1119 483 1096 q 438 1171 438 1142 q 460 1224 438 1203 q 513 1246 482 1246 q 566 1224 544 1246 q 588 1171 588 1203 q 566 1118 588 1140 q 513 1096 544 1096 z "},"Ж":{"ha":1240,"x_min":8,"x_max":1233,"o":"m 8 6 l 433 486 l 22 989 l 22 994 l 165 994 l 556 508 l 561 508 l 561 994 l 679 994 l 679 508 l 685 508 l 1075 994 l 1218 994 l 1218 989 l 808 486 l 1233 6 l 1233 0 l 1081 0 l 685 458 l 679 458 l 679 0 l 561 0 l 561 458 l 556 458 l 160 0 l 8 0 l 8 6 z "},"З":{"ha":764,"x_min":58,"x_max":706,"o":"m 379 -22 q 251 3 315 -22 q 134 85 186 29 q 58 228 82 142 l 167 272 q 247 140 189 189 q 379 90 304 90 q 482 115 435 90 q 558 183 529 140 q 586 281 586 226 q 557 374 586 332 q 479 441 528 417 q 374 465 431 465 l 289 465 l 289 576 l 365 576 q 499 622 446 576 q 553 743 553 668 q 500 859 553 814 q 371 904 447 904 q 254 861 301 904 q 190 764 207 818 l 81 810 q 181 953 107 889 q 371 1017 256 1017 q 526 981 457 1017 q 633 883 594 946 q 672 744 672 821 q 634 610 672 663 q 536 529 596 557 l 536 524 q 658 431 611 493 q 706 281 706 369 q 663 124 706 193 q 544 17 619 56 q 379 -22 469 -22 z "},"И":{"ha":972,"x_min":111,"x_max":861,"o":"m 111 994 l 228 994 l 228 394 l 222 203 l 228 203 l 717 994 l 861 994 l 861 0 l 743 0 l 743 638 l 749 829 l 743 829 l 233 0 l 111 0 l 111 994 z "},"Й":{"ha":972,"x_min":111,"x_max":861,"o":"m 111 994 l 228 994 l 228 394 l 222 203 l 228 203 l 717 994 l 861 994 l 861 0 l 743 0 l 743 638 l 749 829 l 743 829 l 233 0 l 111 0 l 111 994 m 488 1072 q 401 1095 442 1072 q 335 1158 360 1118 q 310 1244 310 1197 l 406 1244 q 428 1185 406 1210 q 488 1161 450 1161 q 544 1185 522 1161 q 567 1244 567 1210 l 661 1244 q 637 1158 661 1197 q 572 1095 613 1118 q 488 1072 532 1072 z "},"Ѝ":{"ha":972,"x_min":111,"x_max":861,"o":"m 111 994 l 228 994 l 228 394 l 222 203 l 228 203 l 717 994 l 861 994 l 861 0 l 743 0 l 743 638 l 749 829 l 743 829 l 233 0 l 111 0 l 111 994 m 338 1250 l 467 1250 l 539 1074 l 435 1074 l 338 1250 z "},"К":{"ha":853,"x_min":111,"x_max":844,"o":"m 111 994 l 228 994 l 228 499 l 233 499 l 671 994 l 825 994 l 825 989 l 372 486 l 844 6 l 844 0 l 681 0 l 233 468 l 228 468 l 228 0 l 111 0 l 111 994 z "},"Ќ":{"ha":853,"x_min":111,"x_max":844,"o":"m 111 994 l 228 994 l 228 499 l 233 499 l 671 994 l 825 994 l 825 989 l 372 486 l 844 6 l 844 0 l 681 0 l 233 468 l 228 468 l 228 0 l 111 0 l 111 994 m 446 1250 l 575 1250 l 476 1074 l 374 1074 l 446 1250 z "},"Л":{"ha":989,"x_min":36,"x_max":879,"o":"m 82 -11 q 36 -7 57 -11 l 36 108 q 82 101 54 101 q 171 136 136 101 q 209 234 199 167 q 219 439 219 301 l 219 994 l 879 994 l 879 0 l 761 0 l 761 882 l 338 882 l 338 389 q 316 171 338 250 q 250 47 294 92 q 82 -11 192 -11 z "},"М":{"ha":1203,"x_min":111,"x_max":1092,"o":"m 111 994 l 282 994 l 599 179 l 604 179 l 921 994 l 1092 994 l 1092 0 l 975 0 l 975 632 l 981 821 l 975 821 l 650 0 l 553 0 l 228 821 l 222 821 l 228 632 l 228 0 l 111 0 l 111 994 z "},"Н":{"ha":969,"x_min":111,"x_max":858,"o":"m 111 994 l 228 994 l 228 564 l 742 564 l 742 994 l 858 994 l 858 0 l 742 0 l 742 453 l 228 453 l 228 0 l 111 0 l 111 994 z "},"О":{"ha":1146,"x_min":63,"x_max":1083,"o":"m 572 -22 q 313 47 429 -22 q 129 235 196 117 q 63 497 63 354 q 129 758 63 639 q 313 947 196 878 q 572 1017 429 1017 q 832 947 715 1017 q 1016 758 949 878 q 1083 497 1083 639 q 1017 235 1083 354 q 833 47 950 117 q 572 -22 715 -22 m 572 90 q 769 142 679 90 q 910 287 858 194 q 963 497 963 379 q 910 708 963 615 q 769 852 858 800 q 572 904 679 904 q 376 852 465 904 q 235 707 288 800 q 182 497 182 614 q 235 288 182 381 q 376 142 288 194 q 572 90 465 90 z "},"П":{"ha":936,"x_min":111,"x_max":825,"o":"m 111 994 l 825 994 l 825 0 l 708 0 l 708 882 l 228 882 l 228 0 l 111 0 l 111 994 z "},"Р":{"ha":800,"x_min":111,"x_max":756,"o":"m 111 994 l 446 994 q 600 957 529 994 q 713 852 671 919 q 756 700 756 785 q 713 548 756 615 q 600 443 671 481 q 446 406 529 406 l 228 406 l 228 0 l 111 0 l 111 994 m 449 518 q 547 544 504 518 q 613 613 589 571 q 636 700 636 654 q 613 788 636 746 q 547 856 589 829 q 449 882 504 882 l 228 882 l 228 518 l 449 518 z "},"С":{"ha":1029,"x_min":63,"x_max":971,"o":"m 578 -22 q 315 46 433 -22 q 130 233 197 114 q 63 497 63 351 q 130 762 63 643 q 315 949 197 881 q 578 1017 433 1017 q 781 974 689 1017 q 942 854 874 932 l 857 772 q 733 872 800 840 q 578 904 665 904 q 379 853 469 904 q 235 710 289 803 q 182 497 182 618 q 235 284 182 376 q 379 141 289 192 q 578 90 469 90 q 885 239 758 90 l 971 156 q 800 26 901 74 q 578 -22 699 -22 z "},"Т":{"ha":749,"x_min":36,"x_max":711,"o":"m 315 882 l 36 882 l 36 994 l 711 994 l 711 882 l 433 882 l 433 0 l 315 0 l 315 882 z "},"У":{"ha":835,"x_min":21,"x_max":814,"o":"m 206 -22 q 128 -4 160 -22 l 128 114 q 208 90 175 90 q 275 108 251 90 q 322 174 299 125 l 357 250 l 21 994 l 158 994 l 415 388 l 421 388 l 676 994 l 814 994 l 433 156 q 337 22 392 65 q 206 -22 282 -22 z "},"Ў":{"ha":835,"x_min":21,"x_max":814,"o":"m 206 -22 q 128 -4 160 -22 l 128 114 q 208 90 175 90 q 275 108 251 90 q 322 174 299 125 l 357 250 l 21 994 l 158 994 l 415 388 l 421 388 l 676 994 l 814 994 l 433 156 q 337 22 392 65 q 206 -22 282 -22 m 418 1072 q 331 1095 372 1072 q 265 1158 290 1118 q 240 1244 240 1197 l 336 1244 q 358 1185 336 1210 q 418 1161 381 1161 q 475 1185 453 1161 q 497 1244 497 1210 l 592 1244 q 567 1158 592 1197 q 503 1095 543 1118 q 418 1072 463 1072 z "},"Ф":{"ha":1131,"x_min":63,"x_max":1068,"o":"m 1068 497 q 1013 294 1068 385 q 856 147 957 203 q 625 81 756 92 l 625 -67 l 507 -67 l 507 81 q 276 147 378 90 q 119 294 175 203 q 63 497 63 385 q 119 701 63 610 q 276 848 175 792 q 507 914 378 904 l 507 1061 l 625 1061 l 625 914 q 856 847 756 903 q 1013 701 957 792 q 1068 497 1068 610 m 182 497 q 270 288 182 371 q 507 190 358 206 l 507 804 q 270 706 358 789 q 182 497 182 624 m 625 190 q 861 288 774 206 q 949 497 949 371 q 861 706 949 624 q 625 804 774 789 l 625 190 z "},"Х":{"ha":876,"x_min":25,"x_max":851,"o":"m 361 514 l 44 994 l 186 994 l 435 607 l 440 607 l 692 994 l 832 994 l 515 514 l 851 0 l 713 0 l 440 415 l 435 415 l 164 0 l 25 0 l 361 514 z "},"Ч":{"ha":829,"x_min":65,"x_max":747,"o":"m 629 456 q 522 385 581 410 q 382 361 464 361 q 222 397 294 361 q 108 499 150 432 q 65 658 65 567 l 65 994 l 186 994 l 186 679 q 245 526 186 581 q 404 472 304 472 q 533 503 475 472 q 629 589 590 535 l 629 994 l 747 994 l 747 0 l 629 0 l 629 456 z "},"Ц":{"ha":967,"x_min":111,"x_max":903,"o":"m 785 0 l 111 0 l 111 994 l 228 994 l 228 113 l 675 113 l 675 994 l 792 994 l 792 113 l 903 113 l 903 -233 l 785 -233 l 785 0 z "},"Ш":{"ha":1261,"x_min":111,"x_max":1150,"o":"m 111 994 l 228 994 l 228 113 l 572 113 l 572 994 l 689 994 l 689 113 l 1033 113 l 1033 994 l 1150 994 l 1150 0 l 111 0 l 111 994 z "},"Щ":{"ha":1325,"x_min":111,"x_max":1261,"o":"m 1143 0 l 111 0 l 111 994 l 228 994 l 228 113 l 572 113 l 572 994 l 689 994 l 689 113 l 1033 113 l 1033 994 l 1150 994 l 1150 113 l 1261 113 l 1261 -233 l 1143 -233 l 1143 0 z "},"Џ":{"ha":936,"x_min":111,"x_max":825,"o":"m 411 0 l 111 0 l 111 994 l 228 994 l 228 113 l 708 113 l 708 994 l 825 994 l 825 0 l 525 0 l 525 -211 l 411 -211 l 411 0 z "},"Ь":{"ha":851,"x_min":111,"x_max":796,"o":"m 111 994 l 228 994 l 228 626 l 468 626 q 631 588 556 626 q 751 477 706 549 q 796 314 796 406 q 751 149 796 221 q 631 39 706 78 q 468 0 556 0 l 111 0 l 111 994 m 475 113 q 581 141 535 113 q 651 216 626 169 q 676 313 676 263 q 651 409 676 363 q 581 485 626 456 q 475 514 535 514 l 228 514 l 228 113 l 475 113 z "},"Ъ":{"ha":1038,"x_min":36,"x_max":983,"o":"m 297 882 l 36 882 l 36 994 l 415 994 l 415 626 l 654 626 q 817 588 742 626 q 938 477 893 549 q 983 314 983 406 q 938 149 983 221 q 817 39 893 78 q 654 0 742 0 l 297 0 l 297 882 m 663 113 q 768 141 722 113 q 838 216 814 169 q 863 313 863 263 q 838 409 863 363 q 768 485 814 456 q 663 514 722 514 l 415 514 l 415 113 l 663 113 z "},"Ы":{"ha":1138,"x_min":111,"x_max":1026,"o":"m 111 994 l 228 994 l 228 626 l 468 626 q 631 588 556 626 q 751 477 706 549 q 796 314 796 406 q 751 149 796 221 q 631 39 706 78 q 468 0 556 0 l 111 0 l 111 994 m 910 994 l 1026 994 l 1026 0 l 910 0 l 910 994 m 475 113 q 581 141 535 113 q 651 216 626 169 q 676 313 676 263 q 651 409 676 363 q 581 485 626 456 q 475 514 535 514 l 228 514 l 228 113 l 475 113 z "},"Љ":{"ha":1488,"x_min":36,"x_max":1432,"o":"m 82 -11 q 36 -7 57 -11 l 36 108 q 82 101 54 101 q 171 136 136 101 q 209 234 199 167 q 219 439 219 301 l 219 994 l 879 994 l 879 569 l 1132 569 q 1281 535 1213 569 q 1391 435 1350 500 q 1432 286 1432 371 q 1391 136 1432 201 q 1281 35 1350 71 q 1132 0 1213 0 l 761 0 l 761 882 l 338 882 l 338 389 q 316 171 338 250 q 250 47 294 92 q 82 -11 192 -11 m 1138 113 q 1229 137 1189 113 q 1291 201 1269 161 q 1313 285 1313 240 q 1291 369 1313 329 q 1230 434 1269 410 q 1138 458 1190 458 l 879 458 l 879 113 l 1138 113 z "},"Њ":{"ha":1411,"x_min":111,"x_max":1357,"o":"m 111 994 l 228 994 l 228 569 l 686 569 l 686 994 l 803 994 l 803 569 l 1056 569 q 1206 535 1136 569 q 1316 435 1275 500 q 1357 286 1357 371 q 1316 136 1357 201 q 1206 35 1275 71 q 1056 0 1136 0 l 686 0 l 686 458 l 228 458 l 228 0 l 111 0 l 111 994 m 1061 113 q 1154 137 1114 113 q 1216 201 1194 161 q 1238 285 1238 240 q 1216 369 1238 329 q 1154 434 1194 410 q 1061 458 1114 458 l 803 458 l 803 113 l 1061 113 z "},"Ѕ":{"ha":779,"x_min":42,"x_max":717,"o":"m 389 -22 q 175 49 272 -22 q 42 247 78 119 l 154 293 q 242 147 178 204 q 392 90 306 90 q 538 137 478 90 q 597 264 597 183 q 547 378 597 333 q 381 463 496 424 l 318 485 q 146 583 213 522 q 79 753 79 644 q 118 884 79 824 q 226 981 157 944 q 382 1017 296 1017 q 532 985 468 1017 q 634 907 596 953 q 688 817 672 861 l 576 769 q 513 863 563 821 q 383 904 464 904 q 253 861 307 904 q 199 753 199 818 q 244 658 199 694 q 383 589 290 621 l 449 567 q 646 452 575 521 q 717 265 717 383 q 667 104 717 169 q 543 8 618 39 q 389 -22 468 -22 z "},"Є":{"ha":1024,"x_min":63,"x_max":965,"o":"m 965 156 q 796 26 897 74 q 572 -22 694 -22 q 313 46 429 -22 q 129 233 196 114 q 63 497 63 351 q 129 762 63 643 q 313 949 196 881 q 572 1017 429 1017 q 777 974 685 1017 q 936 854 869 932 l 853 772 q 572 904 747 904 q 388 861 474 904 q 248 738 303 818 q 181 553 193 658 l 647 553 l 647 442 l 181 442 q 248 256 193 336 q 388 133 303 176 q 572 90 474 90 q 744 129 667 90 q 882 238 822 168 l 965 156 z "},"Э":{"ha":1024,"x_min":58,"x_max":961,"o":"m 451 1017 q 711 949 594 1017 q 894 762 828 881 q 961 497 961 643 q 894 233 961 351 q 711 46 828 114 q 451 -22 594 -22 q 228 26 329 -22 q 58 156 126 74 l 143 238 q 451 90 268 90 q 635 133 550 90 q 776 256 721 176 q 843 442 831 336 l 376 442 l 376 553 l 843 553 q 776 738 831 658 q 635 861 721 818 q 451 904 550 904 q 171 772 278 904 l 88 854 q 248 975 156 933 q 451 1017 340 1017 z "},"І":{"ha":339,"x_min":111,"x_max":228,"o":"m 111 994 l 228 994 l 228 0 l 111 0 l 111 994 z "},"Ї":{"ha":339,"x_min":-3,"x_max":343,"o":"m 65 1121 q 18 1142 39 1121 q -3 1189 -3 1163 q 17 1238 -3 1218 q 65 1257 38 1257 q 114 1238 94 1257 q 133 1189 133 1218 q 114 1141 133 1161 q 65 1121 94 1121 m 274 1121 q 226 1142 247 1121 q 206 1189 206 1163 q 226 1237 206 1217 q 274 1257 247 1257 q 324 1238 304 1257 q 343 1189 343 1218 q 323 1141 343 1161 q 274 1121 303 1121 m 111 994 l 228 994 l 228 0 l 111 0 l 111 994 z "},"Ј":{"ha":736,"x_min":36,"x_max":642,"o":"m 343 -22 q 151 38 233 -22 q 36 208 69 99 l 147 254 q 343 90 197 90 q 474 147 425 90 q 524 297 524 204 l 524 994 l 642 994 l 642 307 q 603 128 642 203 q 498 16 565 54 q 343 -22 431 -22 z "},"Ћ":{"ha":1040,"x_min":36,"x_max":960,"o":"m 303 882 l 36 882 l 36 994 l 690 994 l 690 882 l 419 882 l 419 604 l 414 507 l 419 507 q 665 608 514 608 q 813 572 746 608 q 920 469 881 536 q 960 311 960 401 l 960 0 l 840 0 l 840 290 q 788 443 840 389 q 639 497 736 497 q 515 467 569 497 q 419 382 460 438 l 419 0 l 303 0 l 303 882 z "},"Ю":{"ha":1506,"x_min":111,"x_max":1443,"o":"m 933 1017 q 1193 947 1076 1017 q 1376 758 1310 878 q 1443 497 1443 639 q 1376 235 1443 354 q 1193 47 1310 117 q 933 -22 1076 -22 q 685 40 797 -22 q 503 211 572 103 q 425 453 435 319 l 228 453 l 228 0 l 111 0 l 111 994 l 228 994 l 228 564 l 428 564 q 513 794 443 690 q 692 957 582 897 q 933 1017 801 1017 m 933 90 q 1130 142 1040 90 q 1272 287 1219 194 q 1324 497 1324 379 q 1272 708 1324 615 q 1130 852 1219 800 q 933 904 1040 904 q 738 852 826 904 q 596 707 649 800 q 543 497 543 614 q 596 288 543 381 q 738 142 649 194 q 933 90 826 90 z "},"Я":{"ha":807,"x_min":13,"x_max":696,"o":"m 13 6 l 293 413 l 290 417 q 169 471 224 431 q 83 571 114 511 q 51 700 51 631 q 94 852 51 785 q 207 957 136 919 q 360 994 278 994 l 696 994 l 696 0 l 579 0 l 579 406 l 422 406 l 151 0 l 13 0 l 13 6 m 579 515 l 579 882 l 358 882 q 260 856 303 882 q 194 788 218 829 q 171 700 171 746 q 198 605 171 647 q 270 539 225 563 q 368 515 315 515 l 579 515 z "},"Ђ":{"ha":1043,"x_min":36,"x_max":994,"o":"m 303 882 l 36 882 l 36 994 l 690 994 l 690 882 l 419 882 l 419 604 l 414 507 l 419 507 q 678 608 521 608 q 833 570 760 608 q 950 461 906 532 q 994 299 994 390 q 955 139 994 206 q 848 37 915 72 q 701 0 781 1 l 667 0 l 667 113 l 701 113 q 828 165 782 113 q 875 299 875 218 q 848 399 875 354 q 771 471 821 444 q 656 497 721 497 q 519 467 579 497 q 419 382 460 436 l 419 0 l 303 0 l 303 882 z "},"Ү":{"ha":826,"x_min":21,"x_max":806,"o":"m 357 460 l 21 994 l 158 994 l 413 578 l 418 578 l 668 994 l 806 994 l 475 460 l 475 0 l 357 0 l 357 460 z "},"Ұ":{"ha":826,"x_min":21,"x_max":806,"o":"m 357 388 l 110 388 l 110 479 l 344 479 l 21 994 l 158 994 l 413 578 l 418 578 l 668 994 l 806 994 l 486 479 l 721 479 l 721 388 l 474 388 l 474 0 l 357 0 l 357 388 z "},"а":{"ha":738,"x_min":47,"x_max":661,"o":"m 314 -22 q 175 8 236 -22 q 81 92 114 39 q 47 214 47 146 q 132 390 47 326 q 346 453 217 453 q 465 439 410 453 q 549 407 519 425 l 549 450 q 493 577 549 529 q 353 625 438 625 q 243 599 293 625 q 164 528 193 574 l 75 594 q 190 694 117 658 q 351 731 263 731 q 578 655 496 731 q 661 449 661 579 l 661 0 l 549 0 l 549 101 l 543 101 q 451 14 513 50 q 314 -22 390 -22 m 325 82 q 436 113 385 82 q 518 194 488 143 q 549 307 549 246 q 467 343 515 329 q 364 357 418 357 q 217 317 267 357 q 168 213 168 276 q 213 118 168 154 q 325 82 257 82 z "},"б":{"ha":858,"x_min":85,"x_max":811,"o":"m 449 -22 q 263 27 344 -22 q 133 178 181 76 q 85 433 85 281 q 119 700 85 600 q 213 861 153 800 q 338 941 265 913 q 499 969 411 969 q 578 974 551 969 q 617 989 606 979 q 636 1018 629 999 l 753 1018 q 677 895 733 928 q 506 863 621 863 q 378 844 425 863 q 296 790 331 825 q 206 590 221 715 l 211 590 q 316 690 250 650 q 476 731 382 731 q 649 681 572 731 q 768 544 725 631 q 811 354 811 458 q 765 163 811 249 q 635 27 718 76 q 449 -22 553 -22 m 449 85 q 570 117 514 85 q 660 211 626 150 q 694 354 694 272 q 660 497 694 436 q 570 591 626 558 q 449 624 514 624 q 328 591 383 624 q 239 497 272 558 q 206 354 206 436 q 239 213 206 274 q 328 118 272 151 q 449 85 383 85 z "},"в":{"ha":707,"x_min":88,"x_max":664,"o":"m 88 708 l 428 708 q 535 684 486 708 q 611 617 583 660 q 639 522 639 574 q 615 428 639 469 q 550 367 590 388 l 550 361 q 633 300 601 340 q 664 206 664 260 q 635 99 664 146 q 556 26 606 53 q 447 0 506 0 l 88 0 l 88 708 m 422 410 q 494 437 465 410 q 522 506 522 464 q 493 574 522 547 q 421 601 464 601 l 206 601 l 206 410 l 422 410 m 438 107 q 513 137 482 107 q 544 211 544 167 q 513 284 544 254 q 438 314 482 314 l 206 314 l 206 107 l 438 107 z "},"г":{"ha":599,"x_min":88,"x_max":560,"o":"m 88 708 l 560 708 l 560 601 l 206 601 l 206 0 l 88 0 l 88 708 z "},"ѓ":{"ha":599,"x_min":88,"x_max":560,"o":"m 88 708 l 560 708 l 560 601 l 206 601 l 206 0 l 88 0 l 88 708 m 344 1022 l 474 1022 l 375 846 l 272 846 l 344 1022 z "},"ґ":{"ha":575,"x_min":76,"x_max":543,"o":"m 76 708 l 431 708 l 431 842 l 543 842 l 543 601 l 193 601 l 193 0 l 76 0 l 76 708 z "},"д":{"ha":906,"x_min":44,"x_max":861,"o":"m 44 107 l 118 107 q 174 235 151 142 q 197 435 197 329 l 197 708 l 756 708 l 756 107 l 861 107 l 861 -211 l 749 -211 l 749 0 l 157 0 l 157 -211 l 44 -211 l 44 107 m 639 107 l 639 601 l 313 601 l 313 425 q 294 252 313 335 q 242 107 275 169 l 639 107 z "},"е":{"ha":782,"x_min":50,"x_max":732,"o":"m 403 -22 q 221 26 301 -22 q 95 160 140 75 q 50 353 50 246 q 92 542 50 456 q 213 679 135 628 q 393 731 290 731 q 574 684 497 731 q 691 556 650 638 q 732 368 732 474 q 728 332 732 347 l 168 332 q 207 196 172 251 q 295 113 242 140 q 407 85 349 85 q 617 213 543 85 l 717 164 q 592 28 671 78 q 403 -22 514 -22 m 607 429 q 582 518 604 474 q 512 593 560 563 q 392 624 464 624 q 251 570 308 624 q 175 429 193 517 l 607 429 z "},"ѐ":{"ha":782,"x_min":50,"x_max":732,"o":"m 403 -22 q 221 26 301 -22 q 95 160 140 75 q 50 353 50 246 q 92 542 50 456 q 213 679 135 628 q 393 731 290 731 q 574 684 497 731 q 691 556 650 638 q 732 368 732 474 q 728 332 732 347 l 168 332 q 207 196 172 251 q 295 113 242 140 q 407 85 349 85 q 617 213 543 85 l 717 164 q 592 28 671 78 q 403 -22 514 -22 m 607 429 q 582 518 604 474 q 512 593 560 563 q 392 624 464 624 q 251 570 308 624 q 175 429 193 517 l 607 429 m 246 1022 l 375 1022 l 447 846 l 343 846 l 246 1022 z "},"ё":{"ha":782,"x_min":50,"x_max":732,"o":"m 403 -22 q 221 26 301 -22 q 95 160 140 75 q 50 353 50 246 q 92 542 50 456 q 213 679 135 628 q 393 731 290 731 q 574 684 497 731 q 691 556 650 638 q 732 368 732 474 q 728 332 732 347 l 168 332 q 207 196 172 251 q 295 113 242 140 q 407 85 349 85 q 617 213 543 85 l 717 164 q 592 28 671 78 q 403 -22 514 -22 m 607 429 q 582 518 604 474 q 512 593 560 563 q 392 624 464 624 q 251 570 308 624 q 175 429 193 517 l 607 429 m 281 868 q 228 890 250 868 q 206 943 206 913 q 228 996 206 975 q 281 1017 250 1017 q 333 996 313 1017 q 354 943 354 975 q 333 890 354 913 q 281 868 313 868 m 508 868 q 456 890 479 868 q 433 943 433 913 q 456 996 433 975 q 508 1017 478 1017 q 562 996 540 1017 q 583 943 583 975 q 562 890 583 913 q 508 868 540 868 z "},"ж":{"ha":1025,"x_min":6,"x_max":1021,"o":"m 6 6 l 325 375 l 21 703 l 21 708 l 168 708 l 449 394 l 454 394 l 454 708 l 571 708 l 571 394 l 576 394 l 858 708 l 1006 708 l 1006 703 l 700 375 l 1021 6 l 1021 0 l 874 0 l 576 350 l 571 350 l 571 0 l 454 0 l 454 350 l 449 350 l 153 0 l 6 0 l 6 6 z "},"з":{"ha":696,"x_min":65,"x_max":636,"o":"m 346 -22 q 192 11 265 -22 q 65 104 118 44 l 146 182 q 240 109 192 133 q 346 85 288 85 q 471 117 425 85 q 517 200 517 149 q 478 279 517 246 q 376 313 440 313 l 264 313 l 264 407 l 368 407 q 458 436 421 407 q 494 517 494 465 q 455 592 494 560 q 349 624 415 624 q 254 606 296 624 q 171 544 213 588 l 93 621 q 208 704 146 678 q 349 731 269 731 q 481 703 421 731 q 576 629 542 676 q 611 524 611 582 q 585 427 611 467 q 514 368 558 388 l 514 363 q 603 295 571 339 q 636 194 636 251 q 557 37 636 96 q 346 -22 478 -22 z "},"и":{"ha":792,"x_min":88,"x_max":704,"o":"m 88 708 l 206 708 l 206 310 l 200 176 l 206 176 l 588 708 l 704 708 l 704 0 l 588 0 l 588 399 l 593 532 l 588 532 l 206 0 l 88 0 l 88 708 z "},"й":{"ha":792,"x_min":88,"x_max":704,"o":"m 88 708 l 206 708 l 206 310 l 200 176 l 206 176 l 588 708 l 704 708 l 704 0 l 588 0 l 588 399 l 593 532 l 588 532 l 206 0 l 88 0 l 88 708 m 397 843 q 310 866 351 843 q 244 928 269 889 q 219 1017 219 968 l 315 1017 q 338 957 315 982 q 397 932 360 932 q 454 957 432 932 q 476 1017 476 982 l 571 1017 q 547 928 571 968 q 482 866 522 889 q 397 843 442 843 z "},"ѝ":{"ha":792,"x_min":88,"x_max":704,"o":"m 88 708 l 206 708 l 206 310 l 200 176 l 206 176 l 588 708 l 704 708 l 704 0 l 588 0 l 588 399 l 593 532 l 588 532 l 206 0 l 88 0 l 88 708 m 247 1022 l 376 1022 l 449 846 l 344 846 l 247 1022 z "},"к":{"ha":678,"x_min":88,"x_max":672,"o":"m 88 708 l 206 708 l 206 388 l 211 388 l 510 708 l 658 708 l 658 703 l 339 372 l 672 6 l 672 0 l 528 0 l 211 357 l 206 357 l 206 0 l 88 0 l 88 708 z "},"ќ":{"ha":678,"x_min":88,"x_max":672,"o":"m 88 708 l 206 708 l 206 388 l 211 388 l 510 708 l 658 708 l 658 703 l 339 372 l 672 6 l 672 0 l 528 0 l 211 357 l 206 357 l 206 0 l 88 0 l 88 708 m 358 1022 l 488 1022 l 389 846 l 286 846 l 358 1022 z "},"л":{"ha":867,"x_min":67,"x_max":778,"o":"m 131 -11 q 67 0 94 -11 l 68 106 q 115 99 90 99 q 164 120 147 99 q 187 191 181 142 q 193 329 193 240 l 193 708 l 778 708 l 778 0 l 661 0 l 661 601 l 308 601 l 308 292 q 260 58 308 128 q 131 -11 211 -11 z "},"м":{"ha":958,"x_min":86,"x_max":872,"o":"m 86 708 l 226 708 l 476 232 l 481 232 l 731 708 l 872 708 l 872 0 l 754 0 l 754 390 l 760 524 l 754 524 l 521 89 l 438 89 l 203 524 l 197 524 l 203 390 l 203 0 l 86 0 l 86 708 z "},"н":{"ha":796,"x_min":88,"x_max":708,"o":"m 88 708 l 206 708 l 206 411 l 592 411 l 592 708 l 708 708 l 708 0 l 592 0 l 592 301 l 206 301 l 206 0 l 88 0 l 88 708 z "},"о":{"ha":828,"x_min":50,"x_max":778,"o":"m 414 -22 q 226 28 310 -22 q 97 164 143 78 q 50 354 50 250 q 97 544 50 458 q 226 681 143 631 q 414 731 310 731 q 601 681 518 731 q 731 544 685 631 q 778 354 778 458 q 731 164 778 250 q 601 28 685 78 q 414 -22 518 -22 m 414 85 q 535 117 479 85 q 626 211 592 150 q 660 354 660 272 q 626 497 660 436 q 535 591 592 558 q 414 624 479 624 q 292 591 349 624 q 201 497 235 558 q 167 354 167 436 q 201 211 167 272 q 292 117 235 150 q 414 85 349 85 z "},"п":{"ha":772,"x_min":88,"x_max":685,"o":"m 88 708 l 685 708 l 685 0 l 567 0 l 567 601 l 206 601 l 206 0 l 88 0 l 88 708 z "},"р":{"ha":831,"x_min":82,"x_max":781,"o":"m 82 708 l 194 708 l 194 603 l 200 603 q 297 694 232 657 q 442 731 361 731 q 614 682 536 731 q 736 547 692 633 q 781 354 781 461 q 736 160 781 246 q 614 26 692 75 q 442 -22 536 -22 q 297 15 361 -22 q 200 104 232 51 l 194 104 l 200 7 l 200 -300 l 82 -300 l 82 708 m 428 85 q 543 118 489 85 q 630 213 597 151 q 663 354 663 275 q 630 495 663 433 q 543 590 597 557 q 428 624 489 624 q 313 590 367 624 q 226 496 258 557 q 194 354 194 435 q 226 213 194 274 q 313 118 258 151 q 428 85 367 85 z "},"с":{"ha":758,"x_min":50,"x_max":718,"o":"m 408 -22 q 224 27 306 -22 q 96 162 142 76 q 50 354 50 247 q 96 547 50 461 q 224 682 142 633 q 408 731 306 731 q 602 677 524 731 q 714 535 681 624 l 607 490 q 528 590 581 556 q 403 624 476 624 q 286 590 340 624 q 199 494 232 556 q 167 354 167 433 q 199 214 167 275 q 286 119 232 153 q 403 85 340 85 q 532 119 478 85 q 613 218 586 154 l 718 174 q 602 32 682 86 q 408 -22 522 -22 z "},"т":{"ha":656,"x_min":39,"x_max":618,"o":"m 269 601 l 39 601 l 39 708 l 618 708 l 618 601 l 386 601 l 386 0 l 269 0 l 269 601 z "},"у":{"ha":717,"x_min":11,"x_max":706,"o":"m 304 44 l 11 708 l 139 708 l 361 182 l 364 182 l 578 708 l 706 708 l 268 -300 l 146 -300 l 304 44 z "},"ў":{"ha":717,"x_min":11,"x_max":706,"o":"m 304 44 l 11 708 l 139 708 l 361 182 l 364 182 l 578 708 l 706 708 l 268 -300 l 146 -300 l 304 44 m 360 843 q 273 866 314 843 q 207 928 232 889 q 182 1017 182 968 l 278 1017 q 300 957 278 982 q 360 932 322 932 q 417 957 394 932 q 439 1017 439 982 l 533 1017 q 509 928 533 968 q 444 866 485 889 q 360 843 404 843 z "},"ф":{"ha":1071,"x_min":63,"x_max":1008,"o":"m 1008 354 q 956 165 1008 246 q 809 37 903 83 q 594 -19 715 -10 l 594 -300 l 476 -300 l 476 -19 q 262 37 356 -10 q 115 165 168 83 q 63 354 63 246 q 115 542 63 461 q 262 671 168 624 q 476 728 356 718 l 476 994 l 594 994 l 594 728 q 809 671 715 718 q 956 542 903 624 q 1008 354 1008 461 m 594 90 q 815 172 733 103 q 896 354 896 240 q 815 536 896 467 q 594 618 733 606 l 594 90 m 175 354 q 256 172 175 242 q 476 90 338 103 l 476 618 q 256 536 338 606 q 175 354 175 467 z "},"х":{"ha":676,"x_min":18,"x_max":658,"o":"m 268 360 l 22 708 l 156 708 l 339 446 l 515 708 l 653 708 l 406 360 l 658 0 l 521 0 l 336 272 l 156 0 l 18 0 l 268 360 z "},"ч":{"ha":719,"x_min":53,"x_max":632,"o":"m 514 271 q 322 219 450 219 q 181 253 243 219 q 86 347 119 288 q 53 479 53 407 l 53 708 l 172 708 l 172 481 q 219 368 172 410 q 340 326 265 326 q 442 342 397 326 q 514 386 488 357 l 514 708 l 632 708 l 632 0 l 514 0 l 514 271 z "},"ц":{"ha":835,"x_min":88,"x_max":790,"o":"m 678 0 l 88 0 l 88 708 l 206 708 l 206 107 l 567 107 l 567 708 l 685 708 l 685 107 l 790 107 l 790 -211 l 678 -211 l 678 0 z "},"ш":{"ha":1094,"x_min":88,"x_max":981,"o":"m 88 708 l 206 708 l 206 107 l 475 107 l 475 708 l 593 708 l 593 107 l 863 107 l 863 708 l 981 708 l 981 0 l 88 0 l 88 708 z "},"щ":{"ha":1163,"x_min":88,"x_max":1085,"o":"m 972 0 l 88 0 l 88 708 l 206 708 l 206 107 l 475 107 l 475 708 l 593 708 l 593 107 l 863 107 l 863 708 l 981 708 l 981 107 l 1085 107 l 1085 -211 l 972 -211 l 972 0 z "},"џ":{"ha":800,"x_min":88,"x_max":713,"o":"m 343 0 l 88 0 l 88 708 l 206 708 l 206 107 l 594 107 l 594 708 l 713 708 l 713 0 l 457 0 l 457 -211 l 343 -211 l 343 0 z "},"ь":{"ha":708,"x_min":88,"x_max":669,"o":"m 88 708 l 206 708 l 206 460 l 425 460 q 549 431 493 460 q 638 349 606 401 q 669 229 669 296 q 638 110 669 163 q 549 29 606 58 q 425 0 493 0 l 88 0 l 88 708 m 422 107 q 513 141 475 107 q 550 229 550 175 q 513 318 550 283 q 422 353 475 353 l 206 353 l 206 107 l 422 107 z "},"ъ":{"ha":825,"x_min":39,"x_max":786,"o":"m 204 601 l 39 601 l 39 708 l 321 708 l 321 460 l 542 460 q 666 431 610 460 q 754 349 722 401 q 786 229 786 296 q 754 110 786 163 q 666 29 722 58 q 542 0 610 0 l 204 0 l 204 601 m 539 107 q 629 141 592 107 q 667 229 667 175 q 629 318 667 283 q 539 353 592 353 l 321 353 l 321 107 l 539 107 z "},"ы":{"ha":985,"x_min":88,"x_max":896,"o":"m 88 708 l 206 708 l 206 460 l 425 460 q 549 431 493 460 q 638 349 606 401 q 669 229 669 296 q 638 110 669 163 q 549 29 606 58 q 425 0 493 0 l 88 0 l 88 708 m 779 708 l 896 708 l 896 0 l 779 0 l 779 708 m 422 107 q 513 141 475 107 q 550 229 550 175 q 513 318 550 283 q 422 353 475 353 l 206 353 l 206 107 l 422 107 z "},"љ":{"ha":1276,"x_min":67,"x_max":1235,"o":"m 131 -11 q 67 0 94 -11 l 68 106 q 115 99 90 99 q 164 120 147 99 q 187 191 181 142 q 193 329 193 240 l 193 708 l 778 708 l 778 446 l 1001 446 q 1117 417 1064 446 q 1203 338 1171 389 q 1235 222 1235 288 q 1203 108 1235 158 q 1117 28 1171 57 q 1001 0 1064 0 l 661 0 l 661 601 l 308 601 l 308 292 q 260 58 308 128 q 131 -11 211 -11 m 994 107 q 1081 139 1047 107 q 1114 222 1114 171 q 1081 307 1114 275 q 994 339 1047 339 l 778 339 l 778 107 l 994 107 z "},"њ":{"ha":1156,"x_min":88,"x_max":1114,"o":"m 88 708 l 206 708 l 206 446 l 540 446 l 540 708 l 657 708 l 657 446 l 881 446 q 997 417 943 446 q 1082 338 1050 389 q 1114 222 1114 288 q 1082 108 1114 158 q 997 28 1050 57 q 881 0 943 0 l 540 0 l 540 339 l 206 339 l 206 0 l 88 0 l 88 708 m 872 107 q 960 139 926 107 q 993 222 993 171 q 960 307 993 275 q 872 339 926 339 l 657 339 l 657 107 l 872 107 z "},"ѕ":{"ha":657,"x_min":36,"x_max":615,"o":"m 335 -22 q 144 31 221 -22 q 36 168 68 85 l 142 215 q 220 117 168 151 q 335 82 272 82 q 449 109 401 82 q 496 186 496 136 q 458 258 496 231 q 340 304 421 285 l 254 326 q 115 397 169 347 q 61 526 61 447 q 98 634 61 588 q 196 706 135 681 q 328 731 257 731 q 494 690 421 731 q 597 578 567 650 l 494 531 q 326 625 447 625 q 224 598 268 625 q 181 529 181 571 q 211 466 181 490 q 303 426 242 442 l 406 400 q 563 322 510 374 q 615 194 615 269 q 578 80 615 129 q 476 4 540 31 q 335 -22 413 -22 z "},"є":{"ha":744,"x_min":46,"x_max":707,"o":"m 403 -22 q 219 27 300 -22 q 92 162 138 76 q 46 354 46 247 q 92 547 46 461 q 219 682 138 633 q 403 731 300 731 q 593 678 518 731 q 703 535 668 625 l 596 490 q 397 624 543 624 q 290 597 340 624 q 204 519 239 569 q 160 401 169 468 l 476 401 l 476 306 l 160 306 q 243 145 175 206 q 397 85 311 85 q 524 119 472 85 q 601 218 575 153 l 707 174 q 593 31 669 85 q 403 -22 517 -22 z "},"э":{"ha":750,"x_min":40,"x_max":701,"o":"m 344 -22 q 153 32 231 -22 q 40 174 76 86 l 144 218 q 350 85 201 85 q 504 145 436 85 q 588 306 572 206 l 269 306 l 269 401 l 588 401 q 543 519 578 468 q 458 597 508 569 q 350 624 407 624 q 151 490 204 624 l 44 535 q 154 678 79 625 q 344 731 229 731 q 528 682 447 731 q 656 547 610 633 q 701 354 701 461 q 656 162 701 247 q 528 27 610 76 q 344 -22 447 -22 z "},"і":{"ha":314,"x_min":72,"x_max":242,"o":"m 157 839 q 97 864 122 839 q 72 924 72 889 q 97 983 72 958 q 157 1007 122 1007 q 217 983 192 1007 q 242 924 242 958 q 217 864 242 889 q 157 839 193 839 m 99 708 l 215 708 l 215 0 l 99 0 l 99 708 z "},"ї":{"ha":314,"x_min":-10,"x_max":324,"o":"m 65 868 q 13 890 35 868 q -10 943 -10 913 q 13 996 -10 975 q 65 1017 35 1017 q 118 996 97 1017 q 139 943 139 975 q 118 890 139 913 q 65 868 97 868 m 250 868 q 197 890 219 868 q 175 943 175 913 q 197 996 175 975 q 250 1017 219 1017 q 303 996 282 1017 q 324 943 324 975 q 303 890 324 913 q 250 868 282 868 m 99 708 l 215 708 l 215 0 l 99 0 l 99 708 z "},"ј":{"ha":314,"x_min":-42,"x_max":242,"o":"m 157 839 q 97 864 122 839 q 72 924 72 889 q 97 983 72 958 q 157 1007 122 1007 q 217 983 192 1007 q 242 924 242 958 q 217 864 242 889 q 157 839 193 839 m 21 -314 q -42 -304 -12 -314 l -42 -192 q -14 -203 -31 -199 q 17 -207 3 -207 q 79 -180 60 -207 q 99 -100 99 -153 l 99 708 l 215 708 l 215 -100 q 164 -260 215 -207 q 21 -314 113 -314 z "},"ћ":{"ha":783,"x_min":-1,"x_max":701,"o":"m 436 731 q 633 655 565 731 q 701 454 701 579 l 701 0 l 583 0 l 583 436 q 535 578 583 532 q 408 624 486 624 q 306 590 353 624 q 233 504 260 557 q 206 394 206 451 l 206 0 l 88 0 l 88 810 l -1 810 l -1 903 l 88 903 l 88 994 l 206 994 l 206 903 l 418 903 l 418 810 l 206 810 l 206 701 l 200 604 l 206 604 q 298 694 235 658 q 436 731 361 731 z "},"ю":{"ha":1115,"x_min":90,"x_max":1065,"o":"m 701 -22 q 528 19 606 -22 q 402 134 451 61 q 342 299 353 207 l 208 299 l 208 0 l 90 0 l 90 708 l 208 708 l 208 408 l 342 408 q 401 574 353 500 q 528 689 450 647 q 701 731 606 731 q 889 681 806 731 q 1019 544 972 631 q 1065 354 1065 458 q 1019 164 1065 250 q 889 28 972 78 q 701 -22 806 -22 m 701 85 q 824 117 767 85 q 915 211 881 150 q 949 354 949 272 q 915 497 949 436 q 824 591 881 558 q 701 624 767 624 q 580 591 636 624 q 490 497 524 558 q 456 354 456 436 q 490 211 456 272 q 580 117 524 150 q 701 85 636 85 z "},"я":{"ha":694,"x_min":4,"x_max":607,"o":"m 4 7 l 210 263 l 206 265 q 85 342 132 283 q 39 478 39 400 q 71 595 39 542 q 158 678 103 649 q 278 708 213 708 l 607 708 l 607 0 l 490 0 l 490 256 l 335 256 l 139 0 l 4 0 l 4 7 m 490 357 l 490 601 l 285 601 q 195 567 232 601 q 158 479 158 532 q 195 391 158 425 q 285 357 232 357 l 490 357 z "},"ђ":{"ha":783,"x_min":-1,"x_max":701,"o":"m 506 -314 q 443 -304 472 -314 l 443 -192 q 471 -203 454 -199 q 501 -207 488 -207 q 564 -180 544 -207 q 583 -100 583 -153 l 583 436 q 535 578 583 532 q 408 624 486 624 q 306 590 353 624 q 233 504 260 557 q 206 394 206 451 l 206 0 l 88 0 l 88 810 l -1 810 l -1 903 l 88 903 l 88 994 l 206 994 l 206 903 l 418 903 l 418 810 l 206 810 l 206 701 l 200 604 l 206 604 q 298 694 235 658 q 436 731 361 731 q 633 655 565 731 q 701 454 701 579 l 701 -100 q 649 -260 701 -207 q 506 -314 597 -314 z "},"ү":{"ha":713,"x_min":10,"x_max":704,"o":"m 296 0 l 10 708 l 138 708 l 356 129 l 579 708 l 704 708 l 414 0 l 414 -300 l 296 -300 l 296 0 z "},"ұ":{"ha":713,"x_min":10,"x_max":704,"o":"m 296 0 l 92 0 l 92 90 l 261 90 l 240 135 l 10 708 l 138 708 l 356 129 l 579 708 l 704 708 l 468 136 l 449 90 l 617 90 l 617 0 l 414 0 l 414 -300 l 296 -300 l 296 0 z "},"Α":{"ha":929,"x_min":21,"x_max":908,"o":"m 397 994 l 531 994 l 908 0 l 779 0 l 679 274 l 250 274 l 150 0 l 21 0 l 397 994 m 639 385 l 507 743 l 467 850 l 461 850 l 422 743 l 290 385 l 639 385 z "},"Β":{"ha":842,"x_min":111,"x_max":786,"o":"m 111 994 l 468 994 q 609 960 543 994 q 714 864 675 925 q 753 726 753 803 q 716 600 753 654 q 617 517 679 546 l 617 511 q 739 425 692 486 q 786 282 786 364 q 745 137 786 201 q 635 36 704 72 q 488 0 567 0 l 111 0 l 111 994 m 468 564 q 556 588 518 564 q 615 648 594 611 q 636 724 636 685 q 616 798 636 761 q 559 858 596 835 q 474 882 522 882 l 228 882 l 228 564 l 468 564 m 494 113 q 584 138 544 113 q 645 202 624 163 q 667 283 667 242 q 644 365 667 325 q 582 428 622 404 q 489 453 542 453 l 228 453 l 228 113 l 494 113 z "},"Γ":{"ha":700,"x_min":111,"x_max":664,"o":"m 111 994 l 664 994 l 664 882 l 228 882 l 228 0 l 111 0 l 111 994 z "},"Δ":{"ha":915,"x_min":21,"x_max":894,"o":"m 390 994 l 524 994 l 894 0 l 21 0 l 390 994 m 725 113 l 460 850 l 454 850 l 190 113 l 725 113 z "},"Ε":{"ha":765,"x_min":111,"x_max":686,"o":"m 111 994 l 686 994 l 686 882 l 228 882 l 228 553 l 642 553 l 642 442 l 228 442 l 228 113 l 686 113 l 686 0 l 111 0 l 111 994 z "},"Ζ":{"ha":794,"x_min":53,"x_max":731,"o":"m 53 124 l 589 882 l 75 882 l 75 994 l 725 994 l 725 871 l 189 113 l 731 113 l 731 0 l 53 0 l 53 124 z "},"Η":{"ha":969,"x_min":111,"x_max":858,"o":"m 111 994 l 228 994 l 228 564 l 742 564 l 742 994 l 858 994 l 858 0 l 742 0 l 742 453 l 228 453 l 228 0 l 111 0 l 111 994 z "},"Θ":{"ha":1164,"x_min":63,"x_max":1083,"o":"m 572 -22 q 313 47 429 -22 q 129 235 196 117 q 63 497 63 354 q 129 758 63 639 q 313 947 196 878 q 572 1017 429 1017 q 832 947 715 1017 q 1016 758 949 878 q 1083 497 1083 639 q 1017 235 1083 354 q 833 47 950 117 q 572 -22 715 -22 m 572 90 q 769 142 679 90 q 910 287 858 194 q 963 497 963 379 q 910 708 963 615 q 769 852 858 800 q 572 904 679 904 q 376 852 465 904 q 235 707 288 800 q 182 497 182 614 q 235 288 182 381 q 376 142 288 194 q 572 90 465 90 m 361 553 l 804 553 l 804 442 l 361 442 l 361 553 z "},"Ι":{"ha":339,"x_min":111,"x_max":228,"o":"m 111 994 l 228 994 l 228 0 l 111 0 l 111 994 z "},"Κ":{"ha":853,"x_min":111,"x_max":844,"o":"m 111 994 l 228 994 l 228 499 l 233 499 l 671 994 l 825 994 l 825 989 l 372 486 l 844 6 l 844 0 l 681 0 l 233 468 l 228 468 l 228 0 l 111 0 l 111 994 z "},"Λ":{"ha":903,"x_min":21,"x_max":882,"o":"m 385 994 l 518 994 l 882 0 l 751 0 l 488 754 l 454 850 l 449 850 l 415 754 l 150 0 l 21 0 l 385 994 z "},"Μ":{"ha":1203,"x_min":111,"x_max":1092,"o":"m 111 994 l 282 994 l 599 179 l 604 179 l 921 994 l 1092 994 l 1092 0 l 975 0 l 975 632 l 981 821 l 975 821 l 650 0 l 553 0 l 228 821 l 222 821 l 228 632 l 228 0 l 111 0 l 111 994 z "},"Ν":{"ha":983,"x_min":111,"x_max":872,"o":"m 111 994 l 256 994 l 754 203 l 760 203 l 754 394 l 754 994 l 872 994 l 872 0 l 750 0 l 228 829 l 222 829 l 228 638 l 228 0 l 111 0 l 111 994 z "},"Ξ":{"ha":689,"x_min":46,"x_max":643,"o":"m 46 994 l 643 994 l 643 882 l 46 882 l 46 994 m 90 553 l 599 553 l 599 442 l 90 442 l 90 553 m 46 113 l 643 113 l 643 0 l 46 0 l 46 113 z "},"Ο":{"ha":1146,"x_min":63,"x_max":1083,"o":"m 572 -22 q 313 47 429 -22 q 129 235 196 117 q 63 497 63 354 q 129 758 63 639 q 313 947 196 878 q 572 1017 429 1017 q 832 947 715 1017 q 1016 758 949 878 q 1083 497 1083 639 q 1017 235 1083 354 q 833 47 950 117 q 572 -22 715 -22 m 572 90 q 769 142 679 90 q 910 287 858 194 q 963 497 963 379 q 910 708 963 615 q 769 852 858 800 q 572 904 679 904 q 376 852 465 904 q 235 707 288 800 q 182 497 182 614 q 235 288 182 381 q 376 142 288 194 q 572 90 465 90 z "},"Π":{"ha":936,"x_min":111,"x_max":825,"o":"m 111 994 l 825 994 l 825 0 l 708 0 l 708 882 l 228 882 l 228 0 l 111 0 l 111 994 z "},"Ρ":{"ha":800,"x_min":111,"x_max":756,"o":"m 111 994 l 446 994 q 600 957 529 994 q 713 852 671 919 q 756 700 756 785 q 713 548 756 615 q 600 443 671 481 q 446 406 529 406 l 228 406 l 228 0 l 111 0 l 111 994 m 449 518 q 547 544 504 518 q 613 613 589 571 q 636 700 636 654 q 613 788 636 746 q 547 856 589 829 q 449 882 504 882 l 228 882 l 228 518 l 449 518 z "},"Σ":{"ha":710,"x_min":68,"x_max":667,"o":"m 68 122 l 369 508 l 68 872 l 68 994 l 667 994 l 667 882 l 197 882 l 511 508 l 197 113 l 667 113 l 667 0 l 68 0 l 68 122 z "},"Τ":{"ha":749,"x_min":36,"x_max":711,"o":"m 315 882 l 36 882 l 36 994 l 711 994 l 711 882 l 433 882 l 433 0 l 315 0 l 315 882 z "},"Υ":{"ha":826,"x_min":21,"x_max":806,"o":"m 357 460 l 21 994 l 158 994 l 413 578 l 418 578 l 668 994 l 806 994 l 475 460 l 475 0 l 357 0 l 357 460 z "},"Φ":{"ha":1108,"x_min":63,"x_max":1046,"o":"m 1046 497 q 992 295 1046 386 q 841 148 939 204 q 614 81 743 92 l 614 0 l 496 0 l 496 81 q 269 148 368 92 q 117 295 171 204 q 63 497 63 386 q 117 699 63 608 q 269 847 171 790 q 496 914 368 903 l 496 994 l 614 994 l 614 914 q 841 847 743 903 q 992 699 939 790 q 1046 497 1046 608 m 182 497 q 266 289 182 372 q 496 190 350 206 l 496 804 q 266 707 350 790 q 182 497 182 624 m 614 190 q 843 290 760 206 q 926 497 926 374 q 843 706 926 622 q 614 804 760 789 l 614 190 z "},"Χ":{"ha":876,"x_min":25,"x_max":851,"o":"m 361 514 l 44 994 l 186 994 l 435 607 l 440 607 l 692 994 l 832 994 l 515 514 l 851 0 l 713 0 l 440 415 l 435 415 l 164 0 l 25 0 l 361 514 z "},"Ψ":{"ha":1038,"x_min":89,"x_max":949,"o":"m 460 217 q 272 265 357 217 q 138 405 188 314 q 89 618 89 496 l 89 994 l 207 994 l 207 613 q 273 407 207 485 q 460 329 339 329 l 460 994 l 578 994 l 578 329 q 765 407 699 329 q 831 613 831 485 l 831 994 l 949 994 l 949 618 q 899 405 949 496 q 765 265 850 314 q 578 217 681 217 l 578 0 l 460 0 l 460 217 z "},"Ω":{"ha":1114,"x_min":71,"x_max":1043,"o":"m 93 113 l 322 113 l 322 118 q 138 288 204 179 q 71 532 71 396 q 135 772 71 660 q 310 950 199 883 q 557 1017 421 1017 q 805 950 693 1017 q 980 772 917 883 q 1043 532 1043 661 q 976 288 1043 396 q 792 118 910 179 l 792 113 l 1022 113 l 1022 0 l 639 0 l 639 167 q 785 238 719 186 q 887 365 850 289 q 924 532 924 442 q 874 721 924 636 q 741 855 825 806 q 557 904 657 904 q 373 855 457 904 q 240 721 289 806 q 190 532 190 636 q 227 365 190 442 q 329 238 264 289 q 475 167 394 186 l 475 0 l 93 0 l 93 113 z "},"Ά":{"ha":929,"x_min":21,"x_max":908,"o":"m 156 994 l 285 994 l 186 818 l 83 818 l 156 994 m 397 994 l 531 994 l 908 0 l 779 0 l 679 274 l 250 274 l 150 0 l 21 0 l 397 994 m 639 385 l 507 743 l 467 850 l 461 850 l 422 743 l 290 385 l 639 385 z "},"Έ":{"ha":811,"x_min":-104,"x_max":732,"o":"m -32 994 l 97 994 l -1 818 l -104 818 l -32 994 m 157 994 l 732 994 l 732 882 l 274 882 l 274 553 l 688 553 l 688 442 l 274 442 l 274 113 l 732 113 l 732 0 l 157 0 l 157 994 z "},"Ή":{"ha":1015,"x_min":-104,"x_max":904,"o":"m -32 994 l 97 994 l -1 818 l -104 818 l -32 994 m 157 994 l 274 994 l 274 564 l 788 564 l 788 994 l 904 994 l 904 0 l 788 0 l 788 453 l 274 453 l 274 0 l 157 0 l 157 994 z "},"Ί":{"ha":386,"x_min":-104,"x_max":274,"o":"m -32 994 l 97 994 l -1 818 l -104 818 l -32 994 m 157 994 l 274 994 l 274 0 l 157 0 l 157 994 z "},"Ό":{"ha":1088,"x_min":-100,"x_max":1026,"o":"m -28 994 l 101 994 l 3 818 l -100 818 l -28 994 m 515 -22 q 256 47 372 -22 q 72 235 139 117 q 6 497 6 354 q 72 758 6 639 q 256 947 139 878 q 515 1017 372 1017 q 775 947 658 1017 q 959 758 892 878 q 1026 497 1026 639 q 960 235 1026 354 q 776 47 893 117 q 515 -22 658 -22 m 515 90 q 712 142 622 90 q 853 287 801 194 q 906 497 906 379 q 853 708 906 615 q 712 852 801 800 q 515 904 622 904 q 319 852 408 904 q 178 707 231 800 q 125 497 125 614 q 178 288 125 381 q 319 142 231 194 q 515 90 408 90 z "},"Ύ":{"ha":922,"x_min":-104,"x_max":901,"o":"m -32 994 l 97 994 l -1 818 l -104 818 l -32 994 m 453 460 l 117 994 l 254 994 l 508 578 l 514 578 l 764 994 l 901 994 l 571 460 l 571 0 l 453 0 l 453 460 z "},"Ώ":{"ha":1053,"x_min":-100,"x_max":982,"o":"m -28 994 l 101 994 l 3 818 l -100 818 l -28 994 m 32 113 l 261 113 l 261 118 q 76 288 143 179 q 10 532 10 396 q 74 772 10 660 q 249 950 138 883 q 496 1017 360 1017 q 744 950 632 1017 q 919 772 856 883 q 982 532 982 661 q 915 288 982 396 q 731 118 849 179 l 731 113 l 961 113 l 961 0 l 578 0 l 578 167 q 724 238 658 186 q 826 365 789 289 q 863 532 863 442 q 813 721 863 636 q 680 855 764 806 q 496 904 596 904 q 312 855 396 904 q 178 721 228 806 q 129 532 129 636 q 166 365 129 442 q 268 238 203 289 q 414 167 333 186 l 414 0 l 32 0 l 32 113 z "},"Ϊ":{"ha":339,"x_min":-1,"x_max":340,"o":"m 67 1118 q 19 1139 40 1118 q -1 1186 -1 1160 q 19 1235 -1 1215 q 67 1256 40 1256 q 117 1236 97 1256 q 136 1186 136 1217 q 116 1138 136 1158 q 67 1118 96 1118 m 272 1118 q 225 1139 246 1118 q 204 1186 204 1160 q 224 1235 204 1215 q 272 1256 244 1256 q 321 1236 301 1256 q 340 1186 340 1217 q 321 1138 340 1158 q 272 1118 301 1118 m 111 994 l 228 994 l 228 0 l 111 0 l 111 994 z "},"Ϋ":{"ha":826,"x_min":21,"x_max":806,"o":"m 357 460 l 21 994 l 158 994 l 413 578 l 418 578 l 668 994 l 806 994 l 475 460 l 475 0 l 357 0 l 357 460 m 301 1096 q 249 1119 271 1096 q 226 1171 226 1142 q 249 1224 226 1203 q 301 1246 271 1246 q 354 1224 333 1246 q 375 1171 375 1203 q 354 1118 375 1140 q 301 1096 333 1096 m 529 1096 q 477 1119 500 1096 q 454 1171 454 1142 q 476 1224 454 1203 q 529 1246 499 1246 q 583 1224 561 1246 q 604 1171 604 1203 q 583 1118 604 1140 q 529 1096 561 1096 z "},"ϒ":{"ha":838,"x_min":29,"x_max":808,"o":"m 360 438 l 179 804 q 134 872 154 853 q 88 892 114 892 q 29 871 61 892 l 29 992 q 62 1001 42 997 q 99 1006 82 1006 q 197 975 157 1006 q 278 856 236 944 l 415 556 l 421 556 l 560 856 q 641 975 601 944 q 739 1006 681 1006 q 776 1001 756 1006 q 808 992 796 997 l 808 871 q 749 892 778 892 q 703 872 722 892 q 658 804 683 853 l 478 438 l 478 0 l 360 0 l 360 438 z "},"ϓ":{"ha":949,"x_min":-99,"x_max":921,"o":"m -26 994 l 103 994 l 4 818 l -99 818 l -26 994 m 472 438 l 292 804 q 247 872 267 853 q 200 892 226 892 q 142 871 174 892 l 142 992 q 174 1001 154 997 q 211 1006 194 1006 q 309 975 269 1006 q 390 856 349 944 l 528 556 l 533 556 l 672 856 q 753 975 714 944 q 851 1006 793 1006 q 888 1001 868 1006 q 921 992 908 997 l 921 871 q 861 892 890 892 q 815 872 835 892 q 771 804 796 853 l 590 438 l 590 0 l 472 0 l 472 438 z "},"ϔ":{"ha":838,"x_min":29,"x_max":808,"o":"m 360 438 l 179 804 q 134 872 154 853 q 88 892 114 892 q 29 871 61 892 l 29 992 q 62 1001 42 997 q 99 1006 82 1006 q 197 975 157 1006 q 278 856 236 944 l 415 556 l 421 556 l 560 856 q 641 975 601 944 q 739 1006 681 1006 q 776 1001 756 1006 q 808 992 796 997 l 808 871 q 749 892 778 892 q 703 872 722 892 q 658 804 683 853 l 478 438 l 478 0 l 360 0 l 360 438 m 306 1096 q 253 1119 275 1096 q 231 1171 231 1142 q 253 1224 231 1203 q 306 1246 275 1246 q 358 1224 338 1246 q 379 1171 379 1203 q 358 1118 379 1140 q 306 1096 338 1096 m 533 1096 q 481 1119 504 1096 q 458 1171 458 1142 q 481 1224 458 1203 q 533 1246 503 1246 q 587 1224 565 1246 q 608 1171 608 1203 q 587 1118 608 1140 q 533 1096 565 1096 z "},"α":{"ha":832,"x_min":50,"x_max":749,"o":"m 388 -22 q 216 26 293 -22 q 94 160 139 75 q 50 354 50 246 q 94 547 50 461 q 216 682 139 633 q 388 731 293 731 q 533 694 469 731 q 631 603 597 657 l 636 603 l 636 708 l 749 708 l 749 0 l 636 0 l 636 104 l 631 104 q 533 15 597 51 q 388 -22 469 -22 m 401 85 q 517 118 464 85 q 603 213 571 151 q 636 354 636 274 q 603 496 636 435 q 517 590 571 557 q 401 624 464 624 q 286 590 340 624 q 199 495 232 557 q 167 354 167 433 q 199 213 167 275 q 286 118 232 151 q 401 85 340 85 z "},"β":{"ha":793,"x_min":110,"x_max":738,"o":"m 110 717 q 144 871 110 803 q 246 978 179 939 q 404 1017 313 1017 q 553 982 488 1017 q 656 887 619 947 q 693 750 693 826 q 569 540 693 603 l 569 535 q 690 441 642 506 q 738 286 738 376 q 696 128 738 199 q 583 18 654 58 q 422 -22 511 -22 q 310 4 361 -22 q 229 78 260 31 l 224 78 l 229 -21 l 229 -300 l 110 -300 l 110 717 m 418 90 q 518 117 472 90 q 591 188 564 143 q 618 285 618 232 q 590 381 618 336 q 513 451 561 425 q 411 478 465 478 l 351 478 l 351 586 l 394 586 q 526 631 478 586 q 574 750 574 676 q 524 861 574 818 q 404 904 475 904 q 276 853 322 904 q 229 717 229 803 l 229 290 q 278 145 229 200 q 418 90 328 90 z "},"γ":{"ha":761,"x_min":11,"x_max":750,"o":"m 321 11 l 11 708 l 139 708 l 379 133 l 382 133 l 625 708 l 750 708 l 438 11 l 438 -300 l 321 -300 l 321 11 z "},"δ":{"ha":828,"x_min":50,"x_max":778,"o":"m 414 -22 q 226 28 310 -22 q 97 164 143 78 q 50 354 50 250 q 132 597 50 499 q 357 721 214 696 l 364 721 l 115 904 l 115 994 l 693 994 l 693 888 l 322 888 l 621 669 q 736 536 694 615 q 778 354 778 457 q 731 164 778 250 q 601 28 685 78 q 414 -22 518 -22 m 414 85 q 535 117 479 85 q 626 211 592 150 q 660 354 660 272 q 626 497 660 436 q 535 591 592 558 q 414 624 479 624 q 292 591 349 624 q 201 497 235 558 q 167 354 167 436 q 201 211 167 272 q 292 117 235 150 q 414 85 349 85 z "},"ε":{"ha":694,"x_min":60,"x_max":631,"o":"m 350 -22 q 140 37 219 -22 q 60 194 60 96 q 92 295 60 251 q 182 363 125 339 l 182 368 q 111 427 138 388 q 85 524 85 467 q 119 629 85 582 q 215 703 154 676 q 347 731 275 731 q 489 704 426 731 q 604 621 551 678 l 525 544 q 442 606 485 588 q 347 624 400 624 q 242 592 281 624 q 203 517 203 560 q 239 436 203 465 q 328 407 275 407 l 432 407 l 432 313 l 319 313 q 218 279 256 313 q 181 200 181 246 q 226 117 181 149 q 350 85 272 85 q 456 109 408 85 q 551 182 504 133 l 631 104 q 504 11 578 44 q 350 -22 431 -22 z "},"ζ":{"ha":688,"x_min":44,"x_max":643,"o":"m 456 -126 q 512 -108 492 -126 q 532 -62 532 -90 q 513 -17 532 -35 q 454 0 493 0 l 265 0 q 103 56 161 0 q 44 197 44 111 q 139 371 44 303 q 316 497 214 422 q 460 601 418 571 l 69 601 l 69 708 l 629 708 l 629 604 l 204 286 q 170 248 182 268 q 158 200 158 228 q 188 133 158 160 q 267 107 218 107 l 443 107 q 590 61 538 107 q 643 -62 643 15 q 590 -185 643 -137 q 456 -233 538 -233 l 456 -126 z "},"η":{"ha":779,"x_min":88,"x_max":697,"o":"m 579 435 q 532 578 579 532 q 403 624 485 624 q 301 592 346 624 q 231 508 256 560 q 206 399 206 456 l 206 0 l 88 0 l 88 708 l 200 708 l 200 604 l 206 604 q 299 694 235 657 q 435 731 363 731 q 629 656 561 731 q 697 453 697 581 l 697 -300 l 579 -300 l 579 435 z "},"θ":{"ha":924,"x_min":71,"x_max":831,"o":"m 450 -22 q 251 44 338 -22 q 117 223 164 110 q 71 475 71 336 q 117 727 71 614 q 250 906 164 840 q 450 972 336 972 q 650 906 564 972 q 783 727 736 840 q 831 475 831 614 q 783 223 831 336 q 649 44 736 110 q 450 -22 563 -22 m 707 546 q 624 773 692 686 q 450 860 556 860 q 278 773 346 860 q 194 546 210 686 l 707 546 m 450 90 q 584 138 526 90 q 674 267 642 185 q 710 454 706 350 l 192 454 q 228 267 196 350 q 317 138 260 185 q 450 90 375 90 z "},"ι":{"ha":314,"x_min":99,"x_max":215,"o":"m 99 708 l 215 708 l 215 0 l 99 0 l 99 708 z "},"κ":{"ha":678,"x_min":88,"x_max":672,"o":"m 88 708 l 206 708 l 206 388 l 211 388 l 510 708 l 658 708 l 658 703 l 339 372 l 672 6 l 672 0 l 528 0 l 211 357 l 206 357 l 206 0 l 88 0 l 88 708 z "},"λ":{"ha":694,"x_min":11,"x_max":683,"o":"m 293 636 l 135 981 l 256 981 l 683 0 l 556 0 l 351 499 l 349 499 l 139 0 l 11 0 l 293 636 z "},"μ":{"ha":779,"x_min":82,"x_max":692,"o":"m 82 708 l 200 708 l 200 285 q 247 133 200 182 q 369 85 293 85 q 476 117 429 85 q 548 201 522 149 q 574 310 574 253 l 574 708 l 692 708 l 692 0 l 579 0 l 579 103 l 574 103 q 481 13 542 49 q 344 -22 421 -22 q 265 -5 303 -22 q 200 40 226 13 l 194 40 l 200 -43 l 200 -300 l 82 -300 l 82 708 z "},"ν":{"ha":714,"x_min":10,"x_max":704,"o":"m 10 708 l 136 708 l 356 139 l 358 139 l 581 708 l 704 708 l 415 0 l 296 0 l 10 708 z "},"ξ":{"ha":733,"x_min":44,"x_max":689,"o":"m 501 -126 q 558 -108 538 -126 q 578 -62 578 -90 q 558 -17 578 -35 q 500 0 539 0 l 379 0 q 131 78 218 0 q 44 289 44 156 q 92 436 44 378 q 214 524 139 494 l 214 529 q 115 610 153 560 q 78 740 78 660 q 116 883 78 819 q 223 981 154 946 q 379 1017 292 1017 q 535 982 465 1017 q 665 879 606 947 l 585 800 q 491 880 539 856 q 379 904 443 904 q 249 858 300 904 q 197 742 197 813 q 249 621 197 665 q 385 576 301 576 l 519 576 l 519 467 l 369 467 q 222 416 281 467 q 164 288 164 365 q 221 159 164 206 q 378 113 278 113 l 489 113 q 635 65 582 113 q 689 -60 689 18 q 636 -185 689 -137 q 501 -233 583 -233 l 501 -126 z "},"ο":{"ha":828,"x_min":50,"x_max":778,"o":"m 414 -22 q 226 28 310 -22 q 97 164 143 78 q 50 354 50 250 q 97 544 50 458 q 226 681 143 631 q 414 731 310 731 q 601 681 518 731 q 731 544 685 631 q 778 354 778 458 q 731 164 778 250 q 601 28 685 78 q 414 -22 518 -22 m 414 85 q 535 117 479 85 q 626 211 592 150 q 660 354 660 272 q 626 497 660 436 q 535 591 592 558 q 414 624 479 624 q 292 591 349 624 q 201 497 235 558 q 167 354 167 436 q 201 211 167 272 q 292 117 235 150 q 414 85 349 85 z "},"π":{"ha":979,"x_min":32,"x_max":928,"o":"m 847 -11 q 699 44 756 -11 q 643 200 643 100 l 643 601 l 317 601 l 317 0 l 200 0 l 200 601 l 32 601 l 32 708 l 928 708 l 928 601 l 760 601 l 760 208 q 783 124 760 153 q 847 96 807 96 q 922 115 888 96 l 922 0 q 847 -11 885 -11 z "},"ρ":{"ha":833,"x_min":86,"x_max":783,"o":"m 86 357 q 131 549 86 464 q 254 683 175 635 q 433 731 333 731 q 615 682 535 731 q 739 548 694 633 q 783 354 783 463 q 739 160 783 246 q 617 26 694 75 q 446 -22 540 -22 q 301 15 365 -22 q 203 104 236 51 l 197 104 l 203 10 l 203 -301 l 86 -301 l 86 357 m 432 85 q 548 118 494 85 q 634 213 601 151 q 667 354 667 274 q 634 494 667 433 q 547 589 601 556 q 432 622 493 622 q 316 590 369 622 q 230 496 263 557 q 197 354 197 435 q 230 213 197 274 q 316 118 263 151 q 432 85 369 85 z "},"ς":{"ha":754,"x_min":50,"x_max":714,"o":"m 514 -149 q 572 -131 551 -149 q 593 -85 593 -112 q 574 -40 593 -57 q 517 -22 554 -22 l 443 -22 q 228 28 317 -22 q 94 163 139 78 q 50 354 50 249 q 96 547 50 461 q 223 682 142 633 q 407 731 304 731 q 602 677 524 731 q 714 535 681 624 l 607 490 q 528 590 581 556 q 403 624 476 624 q 286 590 340 624 q 199 494 232 556 q 167 354 167 433 q 200 217 167 278 q 294 120 233 156 q 439 85 356 85 l 506 85 q 653 39 600 85 q 706 -85 706 -7 q 652 -208 706 -161 q 514 -256 599 -256 l 514 -149 z "},"σ":{"ha":850,"x_min":50,"x_max":826,"o":"m 403 -22 q 218 25 299 -22 q 94 156 138 72 q 50 343 50 239 q 94 531 50 447 q 218 661 138 614 q 403 708 299 708 l 826 708 l 826 601 l 743 601 l 646 607 l 646 601 q 756 343 756 494 q 712 156 756 239 q 588 25 668 72 q 403 -22 507 -22 m 403 85 q 520 115 467 85 q 606 203 574 144 q 638 343 638 263 q 606 483 638 424 q 520 572 574 542 q 403 601 467 601 q 285 571 339 601 q 199 482 232 540 q 167 343 167 424 q 199 204 167 263 q 285 115 232 146 q 403 85 339 85 z "},"τ":{"ha":656,"x_min":39,"x_max":618,"o":"m 269 601 l 39 601 l 39 708 l 618 708 l 618 601 l 386 601 l 386 0 l 269 0 l 269 601 z "},"υ":{"ha":778,"x_min":82,"x_max":728,"o":"m 388 -22 q 233 19 303 -22 q 122 134 163 61 q 82 296 82 207 l 82 708 l 200 708 l 200 319 q 254 146 200 207 q 396 85 308 85 q 501 114 451 85 q 580 200 550 143 q 610 335 610 257 q 576 517 610 419 q 481 708 542 614 l 613 708 q 695 529 663 626 q 728 335 728 432 q 680 138 728 218 q 555 17 632 57 q 388 -22 478 -22 z "},"φ":{"ha":1028,"x_min":71,"x_max":957,"o":"m 957 365 q 908 181 957 264 q 770 44 858 97 q 569 -19 682 -8 l 569 -300 l 453 -300 l 453 -19 q 258 44 344 -8 q 121 179 171 96 q 71 365 71 263 q 321 731 71 599 l 372 626 q 244 524 296 589 q 192 365 192 460 q 265 174 192 246 q 453 89 339 103 l 453 525 q 507 677 453 624 q 647 731 561 731 q 804 682 733 731 q 916 549 875 633 q 957 365 957 465 m 569 89 q 761 175 686 104 q 836 365 836 246 q 812 495 836 438 q 746 585 788 553 q 656 618 704 618 q 592 592 615 618 q 569 521 569 565 l 569 89 z "},"χ":{"ha":676,"x_min":18,"x_max":658,"o":"m 268 360 l 22 708 l 156 708 l 339 446 l 515 708 l 653 708 l 406 360 l 658 0 l 521 0 l 336 272 l 156 0 l 18 0 l 268 360 z "},"ψ":{"ha":981,"x_min":82,"x_max":932,"o":"m 443 -22 l 439 -22 q 252 23 333 -22 q 126 148 171 68 q 82 329 82 228 l 82 708 l 200 708 l 200 331 q 232 196 200 251 q 318 113 264 140 q 438 85 372 85 l 443 85 l 443 708 l 560 708 l 560 85 l 563 85 q 689 115 632 85 q 780 202 746 144 q 814 338 814 260 q 706 708 814 519 l 833 708 q 905 531 878 628 q 932 338 932 433 q 878 141 932 222 q 740 19 825 60 q 563 -22 656 -22 l 560 -22 l 560 -300 l 443 -300 l 443 -22 z "},"ω":{"ha":1114,"x_min":50,"x_max":1064,"o":"m 346 -22 q 198 19 265 -22 q 90 140 131 60 q 50 336 50 221 q 156 708 50 524 l 288 708 q 167 336 167 513 q 214 152 167 219 q 344 85 261 85 q 457 147 414 85 q 500 321 500 208 l 500 535 l 613 535 l 613 321 q 656 147 613 208 q 769 85 700 85 q 899 152 853 85 q 946 336 946 219 q 826 708 946 514 l 958 708 q 1064 336 1064 518 q 1024 140 1064 221 q 916 19 983 60 q 768 -22 849 -22 q 645 14 700 -22 q 557 117 590 50 q 468 13 522 49 q 346 -22 414 -22 z "},"ί":{"ha":314,"x_min":99,"x_max":306,"o":"m 99 708 l 215 708 l 215 0 l 99 0 l 99 708 m 176 1022 l 306 1022 l 208 846 l 106 846 l 176 1022 z "},"ϊ":{"ha":314,"x_min":-10,"x_max":324,"o":"m 65 868 q 13 890 35 868 q -10 943 -10 913 q 13 996 -10 975 q 65 1017 35 1017 q 118 996 97 1017 q 139 943 139 975 q 118 890 139 913 q 65 868 97 868 m 250 868 q 197 890 219 868 q 175 943 175 913 q 197 996 175 975 q 250 1017 219 1017 q 303 996 282 1017 q 324 943 324 975 q 303 890 324 913 q 250 868 282 868 m 99 708 l 215 708 l 215 0 l 99 0 l 99 708 z "},"ΐ":{"ha":314,"x_min":-69,"x_max":385,"o":"m 99 708 l 215 708 l 215 0 l 99 0 l 99 708 m 115 1044 l 199 1044 l 199 844 l 115 844 l 115 1044 m -1 874 q -49 894 -28 874 q -69 943 -69 915 q -49 992 -69 972 q -1 1011 -29 1011 q 47 992 28 1011 q 67 943 67 972 q 47 894 67 915 q -1 874 28 874 m 317 874 q 269 895 290 874 q 247 943 247 917 q 268 992 247 972 q 317 1011 289 1011 q 365 992 346 1011 q 385 943 385 972 q 365 894 385 915 q 317 874 346 874 z "},"ύ":{"ha":778,"x_min":82,"x_max":728,"o":"m 388 -22 q 233 19 303 -22 q 122 134 163 61 q 82 296 82 207 l 82 708 l 200 708 l 200 319 q 254 146 200 207 q 396 85 308 85 q 501 114 451 85 q 580 200 550 143 q 610 335 610 257 q 576 517 610 419 q 481 708 542 614 l 613 708 q 695 529 663 626 q 728 335 728 432 q 680 138 728 218 q 555 17 632 57 q 388 -22 478 -22 m 396 1022 l 525 1022 l 428 846 l 325 846 l 396 1022 z "},"ϋ":{"ha":778,"x_min":82,"x_max":728,"o":"m 388 -22 q 233 19 303 -22 q 122 134 163 61 q 82 296 82 207 l 82 708 l 200 708 l 200 319 q 254 146 200 207 q 396 85 308 85 q 501 114 451 85 q 580 200 550 143 q 610 335 610 257 q 576 517 610 419 q 481 708 542 614 l 613 708 q 695 529 663 626 q 728 335 728 432 q 680 138 728 218 q 555 17 632 57 q 388 -22 478 -22 m 263 868 q 210 890 232 868 q 188 943 188 913 q 210 996 188 975 q 263 1017 232 1017 q 315 996 294 1017 q 336 943 336 975 q 315 890 336 913 q 263 868 294 868 m 490 868 q 438 890 461 868 q 415 943 415 913 q 438 996 415 975 q 490 1017 460 1017 q 544 996 522 1017 q 565 943 565 975 q 544 890 565 913 q 490 868 522 868 z "},"ΰ":{"ha":778,"x_min":82,"x_max":728,"o":"m 388 -22 q 233 19 303 -22 q 122 134 163 61 q 82 296 82 207 l 82 708 l 200 708 l 200 319 q 254 146 200 207 q 396 85 308 85 q 501 114 451 85 q 580 200 550 143 q 610 335 610 257 q 576 517 610 419 q 481 708 542 614 l 613 708 q 695 529 663 626 q 728 335 728 432 q 680 138 728 218 q 555 17 632 57 q 388 -22 478 -22 m 335 1044 l 418 1044 l 418 844 l 335 844 l 335 1044 m 218 874 q 171 894 192 874 q 150 943 150 915 q 170 992 150 972 q 218 1011 190 1011 q 267 992 247 1011 q 286 943 286 972 q 267 894 286 915 q 218 874 247 874 m 536 874 q 488 895 510 874 q 467 943 467 917 q 488 992 467 972 q 536 1011 508 1011 q 585 992 565 1011 q 604 943 604 972 q 585 894 604 915 q 536 874 565 874 z "},"ό":{"ha":828,"x_min":50,"x_max":778,"o":"m 414 -22 q 226 28 310 -22 q 97 164 143 78 q 50 354 50 250 q 97 544 50 458 q 226 681 143 631 q 414 731 310 731 q 601 681 518 731 q 731 544 685 631 q 778 354 778 458 q 731 164 778 250 q 601 28 685 78 q 414 -22 518 -22 m 414 85 q 535 117 479 85 q 626 211 592 150 q 660 354 660 272 q 626 497 660 436 q 535 591 592 558 q 414 624 479 624 q 292 591 349 624 q 201 497 235 558 q 167 354 167 436 q 201 211 167 272 q 292 117 235 150 q 414 85 349 85 m 433 1022 l 563 1022 l 465 846 l 363 846 l 433 1022 z "},"ώ":{"ha":1114,"x_min":50,"x_max":1064,"o":"m 346 -22 q 198 19 265 -22 q 90 140 131 60 q 50 336 50 221 q 156 708 50 524 l 288 708 q 167 336 167 513 q 214 152 167 219 q 344 85 261 85 q 457 147 414 85 q 500 321 500 208 l 500 535 l 613 535 l 613 321 q 656 147 613 208 q 769 85 700 85 q 899 152 853 85 q 946 336 946 219 q 826 708 946 514 l 958 708 q 1064 336 1064 518 q 1024 140 1064 221 q 916 19 983 60 q 768 -22 849 -22 q 645 14 700 -22 q 557 117 590 50 q 468 13 522 49 q 346 -22 414 -22 m 576 1022 l 706 1022 l 608 846 l 506 846 l 576 1022 z "},"ά":{"ha":832,"x_min":50,"x_max":749,"o":"m 388 -22 q 216 26 293 -22 q 94 160 139 75 q 50 354 50 246 q 94 547 50 461 q 216 682 139 633 q 388 731 293 731 q 533 694 469 731 q 631 603 597 657 l 636 603 l 636 708 l 749 708 l 749 0 l 636 0 l 636 104 l 631 104 q 533 15 597 51 q 388 -22 469 -22 m 401 85 q 517 118 464 85 q 603 213 571 151 q 636 354 636 274 q 603 496 636 435 q 517 590 571 557 q 401 624 464 624 q 286 590 340 624 q 199 495 232 557 q 167 354 167 433 q 199 213 167 275 q 286 118 232 151 q 401 85 340 85 m 422 1022 l 551 1022 l 454 846 l 351 846 l 422 1022 z "},"έ":{"ha":694,"x_min":60,"x_max":631,"o":"m 350 -22 q 140 37 219 -22 q 60 194 60 96 q 92 295 60 251 q 182 363 125 339 l 182 368 q 111 427 138 388 q 85 524 85 467 q 119 629 85 582 q 215 703 154 676 q 347 731 275 731 q 489 704 426 731 q 604 621 551 678 l 525 544 q 442 606 485 588 q 347 624 400 624 q 242 592 281 624 q 203 517 203 560 q 239 436 203 465 q 328 407 275 407 l 432 407 l 432 313 l 319 313 q 218 279 256 313 q 181 200 181 246 q 226 117 181 149 q 350 85 272 85 q 456 109 408 85 q 551 182 504 133 l 631 104 q 504 11 578 44 q 350 -22 431 -22 m 368 1022 l 497 1022 l 400 846 l 297 846 l 368 1022 z "},"ή":{"ha":779,"x_min":88,"x_max":697,"o":"m 579 435 q 532 578 579 532 q 403 624 485 624 q 301 592 346 624 q 231 508 256 560 q 206 399 206 456 l 206 0 l 88 0 l 88 708 l 200 708 l 200 604 l 206 604 q 299 694 235 657 q 435 731 363 731 q 629 656 561 731 q 697 453 697 581 l 697 -300 l 579 -300 l 579 435 m 426 1022 l 556 1022 l 458 846 l 356 846 l 426 1022 z "},"ϑ":{"ha":881,"x_min":82,"x_max":839,"o":"m 397 -22 q 233 19 304 -22 q 122 131 161 60 q 82 294 82 203 l 82 708 l 200 708 l 200 318 q 253 144 200 204 q 397 85 306 85 q 542 145 489 85 q 596 318 596 206 l 596 392 q 439 465 511 408 q 324 603 367 521 q 282 776 282 685 q 310 905 282 850 q 388 988 339 960 q 494 1017 436 1017 q 654 949 596 1017 q 713 781 713 882 l 713 497 l 839 497 l 839 390 l 713 390 l 713 294 q 674 131 713 203 q 563 19 635 60 q 397 -22 492 -22 m 596 789 q 569 873 596 839 q 494 907 543 907 q 425 871 453 907 q 397 775 397 835 q 453 604 397 682 q 596 501 510 526 l 596 789 z "},"ϖ":{"ha":1244,"x_min":64,"x_max":1181,"o":"m 411 -22 q 263 19 331 -22 q 156 140 196 60 q 115 336 115 221 q 174 601 115 465 l 64 601 l 64 708 l 1181 708 l 1181 601 l 1071 601 q 1129 336 1129 465 q 1089 140 1129 221 q 981 19 1049 60 q 833 -22 914 -22 q 711 13 765 -22 q 622 117 657 49 q 534 14 589 50 q 411 -22 479 -22 m 410 85 q 523 147 479 85 q 567 321 567 208 l 567 457 l 679 457 l 679 321 q 722 146 679 207 q 836 85 765 85 q 965 152 918 85 q 1013 336 1013 219 q 943 601 1013 456 l 301 601 q 233 336 233 458 q 280 152 233 219 q 410 85 326 85 z "},"➀":{"ha":1181,"x_min":71,"x_max":1110,"o":"m 590 -22 q 331 48 450 -22 q 141 238 211 118 q 71 497 71 357 q 141 757 71 638 q 331 947 211 876 q 590 1017 450 1017 q 850 947 731 1017 q 1040 757 969 876 q 1110 497 1110 638 q 1040 238 1110 357 q 850 48 969 118 q 590 -22 731 -22 m 590 61 q 810 120 710 61 q 968 280 910 179 q 1026 497 1026 381 q 968 717 1026 617 q 810 875 910 817 q 590 933 710 933 q 373 875 474 933 q 213 716 272 817 q 154 497 154 615 q 213 280 154 381 q 373 120 272 179 q 590 61 474 61 m 565 638 l 493 578 l 442 644 l 578 754 l 656 754 l 656 246 l 565 246 l 565 638 z "},"➁":{"ha":1181,"x_min":71,"x_max":1110,"o":"m 590 -22 q 331 48 450 -22 q 141 238 211 118 q 71 497 71 357 q 141 757 71 638 q 331 947 211 876 q 590 1017 450 1017 q 850 947 731 1017 q 1040 757 969 876 q 1110 497 1110 638 q 1040 238 1110 357 q 850 48 969 118 q 590 -22 731 -22 m 590 61 q 810 120 710 61 q 968 280 910 179 q 1026 497 1026 381 q 968 717 1026 617 q 810 875 910 817 q 590 933 710 933 q 373 875 474 933 q 213 716 272 817 q 154 497 154 615 q 213 280 154 381 q 373 120 272 179 q 590 61 474 61 m 418 324 l 606 511 q 651 565 635 542 q 667 617 667 589 q 644 664 667 644 q 589 683 622 683 q 531 662 556 683 q 499 599 507 640 l 415 633 q 478 730 429 694 q 588 765 526 765 q 708 724 657 765 q 758 617 758 683 q 733 536 758 574 q 672 463 708 499 l 538 328 l 761 328 l 761 246 l 418 246 l 418 324 z "},"➂":{"ha":1181,"x_min":71,"x_max":1110,"o":"m 590 -22 q 331 48 450 -22 q 141 238 211 118 q 71 497 71 357 q 141 757 71 638 q 331 947 211 876 q 590 1017 450 1017 q 850 947 731 1017 q 1040 757 969 876 q 1110 497 1110 638 q 1040 238 1110 357 q 850 48 969 118 q 590 -22 731 -22 m 590 61 q 810 120 710 61 q 968 280 910 179 q 1026 497 1026 381 q 968 717 1026 617 q 810 875 910 817 q 590 933 710 933 q 373 875 474 933 q 213 716 272 817 q 154 497 154 615 q 213 280 154 381 q 373 120 272 179 q 590 61 474 61 m 588 235 q 469 269 521 235 q 401 372 418 304 l 485 404 q 524 338 496 360 q 588 317 553 317 q 651 340 624 317 q 678 397 678 363 q 652 451 678 431 q 589 471 626 471 l 532 471 l 532 549 l 582 549 q 638 568 617 549 q 660 618 660 588 q 638 665 660 647 q 586 683 617 683 q 500 621 525 683 l 421 653 q 481 735 439 704 q 586 765 524 765 q 706 724 660 765 q 753 619 753 683 q 689 514 753 556 q 769 397 769 469 q 716 279 769 324 q 588 235 663 235 z "},"➃":{"ha":1181,"x_min":71,"x_max":1110,"o":"m 590 -22 q 331 48 450 -22 q 141 238 211 118 q 71 497 71 357 q 141 757 71 638 q 331 947 211 876 q 590 1017 450 1017 q 850 947 731 1017 q 1040 757 969 876 q 1110 497 1110 638 q 1040 238 1110 357 q 850 48 969 118 q 590 -22 731 -22 m 590 61 q 810 120 710 61 q 968 280 910 179 q 1026 497 1026 381 q 968 717 1026 617 q 810 875 910 817 q 590 933 710 933 q 373 875 474 933 q 213 716 272 817 q 154 497 154 615 q 213 280 154 381 q 373 120 272 179 q 590 61 474 61 m 600 349 l 361 349 l 361 410 l 606 754 l 690 754 l 690 426 l 758 426 l 758 349 l 690 349 l 690 246 l 600 246 l 600 349 m 600 426 l 600 617 l 594 617 l 458 426 l 600 426 z "},"➄":{"ha":1181,"x_min":71,"x_max":1110,"o":"m 590 -22 q 331 48 450 -22 q 141 238 211 118 q 71 497 71 357 q 141 757 71 638 q 331 947 211 876 q 590 1017 450 1017 q 850 947 731 1017 q 1040 757 969 876 q 1110 497 1110 638 q 1040 238 1110 357 q 850 48 969 118 q 590 -22 731 -22 m 590 61 q 810 120 710 61 q 968 280 910 179 q 1026 497 1026 381 q 968 717 1026 617 q 810 875 910 817 q 590 933 710 933 q 373 875 474 933 q 213 716 272 817 q 154 497 154 615 q 213 280 154 381 q 373 120 272 179 q 590 61 474 61 m 592 235 q 477 266 529 235 q 407 361 425 297 l 492 393 q 527 337 500 357 q 592 317 554 317 q 657 344 631 317 q 683 413 683 372 q 657 480 683 453 q 592 507 631 507 q 501 458 536 507 l 424 490 l 458 753 l 746 753 l 746 675 l 533 675 l 517 556 q 554 577 531 569 q 603 585 578 585 q 725 537 675 585 q 775 411 775 489 q 750 321 775 361 q 683 258 725 281 q 592 235 640 235 z "},"➅":{"ha":1181,"x_min":71,"x_max":1110,"o":"m 590 -22 q 331 48 450 -22 q 141 238 211 118 q 71 497 71 357 q 141 757 71 638 q 331 947 211 876 q 590 1017 450 1017 q 850 947 731 1017 q 1040 757 969 876 q 1110 497 1110 638 q 1040 238 1110 357 q 850 48 969 118 q 590 -22 731 -22 m 590 61 q 810 120 710 61 q 968 280 910 179 q 1026 497 1026 381 q 968 717 1026 617 q 810 875 910 817 q 590 933 710 933 q 373 875 474 933 q 213 716 272 817 q 154 497 154 615 q 213 280 154 381 q 373 120 272 179 q 590 61 474 61 m 586 235 q 493 258 536 235 q 425 322 450 282 q 400 410 400 363 q 416 488 400 450 q 463 568 432 526 l 613 776 l 683 728 l 563 574 q 599 582 575 582 q 685 558 646 582 q 747 494 724 533 q 769 410 769 454 q 744 322 769 363 q 676 258 718 282 q 586 235 635 235 m 585 317 q 651 344 625 317 q 676 411 676 372 q 650 476 676 449 q 585 504 624 504 q 519 476 546 504 q 493 411 493 449 q 519 344 493 372 q 585 317 544 317 z "},"➆":{"ha":1181,"x_min":71,"x_max":1110,"o":"m 590 -22 q 331 48 450 -22 q 141 238 211 118 q 71 497 71 357 q 141 757 71 638 q 331 947 211 876 q 590 1017 450 1017 q 850 947 731 1017 q 1040 757 969 876 q 1110 497 1110 638 q 1040 238 1110 357 q 850 48 969 118 q 590 -22 731 -22 m 590 61 q 810 120 710 61 q 968 280 910 179 q 1026 497 1026 381 q 968 717 1026 617 q 810 875 910 817 q 590 933 710 933 q 373 875 474 933 q 213 716 272 817 q 154 497 154 615 q 213 280 154 381 q 373 120 272 179 q 590 61 474 61 m 450 268 l 674 672 l 429 672 l 429 754 l 774 754 l 774 678 l 531 225 l 450 268 z "},"➇":{"ha":1181,"x_min":71,"x_max":1110,"o":"m 590 -22 q 331 48 450 -22 q 141 238 211 118 q 71 497 71 357 q 141 757 71 638 q 331 947 211 876 q 590 1017 450 1017 q 850 947 731 1017 q 1040 757 969 876 q 1110 497 1110 638 q 1040 238 1110 357 q 850 48 969 118 q 590 -22 731 -22 m 590 61 q 810 120 710 61 q 968 280 910 179 q 1026 497 1026 381 q 968 717 1026 617 q 810 875 910 817 q 590 933 710 933 q 373 875 474 933 q 213 716 272 817 q 154 497 154 615 q 213 280 154 381 q 373 120 272 179 q 590 61 474 61 m 592 235 q 501 254 544 235 q 432 309 458 274 q 406 392 406 344 q 425 460 406 428 q 481 514 444 492 q 439 558 456 529 q 422 615 422 586 q 473 724 422 682 q 592 765 524 765 q 710 724 660 765 q 760 615 760 682 q 743 559 760 588 q 701 514 726 531 q 757 460 738 492 q 776 392 776 428 q 721 278 776 321 q 592 235 665 235 m 592 549 q 644 568 622 549 q 667 615 667 588 q 645 663 667 643 q 592 683 624 683 q 537 664 558 683 q 515 615 515 644 q 538 567 515 586 q 592 549 560 549 m 592 317 q 655 340 626 317 q 683 396 683 363 q 654 451 683 428 q 592 474 625 474 q 527 451 556 474 q 499 396 499 429 q 526 339 499 361 q 592 317 554 317 z "},"➈":{"ha":1181,"x_min":71,"x_max":1110,"o":"m 590 -22 q 331 48 450 -22 q 141 238 211 118 q 71 497 71 357 q 141 757 71 638 q 331 947 211 876 q 590 1017 450 1017 q 850 947 731 1017 q 1040 757 969 876 q 1110 497 1110 638 q 1040 238 1110 357 q 850 48 969 118 q 590 -22 731 -22 m 590 61 q 810 120 710 61 q 968 280 910 179 q 1026 497 1026 381 q 968 717 1026 617 q 810 875 910 817 q 590 933 710 933 q 373 875 474 933 q 213 716 272 817 q 154 497 154 615 q 213 280 154 381 q 373 120 272 179 q 590 61 474 61 m 489 272 l 611 426 q 574 418 597 418 q 488 442 526 418 q 426 506 449 467 q 403 590 403 546 q 428 678 403 638 q 497 742 454 718 q 588 765 539 765 q 680 742 638 765 q 747 678 722 718 q 772 590 772 638 q 756 512 772 550 q 710 432 740 474 l 560 224 l 489 272 m 589 496 q 653 524 628 496 q 679 589 679 551 q 653 656 679 628 q 589 683 628 683 q 522 656 549 683 q 496 589 496 628 q 522 524 496 551 q 589 496 549 496 z "},"➊":{"ha":1181,"x_min":71,"x_max":1110,"o":"m 590 -22 q 331 48 450 -22 q 141 238 211 118 q 71 497 71 357 q 141 757 71 638 q 331 947 211 876 q 590 1017 450 1017 q 850 947 731 1017 q 1040 757 969 876 q 1110 497 1110 638 q 1040 238 1110 357 q 850 48 969 118 q 590 -22 731 -22 m 654 246 l 654 754 l 576 754 l 442 644 l 492 578 l 564 638 l 564 246 l 654 246 z "},"➋":{"ha":1181,"x_min":71,"x_max":1110,"o":"m 590 -22 q 331 48 450 -22 q 141 238 211 118 q 71 497 71 357 q 141 757 71 638 q 331 947 211 876 q 590 1017 450 1017 q 850 947 731 1017 q 1040 757 969 876 q 1110 497 1110 638 q 1040 238 1110 357 q 850 48 969 118 q 590 -22 731 -22 m 763 246 l 763 328 l 538 328 l 672 463 q 735 537 710 500 q 760 617 760 574 q 708 724 760 683 q 588 765 657 765 q 478 730 526 765 q 417 633 429 694 l 500 599 q 533 663 510 642 q 590 683 557 683 q 644 664 622 683 q 667 617 667 644 q 651 565 667 589 q 606 511 635 542 l 419 324 l 419 246 l 763 246 z "},"➌":{"ha":1181,"x_min":71,"x_max":1110,"o":"m 590 -22 q 331 48 450 -22 q 141 238 211 118 q 71 497 71 357 q 141 757 71 638 q 331 947 211 876 q 590 1017 450 1017 q 850 947 731 1017 q 1040 757 969 876 q 1110 497 1110 638 q 1040 238 1110 357 q 850 48 969 118 q 590 -22 731 -22 m 588 231 q 716 274 663 231 q 769 392 769 318 q 689 510 769 464 q 753 615 753 551 q 706 720 753 679 q 585 761 660 761 q 481 731 524 761 q 421 647 439 700 l 500 615 q 586 678 524 678 q 638 660 617 678 q 660 614 660 643 q 638 563 660 582 q 582 544 615 544 l 532 544 l 532 467 l 588 467 q 651 447 625 467 q 678 393 678 428 q 651 335 678 358 q 588 313 624 313 q 524 333 551 313 q 485 399 496 354 l 401 368 q 469 265 418 300 q 588 231 521 231 z "},"➍":{"ha":1181,"x_min":71,"x_max":1110,"o":"m 590 -22 q 331 48 450 -22 q 141 238 211 118 q 71 497 71 357 q 141 757 71 638 q 331 947 211 876 q 590 1017 450 1017 q 850 947 731 1017 q 1040 757 969 876 q 1110 497 1110 638 q 1040 238 1110 357 q 850 48 969 118 q 590 -22 731 -22 m 692 246 l 692 349 l 760 349 l 760 426 l 692 426 l 692 754 l 607 754 l 363 410 l 363 349 l 601 349 l 601 246 l 692 246 m 596 617 l 601 617 l 601 426 l 460 426 l 596 617 z "},"➎":{"ha":1181,"x_min":71,"x_max":1110,"o":"m 590 -22 q 331 48 450 -22 q 141 238 211 118 q 71 497 71 357 q 141 757 71 638 q 331 947 211 876 q 590 1017 450 1017 q 850 947 731 1017 q 1040 757 969 876 q 1110 497 1110 638 q 1040 238 1110 357 q 850 48 969 118 q 590 -22 731 -22 m 592 235 q 683 258 640 235 q 750 321 725 281 q 775 411 775 361 q 725 537 775 489 q 603 585 675 585 q 554 577 578 585 q 517 556 531 569 l 533 675 l 744 675 l 744 753 l 458 753 l 424 490 l 501 458 q 590 507 536 507 q 657 480 631 507 q 683 413 683 453 q 657 344 683 372 q 592 317 631 317 q 526 337 553 317 q 492 393 500 357 l 407 361 q 477 266 425 297 q 592 235 529 235 z "},"➏":{"ha":1181,"x_min":71,"x_max":1110,"o":"m 590 -22 q 331 48 450 -22 q 141 238 211 118 q 71 497 71 357 q 141 757 71 638 q 331 947 211 876 q 590 1017 450 1017 q 850 947 731 1017 q 1040 757 969 876 q 1110 497 1110 638 q 1040 238 1110 357 q 850 48 969 118 q 590 -22 731 -22 m 585 235 q 676 258 633 235 q 743 322 718 282 q 768 410 768 363 q 746 494 768 454 q 685 558 724 533 q 599 582 646 582 q 561 574 576 582 l 682 728 l 613 776 l 463 568 q 416 488 432 526 q 400 410 400 450 q 425 322 400 363 q 492 258 450 282 q 585 235 535 235 m 583 317 q 519 344 544 317 q 493 411 493 372 q 519 476 493 449 q 583 504 544 504 q 650 476 624 504 q 676 411 676 449 q 650 344 676 372 q 583 317 624 317 z "},"➐":{"ha":1181,"x_min":71,"x_max":1110,"o":"m 590 -22 q 331 48 450 -22 q 141 238 211 118 q 71 497 71 357 q 141 757 71 638 q 331 947 211 876 q 590 1017 450 1017 q 850 947 731 1017 q 1040 757 969 876 q 1110 497 1110 638 q 1040 238 1110 357 q 850 48 969 118 q 590 -22 731 -22 m 774 678 l 774 754 l 431 754 l 431 672 l 674 672 l 450 268 l 531 225 l 774 678 z "},"➑":{"ha":1181,"x_min":71,"x_max":1110,"o":"m 590 -22 q 331 48 450 -22 q 141 238 211 118 q 71 497 71 357 q 141 757 71 638 q 331 947 211 876 q 590 1017 450 1017 q 850 947 731 1017 q 1040 757 969 876 q 1110 497 1110 638 q 1040 238 1110 357 q 850 48 969 118 q 590 -22 731 -22 m 590 235 q 719 278 664 235 q 775 392 775 321 q 756 460 775 428 q 701 514 736 492 q 742 558 726 529 q 758 615 758 586 q 708 724 758 682 q 590 765 658 765 q 472 724 522 765 q 422 615 422 682 q 438 558 422 586 q 479 514 454 531 q 425 460 444 492 q 406 392 406 428 q 461 278 406 322 q 590 235 517 235 m 590 549 q 538 567 560 549 q 515 615 515 586 q 536 664 515 644 q 590 683 557 683 q 644 663 622 683 q 667 615 667 643 q 644 568 667 588 q 590 549 621 549 m 590 317 q 526 339 554 317 q 499 396 499 361 q 527 451 499 429 q 590 474 556 474 q 654 451 625 474 q 683 396 683 428 q 654 340 683 363 q 590 317 625 317 z "},"➒":{"ha":1181,"x_min":71,"x_max":1110,"o":"m 590 -22 q 331 48 450 -22 q 141 238 211 118 q 71 497 71 357 q 141 757 71 638 q 331 947 211 876 q 590 1017 450 1017 q 850 947 731 1017 q 1040 757 969 876 q 1110 497 1110 638 q 1040 238 1110 357 q 850 48 969 118 q 590 -22 731 -22 m 708 432 q 755 512 739 474 q 771 590 771 550 q 746 678 771 638 q 678 742 721 718 q 586 765 636 765 q 495 742 538 765 q 428 678 453 718 q 403 590 403 638 q 426 506 403 546 q 488 442 449 467 q 574 418 526 418 q 610 426 597 418 l 489 272 l 558 224 l 708 432 m 588 496 q 522 524 549 496 q 496 589 496 551 q 522 656 496 628 q 588 683 547 683 q 653 656 628 683 q 679 589 679 628 q 653 524 679 551 q 588 496 626 496 z "},"¹":{"ha":332,"x_min":32,"x_max":246,"o":"m 156 878 l 83 818 l 32 885 l 168 994 l 246 994 l 246 486 l 156 486 l 156 878 z "},"²":{"ha":419,"x_min":29,"x_max":375,"o":"m 32 564 l 219 751 q 265 806 249 782 q 281 857 281 829 q 258 904 281 885 q 203 924 236 924 q 145 902 169 924 q 113 839 121 881 l 29 874 q 92 970 43 935 q 201 1006 140 1006 q 322 965 271 1006 q 372 857 372 924 q 347 776 372 814 q 286 703 322 739 l 151 568 l 375 568 l 375 486 l 32 486 l 32 564 z "},"³":{"ha":447,"x_min":31,"x_max":399,"o":"m 217 475 q 99 510 150 475 q 31 613 47 544 l 114 644 q 153 578 125 600 q 217 557 182 557 q 280 580 253 557 q 307 638 307 603 q 281 691 307 671 q 218 711 256 711 l 161 711 l 161 789 l 211 789 q 267 808 246 789 q 289 858 289 828 q 267 906 289 888 q 215 924 246 924 q 129 861 154 924 l 50 893 q 110 975 68 944 q 215 1006 153 1006 q 335 965 289 1006 q 382 860 382 924 q 318 754 382 796 q 399 638 399 710 q 345 519 399 564 q 217 475 292 475 z "},"⁴":{"ha":475,"x_min":38,"x_max":435,"o":"m 276 589 l 38 589 l 38 650 l 282 994 l 367 994 l 367 667 l 435 667 l 435 589 l 367 589 l 367 486 l 276 486 l 276 589 m 276 667 l 276 857 l 271 857 l 135 667 l 276 667 z "},"⁄":{"ha":240,"x_min":-240,"x_max":481,"o":"m -240 39 l 407 1004 l 481 954 l -167 -10 l -240 39 z "},"½":{"ha":1075,"x_min":67,"x_max":994,"o":"m 190 878 l 118 818 l 67 885 l 203 994 l 281 994 l 281 486 l 190 486 l 190 878 m 128 39 l 775 1004 l 849 954 l 201 -10 l 128 39 m 651 78 l 839 265 q 884 319 868 296 q 900 371 900 343 q 878 418 900 399 q 822 438 856 438 q 765 416 789 438 q 732 353 740 394 l 649 388 q 711 484 663 449 q 821 519 760 519 q 941 478 890 519 q 992 371 992 438 q 967 290 992 328 q 906 217 942 253 l 771 82 l 994 82 l 994 0 l 651 0 l 651 78 z "},"⅓":{"ha":1118,"x_min":67,"x_max":1018,"o":"m 190 878 l 118 818 l 67 885 l 203 994 l 281 994 l 281 486 l 190 486 l 190 878 m 147 39 l 794 1004 l 868 954 l 221 -10 l 147 39 m 836 -11 q 718 24 769 -11 q 650 126 667 58 l 733 158 q 773 92 744 114 q 836 71 801 71 q 899 94 872 71 q 926 151 926 117 q 901 205 926 185 q 838 225 875 225 l 781 225 l 781 303 l 831 303 q 887 322 865 303 q 908 372 908 342 q 887 419 908 401 q 835 438 865 438 q 749 375 774 438 l 669 407 q 730 489 688 458 q 835 519 772 519 q 955 478 908 519 q 1001 374 1001 438 q 938 268 1001 310 q 1018 151 1018 224 q 965 33 1018 78 q 836 -11 911 -11 z "},"⅔":{"ha":1217,"x_min":67,"x_max":1113,"o":"m 69 564 l 257 751 q 302 806 286 782 q 318 857 318 829 q 296 904 318 885 q 240 924 274 924 q 183 902 207 924 q 150 839 158 881 l 67 874 q 129 970 81 935 q 239 1006 178 1006 q 359 965 308 1006 q 410 857 410 924 q 385 776 410 814 q 324 703 360 739 l 189 568 l 413 568 l 413 486 l 69 486 l 69 564 m 246 39 l 893 1004 l 967 954 l 319 -10 l 246 39 m 931 -11 q 813 24 864 -11 q 744 126 761 58 l 828 158 q 867 92 839 114 q 931 71 896 71 q 994 94 967 71 q 1021 151 1021 117 q 995 205 1021 185 q 932 225 969 225 l 875 225 l 875 303 l 925 303 q 981 322 960 303 q 1003 372 1003 342 q 981 419 1003 401 q 929 438 960 438 q 843 375 868 438 l 764 407 q 824 489 782 458 q 929 519 867 519 q 1049 478 1003 519 q 1096 374 1096 438 q 1032 268 1096 310 q 1113 151 1113 224 q 1059 33 1113 78 q 931 -11 1006 -11 z "},"¼":{"ha":1017,"x_min":67,"x_max":939,"o":"m 190 878 l 118 818 l 67 885 l 203 994 l 281 994 l 281 486 l 190 486 l 190 878 m 139 39 l 786 1004 l 860 954 l 213 -10 l 139 39 m 781 103 l 542 103 l 542 164 l 786 508 l 871 508 l 871 181 l 939 181 l 939 103 l 871 103 l 871 0 l 781 0 l 781 103 m 781 181 l 781 371 l 775 371 l 639 181 l 781 181 z "},"¾":{"ha":1146,"x_min":67,"x_max":1068,"o":"m 253 475 q 135 510 186 475 q 67 613 83 544 l 150 644 q 190 578 161 600 q 253 557 218 557 q 316 580 289 557 q 343 638 343 603 q 317 691 343 671 q 254 711 292 711 l 197 711 l 197 789 l 247 789 q 303 808 282 789 q 325 858 325 828 q 303 906 325 888 q 251 924 282 924 q 165 861 190 924 l 86 893 q 147 975 104 944 q 251 1006 189 1006 q 372 965 325 1006 q 418 860 418 924 q 354 754 418 796 q 435 638 435 710 q 381 519 435 564 q 253 475 328 475 m 250 39 l 897 1004 l 971 954 l 324 -10 l 250 39 m 910 103 l 671 103 l 671 164 l 915 508 l 1000 508 l 1000 181 l 1068 181 l 1068 103 l 1000 103 l 1000 0 l 910 0 l 910 103 m 910 181 l 910 371 l 904 371 l 768 181 l 910 181 z "},"⅛":{"ha":1104,"x_min":67,"x_max":1026,"o":"m 190 878 l 118 818 l 67 885 l 203 994 l 281 994 l 281 486 l 190 486 l 190 878 m 144 39 l 792 1004 l 865 954 l 218 -10 l 144 39 m 842 -11 q 751 8 794 -11 q 682 63 708 28 q 656 146 656 99 q 675 214 656 182 q 731 268 694 246 q 689 312 706 283 q 672 369 672 340 q 723 478 672 436 q 842 519 774 519 q 960 478 910 519 q 1010 369 1010 436 q 993 313 1010 342 q 951 268 976 285 q 1007 214 988 246 q 1026 146 1026 182 q 971 32 1026 75 q 842 -11 915 -11 m 842 303 q 894 322 872 303 q 917 369 917 342 q 895 417 917 397 q 842 438 874 438 q 787 418 808 438 q 765 369 765 399 q 788 322 765 340 q 842 303 810 303 m 842 71 q 905 94 876 71 q 933 150 933 117 q 904 205 933 182 q 842 228 875 228 q 777 206 806 228 q 749 150 749 183 q 776 93 749 115 q 842 71 804 71 z "},"⅜":{"ha":1169,"x_min":67,"x_max":1092,"o":"m 253 475 q 135 510 186 475 q 67 613 83 544 l 150 644 q 190 578 161 600 q 253 557 218 557 q 316 580 289 557 q 343 638 343 603 q 317 691 343 671 q 254 711 292 711 l 197 711 l 197 789 l 247 789 q 303 808 282 789 q 325 858 325 828 q 303 906 325 888 q 251 924 282 924 q 165 861 190 924 l 86 893 q 147 975 104 944 q 251 1006 189 1006 q 372 965 325 1006 q 418 860 418 924 q 354 754 418 796 q 435 638 435 710 q 381 519 435 564 q 253 475 328 475 m 221 39 l 868 1004 l 942 954 l 294 -10 l 221 39 m 907 -11 q 817 8 860 -11 q 747 63 774 28 q 721 146 721 99 q 740 214 721 182 q 796 268 760 246 q 754 312 771 283 q 738 369 738 340 q 788 478 738 436 q 907 519 839 519 q 1025 478 975 519 q 1075 369 1075 436 q 1058 313 1075 342 q 1017 268 1042 285 q 1072 214 1053 246 q 1092 146 1092 182 q 1036 32 1092 75 q 907 -11 981 -11 m 907 303 q 960 322 938 303 q 982 369 982 342 q 960 417 982 397 q 907 438 939 438 q 852 418 874 438 q 831 369 831 399 q 853 322 831 340 q 907 303 875 303 m 907 71 q 970 94 942 71 q 999 150 999 117 q 969 205 999 182 q 907 228 940 228 q 842 206 871 228 q 814 150 814 183 q 842 93 814 115 q 907 71 869 71 z "},"⅝":{"ha":1171,"x_min":67,"x_max":1093,"o":"m 251 476 q 137 508 189 476 q 67 603 85 539 l 151 635 q 187 578 160 599 q 251 558 214 558 q 317 586 290 558 q 343 654 343 614 q 317 722 343 694 q 251 749 290 749 q 161 700 196 749 l 83 732 l 118 994 l 406 994 l 406 917 l 193 917 l 176 797 q 214 819 190 811 q 263 826 238 826 q 385 778 335 826 q 435 653 435 731 q 410 563 435 603 q 342 499 385 522 q 251 476 300 476 m 217 39 l 864 1004 l 938 954 l 290 -10 l 217 39 m 908 -11 q 818 8 861 -11 q 749 63 775 28 q 722 146 722 99 q 742 214 722 182 q 797 268 761 246 q 756 312 772 283 q 739 369 739 340 q 790 478 739 436 q 908 519 840 519 q 1026 478 976 519 q 1076 369 1076 436 q 1060 313 1076 342 q 1018 268 1043 285 q 1074 214 1054 246 q 1093 146 1093 182 q 1038 32 1093 75 q 908 -11 982 -11 m 908 303 q 961 322 939 303 q 983 369 983 342 q 962 417 983 397 q 908 438 940 438 q 853 418 875 438 q 832 369 832 399 q 854 322 832 340 q 908 303 876 303 m 908 71 q 972 94 943 71 q 1000 150 1000 117 q 971 205 1000 182 q 908 228 942 228 q 844 206 872 228 q 815 150 815 183 q 843 93 815 115 q 908 71 871 71 z "},"⅞":{"ha":1067,"x_min":67,"x_max":989,"o":"m 88 508 l 306 913 l 67 913 l 67 994 l 411 994 l 411 918 l 168 465 l 88 508 m 92 39 l 739 1004 l 813 954 l 165 -10 l 92 39 m 804 -11 q 714 8 757 -11 q 644 63 671 28 q 618 146 618 99 q 638 214 618 182 q 693 268 657 246 q 651 312 668 283 q 635 369 635 340 q 685 478 635 436 q 804 519 736 519 q 922 478 872 519 q 972 369 972 436 q 956 313 972 342 q 914 268 939 285 q 969 214 950 246 q 989 146 989 182 q 933 32 989 75 q 804 -11 878 -11 m 804 303 q 857 322 835 303 q 879 369 879 342 q 858 417 879 397 q 804 438 836 438 q 749 418 771 438 q 728 369 728 399 q 750 322 728 340 q 804 303 772 303 m 804 71 q 867 94 839 71 q 896 150 896 117 q 867 205 896 182 q 804 228 838 228 q 740 206 768 228 q 711 150 711 183 q 739 93 711 115 q 804 71 767 71 z "},"Ⅰ":{"ha":610,"x_min":32,"x_max":576,"o":"m 32 113 l 246 113 l 246 838 l 32 838 l 32 950 l 576 950 l 576 838 l 364 838 l 364 113 l 576 113 l 576 0 l 32 0 l 32 113 z "},"Ⅱ":{"ha":971,"x_min":32,"x_max":938,"o":"m 32 113 l 246 113 l 246 838 l 32 838 l 32 950 l 938 950 l 938 838 l 725 838 l 725 113 l 938 113 l 938 0 l 32 0 l 32 113 m 607 113 l 607 838 l 364 838 l 364 113 l 607 113 z "},"Ⅲ":{"ha":1332,"x_min":32,"x_max":1299,"o":"m 32 113 l 246 113 l 246 838 l 32 838 l 32 950 l 1299 950 l 1299 838 l 1086 838 l 1086 113 l 1299 113 l 1299 0 l 32 0 l 32 113 m 607 113 l 607 838 l 364 838 l 364 113 l 607 113 m 968 113 l 968 838 l 725 838 l 725 113 l 968 113 z "}}}
